<svg xmlns="http://www.w3.org/2000/svg" viewBox="0 0 27.06 26.57"><g id="レイヤー_2" data-name="レイヤー 2"><g id="レイヤー_1-2" data-name="レイヤー 1"><path d="M21.53,24.73a15.27,15.27,0,0,1-10.1,1.6,14.34,14.34,0,0,1-8.5-5,12.85,12.85,0,0,1-2.9-9,12.28,12.28,0,0,1,3.9-8.4A14,14,0,0,1,12.53,0a14.54,14.54,0,0,1,9.1,2.4,12.41,12.41,0,0,1,5.1,7.4,11.67,11.67,0,0,1-1.2,8.6,12,12,0,0,0,.8-8.5A12.7,12.7,0,0,0,21.13,3a13.25,13.25,0,0,0-8.5-1.9,12.34,12.34,0,0,0-7.5,3.8,11,11,0,0,0-.2,14.9,12.12,12.12,0,0,0,7.1,3.8,12.09,12.09,0,0,0,7.9-1.6Z"/><path d="M7.93,5.23l3.2,1v6.9h7.2V5.23l2.8,1-.2,18.7-2.6-.9v-9.4h-7.2v6.1l-3.2-1.3Z"/></g></g></svg>