<svg id="レイヤー_1" data-name="レイヤー 1" xmlns="http://www.w3.org/2000/svg" viewBox="0 0 27.07 26.63"><defs><style>.cls-1{fill:#909090;}</style></defs><g id="レイヤー_2" data-name="レイヤー 2"><g id="レイヤー_1-2" data-name="レイヤー 1-2"><path class="cls-1" d="M21.53,24.73a15.28,15.28,0,0,1-10.1,1.6,14.32,14.32,0,0,1-8.5-5,12.84,12.84,0,0,1-2.9-9,12.24,12.24,0,0,1,3.9-8.4A14,14,0,0,1,12.53,0a14.51,14.51,0,0,1,9.1,2.4,12.43,12.43,0,0,1,5.1,7.4,11.69,11.69,0,0,1-1.2,8.6,12,12,0,0,0,.8-8.5A12.65,12.65,0,0,0,21.13,3a13.28,13.28,0,0,0-8.5-1.9,12.32,12.32,0,0,0-7.5,3.8,11,11,0,0,0-.2,14.9A12.1,12.1,0,0,0,12,23.6a12.07,12.07,0,0,0,7.9-1.6Z" transform="translate(0 0.04)"/><path class="cls-1" d="M7.93,5.23l3.2,1v6.9h7.2V5.23l2.8,1-.2,18.7-2.6-.9v-9.4h-7.2v6.1l-3.2-1.3Z" transform="translate(0 0.04)"/></g></g></svg>