<svg width="30" height="30" viewBox="0 0 30 30" fill="none" xmlns="http://www.w3.org/2000/svg">
<path d="M23.8645 27.4177C20.5384 29.3025 16.5471 29.8568 12.6668 29.1916C9.00811 28.5264 5.57119 26.5308 3.24296 23.6482C0.914728 20.8765 -0.193955 17.2178 0.0277815 13.6701C0.13865 10.1223 1.80167 6.79622 4.35164 4.35712C6.90161 1.91802 10.3385 0.254997 13.8863 0.0332605C17.4341 -0.188476 21.0927 0.698469 23.9753 2.6941C26.8579 4.68973 28.8535 7.5723 29.6296 10.8983C30.4057 14.2244 29.9622 17.5504 28.2992 20.433C29.7405 17.5504 30.0731 14.0027 29.1861 11.0092C28.2992 8.01577 26.1927 5.1332 23.421 3.35931C20.6493 1.58542 17.3232 0.920206 13.9972 1.25281C10.782 1.58542 7.78856 3.24844 5.68206 5.4658C3.57557 7.68317 2.35601 10.6766 2.35601 13.7809C2.35601 16.8852 3.4647 19.7678 5.46032 21.9852C7.45595 24.2025 10.3385 25.7547 13.332 26.1982C16.4363 26.6416 19.4297 25.9764 22.0906 24.4243L23.8645 27.4177Z" fill="white"/>
<path d="M8.78662 5.79841L12.3344 6.90709V14.557H20.3169V5.79841L23.4212 6.90709L23.1995 27.6395L20.3169 26.6416V16.22H12.3344V22.983L8.78662 21.5417V5.79841Z" fill="white"/>
</svg>
