<svg width="1138" height="989" viewBox="0 0 1138 989" fill="none" xmlns="http://www.w3.org/2000/svg">
<path d="M530.012 24.4085C555.245 9.37025 586.69 9.37025 611.923 24.4085L809.625 142.233C861.684 173.259 861.684 248.65 809.625 279.676L611.923 397.5C586.69 412.539 555.245 412.539 530.012 397.5L332.31 279.676C280.251 248.65 280.251 173.259 332.31 142.233L530.012 24.4085Z" fill="#2C3630"/>
<path d="M431.547 213.358C424.187 213.455 418.559 208.01 418.72 198.332C418.879 188.733 424.853 182.937 432.293 182.839C435.972 182.791 438.783 184.514 440.551 186.41L438.021 189.442C436.527 187.902 434.706 186.846 432.306 186.878C427.226 186.944 423.636 191.23 423.522 198.109C423.406 205.108 426.615 209.344 431.814 209.276C434.494 209.241 436.594 208.014 438.346 206.072L440.817 208.959C438.411 211.749 435.386 213.308 431.547 213.358ZM454.364 213.06C448.885 213.131 444.075 208.956 444.196 201.677C444.318 194.318 449.268 190.015 454.747 189.943C460.187 189.872 465.036 194.047 464.914 201.406C464.794 208.685 459.804 212.989 454.364 213.06ZM454.427 209.26C457.867 209.215 460.118 206.107 460.195 201.467C460.272 196.788 458.124 193.737 454.684 193.782C451.204 193.828 449.033 196.935 448.956 201.615C448.879 206.254 450.947 209.306 454.427 209.26ZM470.141 212.293L470.506 190.296L474.266 190.247L474.615 193.322L474.735 193.32C476.648 191.296 478.875 189.627 481.595 189.591C484.874 189.549 486.689 191.044 487.567 193.552C489.805 191.243 492.074 189.454 494.833 189.418C499.433 189.358 501.5 192.49 501.408 198.049L501.179 211.887L496.579 211.947L496.799 198.709C496.862 194.87 495.727 193.405 493.247 193.438C491.727 193.457 490.112 194.438 488.239 196.462L487.98 212.06L483.38 212.12L483.6 198.882C483.664 195.042 482.528 193.578 480.008 193.611C478.528 193.63 476.833 194.612 475.04 196.635L474.781 212.233L470.141 212.293ZM507.873 211.799L508.237 189.803L511.997 189.753L512.346 192.828L512.466 192.826C514.379 190.802 516.606 189.133 519.326 189.098C522.605 189.055 524.42 190.55 525.298 193.058C527.536 190.749 529.805 188.96 532.565 188.924C537.164 188.864 539.232 191.996 539.139 197.555L538.91 211.393L534.31 211.453L534.53 198.215C534.594 194.376 533.458 192.911 530.978 192.944C529.458 192.963 527.843 193.944 525.97 195.968L525.711 211.566L521.111 211.626L521.331 198.388C521.395 194.549 520.259 193.084 517.739 193.117C516.26 193.136 514.564 194.118 512.771 196.141L512.512 211.739L507.873 211.799ZM552.074 211.781C547.394 211.842 545.366 208.75 545.459 203.15L545.689 189.312L550.288 189.252L550.068 202.53C550.005 206.33 551.1 207.795 553.7 207.761C555.74 207.734 557.156 206.756 559.034 204.412L559.287 189.134L563.887 189.074L563.522 211.071L559.723 211.121L559.418 207.806L559.298 207.807C557.259 210.153 555.114 211.741 552.074 211.781ZM570.406 210.981L570.771 188.984L574.531 188.935L574.88 192.009L575 192.007C577.033 189.982 579.34 188.312 582.339 188.273C587.019 188.211 589.046 191.344 588.954 196.903L588.725 210.741L584.085 210.802L584.305 197.564C584.368 193.724 583.273 192.259 580.713 192.293C578.673 192.319 577.256 193.377 575.305 195.322L575.046 210.92L570.406 210.981ZM595.365 210.654L595.73 188.657L600.369 188.596L600.005 210.593L595.365 210.654ZM598.118 184.507C596.398 184.53 595.296 183.465 595.324 181.785C595.351 180.145 596.489 179.051 598.209 179.028C599.889 179.006 601.071 180.07 601.043 181.71C601.016 183.39 599.798 184.485 598.118 184.507ZM615.837 210.946C609.918 211.023 605.429 206.844 605.549 199.565C605.671 192.206 610.821 187.9 616.621 187.824C619.421 187.787 621.442 188.88 622.978 190.3L620.689 193.289C619.506 192.265 618.277 191.641 616.797 191.66C613.037 191.709 610.387 194.823 610.309 199.502C610.232 204.142 612.701 207.188 616.38 207.14C618.22 207.116 619.875 206.215 621.213 205.078L623.042 208.133C621.013 209.919 618.397 210.912 615.837 210.946ZM632.115 210.733C628.355 210.782 625.717 208.297 625.782 204.418C625.86 199.699 629.9 197.207 639.036 196.087C639.038 193.528 638.156 191.301 634.956 191.343C632.636 191.373 630.418 192.482 628.559 193.705L626.891 190.568C629.154 189.139 632.299 187.619 635.818 187.573C641.298 187.501 643.76 190.947 643.662 196.827L643.443 210.025L639.644 210.074L639.325 207.6L639.165 207.602C637.137 209.348 634.755 210.698 632.115 210.733ZM633.616 207.035C635.536 207.009 637.07 206.11 638.898 204.406L638.987 199.047C632.455 199.892 630.268 201.56 630.227 204.04C630.191 206.2 631.656 207.06 633.616 207.035ZM656.501 210.414C651.581 210.478 649.873 207.381 649.949 202.782L650.134 191.624L646.934 191.666L646.991 188.226L650.435 187.941L651.056 181.855L654.896 181.805L654.795 187.884L660.554 187.809L660.493 191.488L654.734 191.563L654.548 202.762C654.505 205.362 655.442 206.749 657.721 206.719C658.481 206.709 659.406 206.417 660.091 206.128L660.874 209.517C659.628 209.933 658.14 210.392 656.501 210.414ZM664.969 209.743L665.333 187.746L669.973 187.685L669.608 209.682L664.969 209.743ZM667.721 183.596C666.002 183.619 664.9 182.554 664.927 180.874C664.955 179.234 666.092 178.139 667.812 178.117C669.492 178.095 670.674 179.159 670.647 180.799C670.619 182.479 669.401 183.574 667.721 183.596ZM685.321 210.036C679.841 210.108 675.032 205.933 675.153 198.654C675.275 191.295 680.225 186.991 685.704 186.92C691.144 186.848 695.993 191.023 695.871 198.382C695.75 205.661 690.76 209.965 685.321 210.036ZM685.384 206.237C688.824 206.192 691.074 203.083 691.151 198.444C691.229 193.765 689.08 190.714 685.641 190.759C682.161 190.805 679.99 193.912 679.912 198.591C679.835 203.231 681.904 206.282 685.384 206.237ZM701.098 209.27L701.463 187.273L705.223 187.224L705.572 190.298L705.692 190.297C707.725 188.271 710.032 186.601 713.031 186.562C717.711 186.501 719.738 189.633 719.646 195.192L719.417 209.03L714.777 209.091L714.997 195.853C715.06 192.013 713.965 190.548 711.405 190.582C709.365 190.608 707.948 191.667 705.996 193.611L705.738 209.209L701.098 209.27Z" fill="#FCFCFC"/>
<path d="M498.085 434.742C522.256 449.016 537.06 475.392 536.991 504.063L536.424 740.889C536.274 803.383 469.724 842.908 417.037 811.794L217.374 693.886C193.203 679.612 178.399 653.236 178.467 624.565L179.035 387.739C179.184 325.245 245.735 285.72 298.422 316.834L498.085 434.742Z" fill="#2C3630"/>
<path d="M268.873 544.849C261.223 540.436 255.383 530.384 255.569 518.77C255.755 507.251 261.977 503.913 269.711 508.373C273.537 510.579 276.455 514.393 278.289 517.776L275.654 519.889C274.104 517.106 272.212 514.707 269.717 513.268C264.436 510.223 260.695 513.2 260.562 521.455C260.427 529.854 263.754 536.956 269.16 540.073C271.946 541.68 274.131 541.487 275.956 540.214L278.52 545.228C276.013 547.125 272.865 547.15 268.873 544.849ZM289.492 556.739C284.627 553.933 282.525 548.943 282.633 542.224L282.9 525.618L287.682 528.375L287.426 544.309C287.352 548.869 288.488 551.316 291.191 552.874C293.312 554.097 294.785 553.785 296.743 552.104L297.038 533.77L301.819 536.528L301.395 562.925L297.445 560.647L297.135 556.447L297.01 556.375C294.886 557.96 292.652 558.561 289.492 556.739ZM308.552 567.052L308.976 540.655L312.885 542.909L313.224 547.9L313.349 547.972C315.026 545.5 317.47 544.875 319.923 546.29C321.046 546.937 321.75 547.537 322.45 548.328L321.541 552.648C320.756 551.905 320.176 551.425 319.22 550.873C317.39 549.818 315.12 550.059 313.639 553.419L313.376 569.833L308.552 567.052ZM325.566 576.863L325.991 550.467L330.814 553.248L330.39 579.645L325.566 576.863ZM328.482 546.914C326.694 545.883 325.55 543.916 325.583 541.9C325.614 539.932 326.799 539.308 328.587 540.339C330.334 541.346 331.56 543.361 331.529 545.329C331.496 547.345 330.228 547.921 328.482 546.914ZM346.724 589.743C341.027 586.457 336.036 578.445 336.177 569.71C336.319 560.879 341.473 558.717 347.17 562.002C352.825 565.263 357.858 573.3 357.716 582.131C357.575 590.866 352.379 593.004 346.724 589.743ZM346.797 585.183C350.373 587.245 352.72 584.869 352.809 579.301C352.899 573.686 350.672 568.672 347.096 566.609C343.478 564.523 341.215 566.948 341.125 572.563C341.035 578.131 343.18 583.097 346.797 585.183ZM369.07 602.629C365.91 600.806 362.691 597.4 360.521 594.018L362.824 591.713C364.833 594.712 366.768 597.038 369.263 598.477C371.965 600.036 373.279 599.243 373.311 597.228C373.349 594.876 370.789 592.285 368.353 589.815C365.297 586.696 361.959 582.882 362.032 578.371C362.103 573.956 365.233 572.418 370.347 575.368C373.383 577.118 375.896 580.021 377.699 582.756L375.399 584.868C373.839 582.661 372.234 580.718 370.363 579.639C367.826 578.177 366.639 578.945 366.609 580.769C366.573 583.024 368.763 585.159 371.283 587.678C374.462 590.916 377.928 594.61 377.848 599.553C377.777 604.017 374.683 605.866 369.07 602.629ZM382.822 609.881L383.246 583.484L388.07 586.266L387.646 612.662L382.822 609.881ZM385.738 579.932C383.95 578.901 382.806 576.933 382.838 574.918C382.87 572.95 384.055 572.326 385.843 573.357C387.59 574.364 388.816 576.379 388.785 578.347C388.752 580.362 387.484 580.939 385.738 579.932ZM402.483 621.897C397.368 618.947 395.599 614.149 395.688 608.63L395.903 595.239L392.576 593.321L392.643 589.194L396.223 590.968L396.881 583.984L400.873 586.286L400.756 593.581L406.743 597.034L406.673 601.45L400.685 597.997L400.469 611.435C400.419 614.555 401.39 616.81 403.76 618.177C404.55 618.632 405.512 618.848 406.224 618.92L407.032 623.503C405.735 623.239 404.188 622.88 402.483 621.897ZM412.191 637.958C411.027 637.287 410.115 636.567 409.331 635.776L410.315 631.984C410.728 632.415 411.39 632.991 411.972 633.327C414.425 634.742 415.956 633.493 416.833 631.141L417.32 629.581L408.676 598.149L413.583 600.979L417.564 616.983C418.234 619.742 418.856 622.765 419.565 625.693L419.773 625.812C420.353 623.676 421.018 621.445 421.639 619.333L425.558 607.884L430.216 610.57L421.366 633.755C419.487 638.339 417.015 640.74 412.191 637.958Z" fill="#FCFCFC"/>
<path d="M960.113 623.114C960.155 651.729 945.382 678.05 921.271 692.32L724.844 808.575C672.129 839.775 605.483 800.193 605.392 737.631L605.051 504.514C605.009 475.899 619.782 449.579 643.893 435.308L840.32 319.053C893.035 287.854 959.681 327.435 959.772 389.997L960.113 623.114Z" fill="#2C3630"/>
<path d="M718.991 630.696V595.368L724.561 592.152L730.131 606.84C730.879 608.712 731.503 610.752 732.21 612.744L732.376 612.648C733.124 609.816 733.706 607.08 734.371 604.392L739.9 583.296L745.47 580.08V615.408L741.022 617.976V600.552C741.022 597.336 741.396 592.608 741.646 589.248L741.48 589.344L738.985 598.944L733.665 618.864L730.672 620.592L725.351 606.816L722.898 600.072L722.732 600.168C722.981 603.24 723.355 607.536 723.355 610.752V628.176L718.991 630.696ZM753.081 611.014V584.614L757.903 581.83V608.23L753.081 611.014ZM755.492 578.278C753.704 579.31 752.54 578.686 752.54 576.67C752.54 574.702 753.704 572.734 755.492 571.702C757.238 570.694 758.485 571.27 758.485 573.238C758.485 575.254 757.238 577.27 755.492 578.278ZM765.056 604.1V577.7L768.964 575.444L769.379 578.9L769.504 578.828C771.583 575.228 773.952 571.892 777.07 570.092C781.933 567.284 784.095 569.828 784.095 576.5V593.108L779.273 595.892V580.004C779.273 575.396 778.109 574.292 775.448 575.828C773.328 577.052 771.874 579.14 769.878 582.596V601.316L765.056 604.1ZM800.183 584.491C794.488 587.779 789.417 585.619 789.417 576.883C789.417 568.051 794.488 560.035 800.183 556.747C805.837 553.483 810.95 555.619 810.95 564.451C810.95 573.187 805.837 581.227 800.183 584.491ZM800.183 579.931C803.758 577.867 806.044 572.851 806.044 567.283C806.044 561.667 803.758 559.291 800.183 561.355C796.567 563.443 794.363 568.411 794.363 574.027C794.363 579.595 796.567 582.019 800.183 579.931ZM816.571 574.358V547.958L820.479 545.702L820.894 550.214L821.019 550.142C822.64 545.798 825.051 542.39 827.504 540.974C828.626 540.326 829.333 540.11 830.04 540.086L829.208 545.366C828.418 545.534 827.836 545.726 826.88 546.278C825.051 547.334 822.807 550.166 821.393 555.158V571.574L816.571 574.358ZM833.58 564.538V538.138L838.402 535.354V561.754L833.58 564.538ZM835.991 531.802C834.204 532.834 833.04 532.21 833.04 530.194C833.04 528.226 834.204 526.258 835.991 525.226C837.737 524.218 838.984 524.794 838.984 526.762C838.984 528.778 837.737 530.794 835.991 531.802ZM853.246 553.855C848.133 556.807 846.304 554.119 846.304 548.599V535.207L842.979 537.127V532.999L846.554 530.647L847.094 523.039L851.085 520.735V528.031L857.071 524.575V528.991L851.085 532.447V545.887C851.085 549.007 852.082 550.111 854.452 548.743C855.242 548.287 856.198 547.399 856.904 546.655L857.777 550.231C856.489 551.455 854.951 552.871 853.246 553.855ZM863.118 558.524C861.954 559.196 861.04 559.532 860.25 559.652L861.165 554.804C861.58 554.756 862.245 554.564 862.827 554.228C865.28 552.812 866.776 549.836 867.608 546.524L868.065 544.436L859.003 523.46L863.908 520.628L868.107 531.788C868.813 533.732 869.478 535.988 870.227 538.052L870.434 537.932C870.975 535.172 871.598 532.22 872.18 529.436L875.88 513.716L880.536 511.028L872.139 543.908C870.351 550.556 867.94 555.74 863.118 558.524Z" fill="#FCFCFC"/>
</svg>
