<?xml version="1.0" encoding="utf-8"?>
<!-- Generator: Adobe Illustrator 25.2.1, SVG Export Plug-In . SVG Version: 6.00 Build 0)  -->
<svg version="1.1" id="レイヤー_1" xmlns="http://www.w3.org/2000/svg" xmlns:xlink="http://www.w3.org/1999/xlink" x="0px"
	 y="0px" viewBox="0 0 1280 1024" style="enable-background:new 0 0 1280 1024;" xml:space="preserve">
<style type="text/css">
	.st0{fill:#BFA3BC;}
</style>
<path class="st0" d="M654.5,14C380.8,14,159,235.8,159,509.5S380.8,1005,654.5,1005S1150,783.2,1150,509.5S928.2,14,654.5,14z
	 M1111.7,434.1c1.7,20.2,4.4,40.3,6.9,62.2c-98.2-5.1-193.3-10-288.4-14.9c-2.4-0.1-5.5,0.5-7-0.8c-4.7-4-10.2-8.1-12.3-13.4
	c-0.9-2.1,5.6-10.2,9.6-10.9c26.5-4.8,53.2-8.7,79.9-12.1c64.2-8.1,128.6-15.3,192.8-23.8C1105.9,418.7,1110.6,421.7,1111.7,434.1z
	 M1105.9,413.2c-80.7,10-161.6,20-242.4,29.9c-0.4-1.1-0.7-2.3-1.1-3.4c75-28.8,150-57.6,228.3-87.6
	C1095.9,373.1,1100.6,392.1,1105.9,413.2z M1089,346.1c-29.8,11.7-57.9,22.9-86.2,33.9c-53.1,20.6-106.3,41-159.5,61.3
	c-7.3,2.8-14.8,5.8-22.4,6.3c-5.7,0.4-13.9-1.5-17-5.5c-5.9-7.7-0.9-13.6,7.1-18.3c44.8-26.5,210.3-115.9,249-139.2
	C1071.5,308.9,1077.9,322.4,1089,346.1z M1005.6,205.4c17.1,23.5,33.6,46.3,51.4,70.7c-89.2,53.6-177.6,101.5-265.1,154.1
	c-10.5-15.1-18.6-25.5-29.7-41.5C842.5,328.2,922.6,267.9,1005.6,205.4z M956.3,157.8c14.3,14.3,29.3,28,45.3,43.2
	c-78.5,59.2-154.5,116.6-230.5,174c-1.9,1.4-3.9,3.9-5.9,3.9c-6.2,0-13,0.3-18.1-2.4c-2-1.1-2.2-11.4,0.4-14.5
	c17.2-20.7,35.1-40.9,53.4-60.7c44-47.5,88.7-94.4,132.4-142.2C941.9,149.8,947.5,149,956.3,157.8z M938.4,145.6
	c-55.4,59.5-111,119.1-166.5,178.8c-1-0.6-2-1.3-3-1.9c39-70.3,77.9-140.6,118.5-213.9C905,121.3,920.8,132.8,938.4,145.6z
	 M882.3,105c-15.3,28.1-29.6,54.8-44.2,81.3c-27.5,49.9-55,99.7-82.7,149.5c-3.8,6.8-7.6,14-13.1,19.2c-4.1,3.9-11.6,7.8-16.5,6.7
	c-9.5-2.1-9.4-9.9-6.4-18.6c17.3-49.1,86.6-224,101.3-266.7C845,87.8,858.6,94,882.3,105z M812.8,72
	c-33.9,98.4-70.8,191.9-104.1,288.5c-17.8-4.8-30.6-7.6-49.4-12.7C682,249.7,704.6,152.1,728,50.9C756.2,57.9,783.5,64.7,812.8,72z
	 M638,48.3c-4.2,81.2-8.4,162.6-12.6,243.9c-1.2,0.2-2.3,0.3-3.5,0.5c-15.3-78.9-30.7-157.8-46.7-240
	C596.9,51.1,616.3,49.8,638,48.3z M569,53.2c6.4,31.3,12.5,61,18.4,90.8c11,55.9,21.9,111.8,32.7,167.7c1.5,7.6,3.2,15.6,2.3,23.2
	c-0.6,5.7-3.9,13.5-8.3,15.8c-8.6,4.5-13.6-1.5-16.8-10.2c-18.3-48.7-77.6-227.3-93.8-269.4C529.3,64,543.8,60,569,53.2z
	 M494.6,72.6c37.3,97.1,69.1,192.5,105.7,287.9c-16.7,7.8-28.4,13.9-46,22.1c-45.7-89.7-91.1-179-138.2-271.6
	C442.1,98.2,467.4,85.9,494.6,72.6z M360.6,151.2c16.6-11.6,32.7-24,50.5-37.1c44.7,87.6,88,172.4,131.3,257.2
	c1.1,2.1,3.2,4.6,2.8,6.5c-1.1,6.1-2,12.9-5.5,17.4c-1.4,1.8-11.6,0.2-14.2-2.9c-17.4-20.6-34.2-41.7-50.4-63.2
	c-39.1-51.6-77.5-103.7-117-155C350.2,164,350.4,158.4,360.6,151.2z M345.4,166.7c49,64.9,98.1,129.9,147.1,195
	c-0.8,0.9-1.6,1.8-2.4,2.6c-62.5-50.6-124.9-101.1-190-153.9C315.7,195.4,329.8,181.9,345.4,166.7z M295.7,214.9
	c25,19.9,48.8,38.7,72.4,57.7c44.4,35.7,88.6,71.5,132.8,107.4c6,4.9,12.5,9.9,16.7,16.2c3.2,4.8,5.7,12.8,3.8,17.4
	c-3.7,9-11.4,7.6-19.4,3c-45.4-25.5-205.6-124.2-245-146.1C272.3,248.7,280.8,236.3,295.7,214.9z M251.2,277.6
	c91,50.4,176.7,103,266,152.6c-7.8,16.7-12.8,28.9-21.1,46.5c-92.7-39.4-184.9-78.6-280.5-119.2C227.5,331,238.9,305.2,251.2,277.6z
	 M199.1,424c5.3-19.6,9.6-39.4,14.8-60.8c90.5,38.3,178.2,75.5,265.9,112.6c2.2,0.9,5.4,1.4,6.3,3.1c3,5.4,6.8,11.1,7,16.9
	c0.1,2.3-8.8,7.6-12.8,7c-26.5-4.6-53-10-79.3-16c-63.1-14.4-126.1-29.6-189.3-43.5C199.3,440.4,195.8,436,199.1,424z M197.4,445.6
	c79.2,18.2,158.6,36.5,238,54.8c0,1.2-0.1,2.4-0.1,3.6c-80.3,1.4-160.7,2.8-244.5,4.3C193.1,486.7,195.1,467.3,197.4,445.6z
	 M190.3,514.5c32-0.8,62.3-1.7,92.6-2.4c56.9-1.2,113.9-2.2,170.8-3.1c7.8-0.1,15.9-0.4,23.2,1.7c5.5,1.6,12.6,6.2,14.1,10.9
	c2.9,9.2-3.8,13.1-12.9,14.8c-51.2,9.6-237.3,37-281.6,45.6C194.1,555.4,192.6,540.5,190.3,514.5z M196.5,591.1
	c102.1-19.8,201.6-34.6,301.9-54.1c4.7,17.8,8.7,30.3,13.7,49.2c-96.3,29.4-192.1,58.7-291.5,89
	C212.6,647.2,204.8,620.2,196.5,591.1z M250.6,736.7c-8.5-18.4-17.9-36.4-27.8-56.1c94-28.8,185.1-56.8,276.1-84.7
	c2.3-0.7,5-2.4,6.9-1.7c5.8,2.1,12.3,4.2,16.2,8.4c1.5,1.7-1.8,11.5-5.3,13.5c-23.3,13.5-47,26.4-71,38.7
	c-57.6,29.6-115.6,58.3-173,88.3C261.4,749.2,255.9,748,250.6,736.7z M263.3,754.4c72.4-37,145-74,217.6-111
	c0.7,0.9,1.5,1.9,2.2,2.8c-60.6,52.7-121.3,105.4-184.5,160.4C286.4,788.6,275.5,772.4,263.3,754.4z M302.1,811.7
	c24-21.2,46.6-41.4,69.4-61.3c42.9-37.5,85.8-74.9,128.9-112.2c5.9-5.1,11.9-10.6,18.9-13.6c5.2-2.3,13.6-3.4,17.8-0.7
	c8.2,5.2,5.5,12.5-0.4,19.7c-33,40.3-158,180.9-186.4,215.9C331.3,840.6,320.6,830.1,302.1,811.7z M356.1,866.4
	c65.5-80.8,132.2-156.1,196.5-235.5c15.1,10.6,26.2,17.6,42.1,28.8c-54.9,84.4-109.5,168.4-166.1,255.5
	C404.5,899.1,381.2,883.3,356.1,866.4z M491.2,943.2c-18.4-8.6-37.1-16.3-57.3-25.2c53.5-82.5,105.3-162.4,157.1-242.3
	c1.3-2,2.3-5,4.2-5.7c5.8-2.1,12.1-4.7,17.8-4c2.3,0.3,6,10,4.6,13.8c-9.1,25.3-19,50.4-29.5,75.3C563,814.8,537,874.1,512.3,934
	C507.4,945.8,502.5,948.4,491.2,943.2z M512.2,948.6c31.7-74.9,63.5-149.9,95.3-224.9c1.2,0.3,2.3,0.5,3.5,0.8
	c-12.6,79.4-25.1,158.7-38.2,241.5C551.9,959.9,533.1,954.6,512.2,948.6z M646.5,973.2c-26.7-2.3-41.7-3.4-67.7-5.6
	c4.7-31.6,9.1-61.6,13.8-91.6c8.8-56.3,17.6-112.5,26.6-168.8c1.2-7.7,2.3-15.8,5.7-22.6c2.5-5.1,8.2-11.3,13.2-12
	c9.6-1.3,12.3,6.1,12.4,15.3C651,740,645.7,928.1,646.5,973.2z M640,348.2c-2.2,0.5-9-7.3-9.1-11.4c-0.1-26.9,0.6-53.9,2-80.8
	c3.2-64.7,7.3-129.3,10-194c0.5-12.8,4.3-17,16.7-15.9c20.2,1.8,40.5,2.7,62.5,4c-22,95.8-43.4,188.6-64.7,281.4
	c-0.5,2.3-0.5,5.5-2,6.8C650.7,342.3,645.6,347,640,348.2z M655.4,974.7c-1.8-104,0.9-204.5-0.9-306.7c18.4-1.6,31.4-3.3,50.8-5
	c12.2,99.9,24.4,199.4,37,302.5C713.4,968.6,685.4,971.6,655.4,974.7z M808.2,946.7c-19.6,5.2-38.9,11.3-60.1,17.6
	c-12.1-97.6-23.8-192.1-35.4-286.6c-0.3-2.4-1.4-5.4-0.5-7.1c3.1-5.3,6.2-11.4,11.1-14.5c1.9-1.2,11,3.8,12.4,7.6
	c9.3,25.3,17.8,50.9,25.8,76.6c19.1,61.9,37.4,124,56.9,185.7C822.3,938.2,820.2,943.5,808.2,946.7z M827.7,937.3
	c-23.8-77.7-47.7-155.6-71.6-233.5c1-0.6,2.1-1.1,3.1-1.7C800.6,771,842,839.9,885.1,911.7C865.4,920.5,847.6,928.4,827.7,937.3z
	 M890.9,909c-16.7-27.3-32.6-53.1-48.3-79c-29.5-48.7-58.8-97.5-88.1-146.4c-4-6.7-8.3-13.6-10.1-21c-1.3-5.5-1-14,2.4-17.7
	c6.6-7.1,13.3-3.2,19.3,3.8c33.9,39.5,150.7,187,180.3,221C924.5,885.3,912.2,894,890.9,909z M954.2,865.3
	C886,786.8,823.4,708.1,756.4,631c13.1-13,21.9-22.7,35.7-36.5c73.6,68.7,146.9,137.1,222.8,207.9
	C994.7,823.3,975.2,843.6,954.2,865.3z M1053.2,745.6c-11.6,16.6-22.5,33.7-34.7,52.1c-72-67-141.7-131.9-211.4-196.8
	c-1.8-1.6-4.6-3.2-4.9-5.1c-1-6.1-2.6-12.8-0.8-18.2c0.7-2.2,10.9-4.2,14.4-2.2c23.4,13.4,46.4,27.5,69,42.1
	c54.4,35.1,108.3,71,163,105.7C1058.6,730.1,1060.4,735.4,1053.2,745.6z M1062.2,725.9c-68.2-44.2-136.6-88.6-205-132.9
	c0.4-1.1,0.9-2.2,1.3-3.3c76,26.2,152,52.3,231.2,79.6C1080.3,688.8,1071.7,706.3,1062.2,725.9z M1092.4,663.6
	c-30.3-10.2-59.1-19.7-87.8-29.5c-53.9-18.4-107.8-36.9-161.6-55.5c-7.3-2.5-15.1-5.1-21.2-9.6c-4.6-3.4-9.7-10.1-9.5-15.1
	c0.4-9.7,8.1-11,17.2-9.5c51.4,8.5,235.6,46.4,280.2,53.4C1102.9,623.8,1099.1,638.4,1092.4,663.6z M810.7,537
	c1.6-18.4,2.2-31.5,3.9-50.9c100.5,5.3,200.6,10.6,304.3,16.1c-2,29-4,57.1-6.1,87.2C1010.1,573.1,911.5,553,810.7,537z"/>
</svg>
