<?xml version="1.0" encoding="utf-8"?>
<!-- Generator: Adobe Illustrator 25.2.1, SVG Export Plug-In . SVG Version: 6.00 Build 0)  -->
<svg version="1.1" id="レイヤー_1" xmlns="http://www.w3.org/2000/svg" xmlns:xlink="http://www.w3.org/1999/xlink" x="0px"
	 y="0px" viewBox="0 0 52 52" style="enable-background:new 0 0 52 52;" xml:space="preserve">
<style type="text/css">
	.st0{fill:none;stroke:#000000;stroke-miterlimit:10;}
</style>
<path d="M68.7-2C66.3-2,64-1.2,62,0.1c-0.8,0.5-1.2,1.4-1.1,2.3v15.2c-2.7-3.1-3.3-7.4-1.6-11.1c0.3-0.6,0-1.3-0.6-1.6
	c-0.6-0.3-1.3,0-1.6,0.6c-2.9,6.4-0.1,14,6.4,17s14,0.1,17-6.4s0.1-14-6.4-17C72.4-1.6,70.6-2,68.7-2z M73.4,1.6L73.4,1.6v7.1
	c0,0.5-0.4,0.8-0.8,0.8h-7.8c-0.5,0-0.8-0.4-0.8-0.8V1.8c1.4-0.8,3.1-1.3,4.7-1.3C70.4,0.5,72,0.9,73.4,1.6z M64,20v-7
	c0-0.5,0.4-0.8,0.8-0.8h7.7c0.5,0,0.8,0.4,0.8,0.8v7C70.5,21.6,67,21.6,64,20z M76.5,17.6V4C79.9,7.9,79.9,13.7,76.5,17.6z"/>
<path class="st0" d="M17,13.9"/>
<g>
	<path d="M33.4,35.8c-3,1.7-6.6,2.2-10.1,1.6c-3.3-0.6-6.4-2.4-8.5-5c-2.1-2.5-3.1-5.8-2.9-9c0.1-3.2,1.6-6.2,3.9-8.4
		c2.3-2.2,5.4-3.7,8.6-3.9c3.2-0.2,6.5,0.6,9.1,2.4s4.4,4.4,5.1,7.4s0.3,6-1.2,8.6c1.3-2.6,1.6-5.8,0.8-8.5s-2.7-5.3-5.2-6.9
		c-2.5-1.6-5.5-2.2-8.5-1.9c-2.9,0.3-5.6,1.8-7.5,3.8c-1.9,2-3,4.7-3,7.5s1,5.4,2.8,7.4c1.8,2,4.4,3.4,7.1,3.8
		c2.8,0.4,5.5-0.2,7.9-1.6L33.4,35.8z"/>
</g>
<g>
	<path d="M19.8,16.3l3.2,1v6.9h7.2v-7.9l2.8,1l-0.2,18.7l-2.6-0.9v-9.4H23v6.1l-3.2-1.3V16.3z"/>
</g>
</svg>
