<svg xmlns="http://www.w3.org/2000/svg" viewBox="0 0 52 52"><g id="レイヤー_2" data-name="レイヤー 2"><g id="レイヤー_1-2" data-name="レイヤー 1"><path d="M26,0A25.28,25.28,0,0,0,12.34,4.28,4.44,4.44,0,0,0,10.2,9V39.79A21,21,0,0,1,6.87,17.31a2.5,2.5,0,0,0-4.55-2.07A26,26,0,1,0,26,0Zm9.57,7.33h0V21.75a1.71,1.71,0,0,1-1.7,1.71H18.14a1.71,1.71,0,0,1-1.7-1.71V7.67A19.52,19.52,0,0,1,26,5,20.82,20.82,0,0,1,35.57,7.33ZM16.44,44.67V30.39a1.71,1.71,0,0,1,1.7-1.71H33.86a1.71,1.71,0,0,1,1.7,1.71V44.67a20.78,20.78,0,0,1-19.12,0ZM41.8,39.79V12.21a20.89,20.89,0,0,1,0,27.58Z"/></g></g></svg>