<svg id="レイヤー_1" data-name="レイヤー 1" xmlns="http://www.w3.org/2000/svg" viewBox="0 0 69.83 39.73"><defs><style>.cls-1{fill:none;stroke:#000;stroke-miterlimit:10;}</style></defs><path d="M68.7-2A12.34,12.34,0,0,0,62,.1a2.39,2.39,0,0,0-1.1,2.3V17.6A10.27,10.27,0,0,1,59.3,6.5a1.21,1.21,0,1,0-2.2-1,12.88,12.88,0,0,0,6.4,17,12.76,12.76,0,0,0,17-6.4,12.76,12.76,0,0,0-6.4-17A14.08,14.08,0,0,0,68.7-2Zm4.7,3.6h0V8.7a.79.79,0,0,1-.8.8H64.8a.79.79,0,0,1-.8-.8V1.8A9.77,9.77,0,0,1,68.7.5,10.49,10.49,0,0,1,73.4,1.6ZM64,20V13a.79.79,0,0,1,.8-.8h7.7a.79.79,0,0,1,.8.8v7A9.61,9.61,0,0,1,64,20Zm12.5-2.4V4A10.34,10.34,0,0,1,76.5,17.6Z" transform="translate(-11.85 2)"/><path class="cls-1" d="M17,13.9" transform="translate(-11.85 2)"/><path d="M32.81,36.07a13.56,13.56,0,0,1-9.52,1.35,14.84,14.84,0,0,1-8.53-5,12.73,12.73,0,0,1-2.88-9,12.39,12.39,0,0,1,3.88-8.43,14.12,14.12,0,0,1,8.64-3.9,14.39,14.39,0,0,1,9.08,2.42A12.54,12.54,0,0,1,38.57,21a11.76,11.76,0,0,1-1.21,8.65,11.89,11.89,0,0,0-4.43-15.39,13.42,13.42,0,0,0-8.53-1.9,12.51,12.51,0,0,0-7.53,3.79A11,11,0,0,0,16.65,31a12.23,12.23,0,0,0,7.08,3.79A12,12,0,0,0,31.6,33.2Z" transform="translate(-11.85 2)"/><path d="M19.79,16.33l3.2,1v6.9h7.2v-7.9l2.8,1-.18,18.74-2.62-.94v-9.4H23v6.1l-3.2-1.3Z" transform="translate(-11.85 2)"/></svg>