<?xml version="1.0" encoding="utf-8"?>
<!-- Generator: Adobe Illustrator 25.2.1, SVG Export Plug-In . SVG Version: 6.00 Build 0)  -->
<svg version="1.1" id="レイヤー_1" xmlns="http://www.w3.org/2000/svg" xmlns:xlink="http://www.w3.org/1999/xlink" x="0px"
	 y="0px" viewBox="0 0 52 52" style="enable-background:new 0 0 52 52;" xml:space="preserve">
<style type="text/css">
	.st0{fill:none;stroke:#000000;stroke-miterlimit:10;}
</style>
<path d="M68.7-2C66.3-2,64-1.2,62,0.1c-0.8,0.5-1.2,1.4-1.1,2.3v15.2c-2.7-3.1-3.3-7.4-1.6-11.1c0.3-0.6,0-1.3-0.6-1.6
	c-0.6-0.3-1.3,0-1.6,0.6c-2.9,6.4-0.1,14,6.4,17s14,0.1,17-6.4s0.1-14-6.4-17C72.4-1.6,70.6-2,68.7-2z M73.4,1.6L73.4,1.6v7.1
	c0,0.5-0.4,0.8-0.8,0.8h-7.8c-0.5,0-0.8-0.4-0.8-0.8V1.8c1.4-0.8,3.1-1.3,4.7-1.3C70.4,0.5,72,0.9,73.4,1.6z M64,20v-7
	c0-0.5,0.4-0.8,0.8-0.8h7.7c0.5,0,0.8,0.4,0.8,0.8v7C70.5,21.6,67,21.6,64,20z M76.5,17.6V4C79.9,7.9,79.9,13.7,76.5,17.6z"/>
<path class="st0" d="M17,13.9"/>
<g>
	<path d="M16.2,12.6c2.7-1.6,6-2.1,9.1-1.5c3,0.6,5.8,2.3,7.7,4.7c1.9,2.4,2.8,5.5,2.6,8.5c-0.1,3-1.4,5.9-3.5,8
		c-2.1,2.1-4.9,3.5-7.8,3.7c-2.9,0.2-5.9-0.6-8.2-2.3c-2.3-1.7-4-4.2-4.6-7c-0.6-2.8-0.3-5.7,1.1-8.2c-1.2,2.5-1.4,5.5-0.7,8.1
		c0.7,2.6,2.4,5,4.7,6.5c2.3,1.5,5,2.1,7.7,1.8c2.6-0.3,5.1-1.7,6.8-3.6c1.7-1.9,2.7-4.5,2.7-7.1c0-2.6-0.9-5.1-2.5-7
		c-1.6-1.9-4-3.2-6.4-3.6c-2.5-0.4-5,0.2-7.1,1.5L16.2,12.6z"/>
</g>
<g>
	<path d="M29.2,32.2L26,31.2v-6.9h-7.2v7.9l-2.8-1V12.4l2.8,1v9.4H26v-6.1l3.2,1.3V32.2z"/>
</g>
</svg>
