<svg id="レイヤー_1" data-name="レイヤー 1" xmlns="http://www.w3.org/2000/svg" viewBox="0 0 480.03 524.33"><defs><style>.cls-1{fill:none;stroke:#000;stroke-linecap:round;stroke-linejoin:round;stroke-width:0.25px;}</style></defs><polygon class="cls-1" points="23.49 413.72 23.16 413.88 22.47 416.71 22.83 416.91 23.21 416.88 23.51 416.59 23.49 413.72 23.49 413.72"/><path class="cls-1" d="M157.69,441.7l-.17,1.55-.78.8,0,.71.54.49-.71.06-.55.77.1.42.58.23-.13.45-.81,0-.55-1-.42.91.87.58a3.12,3.12,0,0,0,.61,0s1.29-.54,1.29-.54l1.08-1.38.81-1.42s-.58-.42-.48-.42a5,5,0,0,0,.68-.25l-.23-.46.62-.06.26-.35-.45-.36.71-.29.39-.74v-1.74l-1,0,0,.84h-.45l-.11.81-1.74.41Z" transform="translate(-134.09 -24.63)"/><path class="cls-1" d="M147.38,444.27c.07-.06.52-.58.52-.58l.81-.16.16-.38.36,0a9,9,0,0,1,.44,1.1s-.58.28-.58.28l-.16.52h-.52l-.57-.62s-.52-.07-.46-.13Z" transform="translate(-134.09 -24.63)"/><path class="cls-1" d="M148.43,448l-.39,1.22.09.71.19.39-.19.35-.36.26-.29.71.22.32v.46l-.42,0a2,2,0,0,1-.13-.39s-.42.16-.42.22a4.76,4.76,0,0,1-.16.52l-.84.22-.36.35.36.07.65-.29.09.45.26.36a3.72,3.72,0,0,1-.49.35,4.2,4.2,0,0,0-.61.06l-.49.45a1.7,1.7,0,0,1,0,.39s.84.62.87.62.58.68.58.68-.07.55-.07.51,0,.91,0,.91v.9l.09.65s.71.42.68.39a7.29,7.29,0,0,1,0-.81l-.16-.52.49-.25.45.19.1-.71-.29-.58.26-.38.23-.81,0-.65.77.33.32-.52.88-.67.07-.77-.49-.39-1,.45-.9.15,0-1.22.27-1.42.65-1.58-.45-.65.27-.9-.36-.16Z" transform="translate(-134.09 -24.63)"/><path class="cls-1" d="M148.79,446.18s.65.75.65.75l-.36.15.22.84-.61-.35-.06-1.13a2,2,0,0,0,.16-.26Z" transform="translate(-134.09 -24.63)"/><polygon class="cls-1" points="10.44 431.18 11.53 431.41 11.95 431.74 12.04 432.9 12.01 433.55 10.94 433.09 10.17 433.06 9.88 432.15 9.82 431.37 10.44 431.18 10.44 431.18"/><polygon class="cls-1" points="9.75 432.92 10.36 433.96 9.96 435.38 9.54 435.82 8.65 434.08 7.94 433.91 7.94 433.33 8.46 432.98 8.84 433.43 9.42 433.76 9.23 433.08 9.62 433.37 9.75 432.92 9.75 432.92"/><polygon class="cls-1" points="7.58 434.26 8.39 434.79 8.77 435.73 8.02 436.79 6.99 436.49 6.51 435.84 6.74 434.65 7.1 434.59 7.51 435.62 7.96 435.46 7.58 434.26 7.58 434.26"/><path class="cls-1" d="M136.91,462.33l1.16-.52s.16.55.2.52l.42-.51.38.51.17-1.22s.35.23.35.19.53-.87.53-.87l.57,1.43.68.29-.3,1.52.09.42,1.35,1.26-.19.45-2.1.06-.29-.55-1.06.31,0,.91.64.39v.55l-.52.67a2.27,2.27,0,0,1-.45,0s-.13-.68-.13-.68l-.32-.36L136,467l-.2.45h-.68l-.06-.42-.84-.2.2-.87.39,0v.58l.68.07.59-1.74-.48-1.17.23-.42-.29-.71-.06-1,.46-.55.67,0,.39.52-.07.84Z" transform="translate(-134.09 -24.63)"/><path class="cls-1" d="M153.77,399.63s.31-1.28.31-1.33.5-1.46.5-1.46l1.73.19.94-1.77.53-.4,1.68,1.16-.62.8.53.22-.63,1.15-.71-.67-.35.58,1,.62.09.71-.09.76s-.27.88-2.37,3.14L156,404l.4.18-.41,1.33.71-.62-.27,1.64.53.27-.31.93-.8.84-.49-.49,0-1.51-.4-.27-.67.93-.57-.36.4-.75-.4-.18-.54,1s-1.51.31-1.5.17,0-.57,0-.57l1.2-.09.19-1.81.89-.93h-.85l.14-.93.81-1.46.8-.35-1.19-1.25Z" transform="translate(-134.09 -24.63)"/><path class="cls-1" d="M151.15,407.83l.72,0,0,.93,1.11-.17.57.31-.48-.71s.48-.18.44-.18.88,1.12.88,1.12l.71,0,.67-.18.58.05-.58.62-1,.17-.27,1.6-.54.48s-.81,2.93-.81,3a16.61,16.61,0,0,1-1.69,1.37c-.05-.05-.58-1-.58-1l-.71.4.28-2.62.32-2.53.32-2.57Z" transform="translate(-134.09 -24.63)"/><path class="cls-1" d="M164.48,424.44l.77-.32,1.75.46-.36,1.13,1.06.81s0,.29-.07.29l-.81-.14s-.06.55-.06.52a4.16,4.16,0,0,1,.61,0v.94s-1.81-.34-1.88,1l-.84-.07-.32-.52.1-.51-.68.06-.35-.81.94,0-.58-.55-.06-1.13,1,.35-.42-.67.23-.87Z" transform="translate(-134.09 -24.63)"/><path class="cls-1" d="M177.73,456.58l-1,.44-1.25,1.06.88.89,1.78.1,1.51-1.15,1.86-.26,1.15,1,.79,2.14-.09,1.86-.63.88.18.63-1.25,1.23-1.16.18-1.34,1.5-1.15.08-1.32-1.34-.18-1.06,2.23-1.68v-1l-.53-.09-.17-.63.27-.53-1.51-.18-1.42-.36-1.69,1.59-1.69-.54-.18.79-1.79,3.37a8.58,8.58,0,0,0-1.42.44c0,.09-1.61,1.94-1.61,1.94l-1.24.17.89-.79,1-1.77.44-.71-.79-.71,1.24-.18.72-1.41-.76.62-1-1.38.1-.58-.93-.58.31-.75-.84-.05-.4.35-.89-.71-.74-2.09s-.75-1.38-.75-1.43a5.91,5.91,0,0,0-.53-.49l0-1.19.49-.4-.13-1.47.58-.84.32-1.19,1,.22.17.45.35.31.05.62.57-.26.18.35-.8.93.26.71.8-.61.31.13.84.18.49,1L168,455l0,1.29h-.4l0-.8-.27.18s-.14,1.06-.05,1.06l.67,0-.05.58-.44.26a2.84,2.84,0,0,1,0,.58s1.64,1,1.64,1l.09-.76.4.4.45-1,.3.31.27-.26.84.45.93.49.05.31,1-.08s-1.15-1.21-1.15-1.21l.36-.13-.13-.27-.58-.22-.57-1.16,0-1.15.45-.49.18-1.06-1.9-2h-.67l-.84,1-.22-.18,0-.62-.79-.71-.58,0-.44-.85.36-.66-1.33-.27-.31.57-1.16.22-.22-.58.58-.4-.22-.84-.53.09v-.8l-.26-.62-.8.66-.22-1-1.33.08-.21-2.13,1.64-1.33-.84.09-.4-.4-.08-.45.35-.08v-1.42l2.08.27.58-1,.31.22-.27,1,1.2.45.71-.62.49.22.53-.26.29,0,0,1.05-.81,1.6,1.33,1.6s.08,1.24,0,1.15.7,1.43.7,1.43l2.76.18.61,1.78-.71.27.43,1.33,1.33.63,1.77,2.14,2.75.8,1.33.28-1.08,1.5Z" transform="translate(-134.09 -24.63)"/><path class="cls-1" d="M182.75,446.84l2.85-3.18,2.59-2.21v-2.84l-1-.27-1.87.88-.17.62-.63.09-.44-1.07-3.45-1.7-4.79.15-1.6-.09.09-.71,2-.61,1.69-1.41-1.6.26.36-.8-.8.08-.62-.71,1.78-.08.44-.53-.08-.62,1.51-1,.62.18-.18.8,1.33.45-.36.88,1.15-.08,2.4-.35.9-1.68.27-1h-.62l-1.16.79-.18.53-1.68-.72-.53-.71.44-.53.53.8,1,.27,1.87-1.68,1.25-1.14-.17-1.6.72-2.13,1.15-.44v-.88l1.24.18.26.44s1,.45,2.31-.7l.54-1.24,2.39.19.63-.53h1.6l1.41,1.6,1.24-.52.72-1.42,1.42-.35-.73,3.73-.71,1.06.8.35-.19,1.51s2.82,5.25,2.91,5.25a8.21,8.21,0,0,0,.89-.44l1.5.63.08,1.86-.63,1.86-4.25-.55-2.94,2.47-.72,2.13s-1.08,1.51-1.08,1.59.52,2.49.52,2.49l-1,.44.26,1.42,1.32,1-1.07,2.75-1.51-.72-3-1.43-.81,1.95-2.3-.37-.1,1-2,1.32.52,1.6-2.48.08,0-1.13,0-1.24-.65-.83-.41-1.42-.68-.27-.34-1.78Z" transform="translate(-134.09 -24.63)"/><path class="cls-1" d="M167.85,445.09l-1.33-1.6.81-1.6.68.71.7,1s.3-.17.3-.23-.3-.71-.3-.71l.43-1.54.36-.59-.06-.89-.77-.12s-1.35-1.54-1.29-1.54a8.81,8.81,0,0,0,.59-1l.88,1.07.36-.29-.58-1.72.65-.29.71-.83,1.19.07.94.83-.54,1.24.82.95s.95.77,1.6.07l.27-.86,1.6.09,4.79-.15,3.45,1.7.44,1.07.63-.09.17-.62,1.87-.88,1,.27v2.84l-2.59,2.21-2.85,3.18.34,1.78-2-.19-.17-.35L179.73,447l-2.41,2.92-.62-.53.09.71,1,1.78.7,1.95.92.63,0,.66-.53,0-1.33-.28-2.75-.8L173,451.86l-1.33-.63-.43-1.33.71-.27-.61-1.78-2.76-.18s-.79-1.52-.7-1.43,0-1.15,0-1.15Z" transform="translate(-134.09 -24.63)"/><path class="cls-1" d="M188.05,471.71l.18-.88.53-.36-1-.8,2.41-2.12,1.24-.79L191,466l-1.86.43-1.78.53-1.6.26-.08-.71L188,465l.62-.71,1.34-.79a11.82,11.82,0,0,0,0-1.69,3.49,3.49,0,0,1,0-1l-.88-1.78-1.33-.36-.08-1-2.13-1.34-.69-2.84,2.48-.08-.52-1.6,2-1.32.1-1,2.3.37.81-1.95,3,1.43,1.51.72,1.94,1.43,1,.27.79,1,.8-.62s.37-1.68.45-1.77a11.43,11.43,0,0,0-1.32-1.61l.63-1.41.8-.18,2.22.19,1.5,1.7,1.32,2.49,1.22,3.28-.19,2.58L209,458.5l1.06.89-1.6.35s-1.41,2.35-.89,2.39l-1.16,1.06-.72,1.86-.89-.27-.63,2.21-.62,1-1.42.17-1.26,3.19,1.23,2.49.71.45.08,1.42,1.06,1.15-1.61,1.68-.27,1,1.59,1.87v1.42l-2.75-.64L199.71,484l-1.51-.63-1.87,1.24-3.37,0-1.06-.71-.8-1.07-1.23-1.25-1.7,1.5-2.22.79h-1.68L183,482.43l.36-1.15.89-1.33h.89V478.8l1.07-.88s.45-2.49.45-2.57,2.14-2.21,2.14-2.21v-1.33l-.8-.1Z" transform="translate(-134.09 -24.63)"/><path class="cls-1" d="M182.15,470.09l1.2-.22a6.61,6.61,0,0,0,.62.85c0-.05.89-.75.89-.75l.8.18-1.17,3.37,0,.57-1,.71-.76-.05-.08-1-.45.62L181,474.3l-.35-.49-.45.84-.66-.13.09-.76s-.71-.53-.62-.58.09-.84.09-.84l3.07-2.25Z" transform="translate(-134.09 -24.63)"/><path class="cls-1" d="M173.87,477.2l-1.07-.05-.43-1.16.76-2.48s1.3-1.77,1-3.15l-.76-.58.67-.35.27.49.57.22,1.43-1.05,2.17.14s.12,3.24.21,3.2a19.23,19.23,0,0,1-.06,2.26l.36-.22.35.71-.45.44v.84l-.8.84-.26-1.06-.49.35-.45,1.06h.84l-.31.48-.93.22-1.08,1.86-1.38.44.57,1.86a4.31,4.31,0,0,1-.71.09s-.92-1.56-.92-1.56l.36-1.33-1.24-.22,1.34-1.73.4-.57Z" transform="translate(-134.09 -24.63)"/><polygon class="cls-1" points="48.84 451.28 49.41 451.37 48.79 452.52 47.46 452.87 48.03 452.43 48.22 451.68 48.84 451.28 48.84 451.28"/><polygon class="cls-1" points="50.52 442.15 51.23 442.11 51.5 442.5 51.31 443.44 51.35 444.37 50.11 444.5 50.47 443.34 49.72 443.21 50.52 442.15 50.52 442.15"/><path class="cls-1" d="M196.33,484.62l1.87-1.24,1.51.63,1.16-1.86,2.75.64v-1.42L202,479.5l.27-1,1.61-1.68-1.06-1.15-.08-1.42-.71-.45-1.23-2.49,1.26-3.19,1.42-.17.62-1,.63-2.21.89.27.72-1.86,1.16-1.06c-.52,0,.89-2.39.89-2.39l1.6-.35,1,1.07,1.42-.26,1.69-.79,1,1.07-.36,1.06,1.77.63s.71-.53.8-.62,3.28-.16,3.28-.16l1-1.95,3,.55-.18,1.77.26,1.16-.36.7.09.8s-.71-.18-.71-.27a13.94,13.94,0,0,0-1.16,1.06l-.89,1.06.53.19-.72,1.23-.89.27-.71,1.24.17,1.33.62-.35.44,1L220,472l-1-.45-.18,1.15h.62l.26.89-1.07.35-.36,1.95s-1.25,1.42-2.61,7.62c0,0-2,6.83-2.34,8.51,0,0-.37,3.1,1,3.47l-.9,2.39v1.6l.08,1.24s-2,1.41-2.05,3a15.43,15.43,0,0,0,0,2,6.19,6.19,0,0,1-.8.62l.53.88-1.25,1.6.44,1a2,2,0,0,1-.45.27,8,8,0,0,1-.7-1.16l-1,.53-1-.45.19-1.33-1.42-1-.88-.27.09-1,.89-.53.28-2.48-1.06-2-.62.26h-.89l-1.06-1-.62.89-1.05-3.56-1.16-.53.36-.8-2.65-1-.27-1,.72-1.86-1-1.6-1.33-.18-1-1.6-.26-1.16-1.86-1.25.36-1.51,3.37,0Z" transform="translate(-134.09 -24.63)"/><path class="cls-1" d="M197.65,447.35l-1.32-1-.26-1.42,1-.44s-.52-2.4-.52-2.49,1.08-1.59,1.08-1.59l.72-2.13,2.94-2.47,4.25.55.63-1.86-.08-1.86,1.78.27,1,.81h3.81l1.25-1.23,1.34-1.77,1.6-.17.27-.62,1.68.45,1.68,1.7.88,1.6.17,1.59-.27.89.17,1.15L220.5,439l.08.71-.79-.45-1.42.17.7.89v.44l-1.51.17v.63a5.24,5.24,0,0,1-1.25.17l-.53-.54s-1.68-.36-.89,1.78c0,0-.28,2.3,1.68,2l1,.26,2.49-1.05,2.92,1.26,2.94-.79-1,1.68.18.63-1.16.61-.09,1-.54.79a6.87,6.87,0,0,0,1.24.45,8,8,0,0,1,1.16-.7l.53.36-1.52,1.41,2,.45.1-.71.35.62h1a11.8,11.8,0,0,1,1-1.24,12.88,12.88,0,0,1-.09,1.86l-2.22.17-.36.89a8,8,0,0,1-.63,1.24,11,11,0,0,0,1,1.15l.8-.17.67.76.44-.67.22.72,1.16-.35.84.22s.13.36.08.36l-1.24.17v.31l-.62-.22-.22.57-.67-.36v1.07l.66-.27.27.32-1.2.74-.67.67.26.53.27-.35.31.44.09-.53.75.14,0,.31s-.9,1.1-.94,1.1-.75-.31-.75-.31V461l-1.33-.27-.19,1.06-.39-.62-.1,1.24-.62.49-.26-1.16.18-1.77-3-.55-1,1.95s-3.19.07-3.28.16-.8.62-.8.62l-1.77-.63.36-1.06-1-1.07-1.69.79-1.42.26-1-1.07L209,458.5l-1.24-1.07.19-2.58-1.22-3.28-1.32-2.49-1.5-1.7-2.22-.19-.8.18-.63,1.41a11.43,11.43,0,0,1,1.32,1.61c-.08.09-.45,1.77-.45,1.77l-.8.62-.79-1-1-.27-1.94-1.43,1.07-2.75Z" transform="translate(-134.09 -24.63)"/><path class="cls-1" d="M177.65,495l.72-1.87s2-2.92-.6-5.06l.71-1.32.27-.89-.94-.68.24-1,1-.65,1.36.07.29.47,1.07.13.65-.47.6-1.3,1.24,1.42H186l2.22-.79,1.7-1.5,1.23,1.25.8,1.07,1.06.71-.36,1.51,1.86,1.25.26,1.16,1,1.6,1.33.18,1,1.6-.72,1.86.27,1,2.65,1-.36.8,1.16.53,1.05,3.56.62-.89,1.06,1h.89l.62-.26,1.06,2-.28,2.48-.89.53-.09,1-1.51-.36s-2.85,1.67-2.5,3.62l2.3,1.44.08.44-.89.7.18.54,1.07-.17s-1.26,1.85-1.34,1.85l-1.69.08-.63,1.78-.36,1.06-3.11,1.76h-1.16l-2.84,1.68-1.17,1.77-.62-.18.54-.89.18-1.24-.62-.53s2-1.24,2-1.33,1.17-2.48,1.17-2.48l-.44-.62,1-1.59.46-3s-1.49-4-2.73-4.36l-.26-1.51.18-1.15-1.69-.19-1.32-1.07.8-1.32,1.6-.35.89.53.17,1.6.79.18s1.07.45,1.52-2.21l.72-1.06-.88-1.6-1.69-.54-1.06-.72s-3.2,1-2.41,2.65l-.53,1.33-.63.8.09.8-.27.8-1,1.41-.18,1.15s-.29,5.59,4,6.94l-.36,1.6-.62.79.35.18-.27.71-.89-.18-.35.71-1-.36-1.06.17.09-.88s.1-2.31-3.72-2.06l-2.57-.55v.63l-2,.08.45-1-1-.36.62-.53-1.24-.62.8-.36v-.79l-1.16-.54-1.14-1.69,1.24-.62,1.51,1.16c.53.18,7.39-6.18-.75-12.07l-.61-1.33Z" transform="translate(-134.09 -24.63)"/><polygon class="cls-1" points="41.36 457.15 41.89 456.79 41.98 455.91 43.23 456.05 43.63 455.6 44.55 456.63 43.93 457.16 43.93 457.56 44.55 457.56 44.59 458.05 43.88 458.58 43.38 460.17 42.99 459.77 42.06 459.19 42.06 458.13 41.36 457.15 41.36 457.15"/><polygon class="cls-1" points="45.99 452.91 46.43 453.62 45.76 454.42 45.01 454.5 45.1 453.35 45.99 452.91 45.99 452.91"/><polygon class="cls-1" points="33.76 468.34 34.17 467.41 34.92 467.37 36.34 468.75 36.34 468 36.69 467.86 36.82 469.46 36.16 469.41 35.35 470.03 35 468.92 33.76 468.34 33.76 468.34"/><path class="cls-1" d="M168.56,494c0,.09.08.85.08.85a3,3,0,0,1-.36.48l-.53-.13.14-.89s.67-.4.67-.31Z" transform="translate(-134.09 -24.63)"/><path class="cls-1" d="M167.31,495.71s-.5,2-.54,2l-.85,0-.22.84-.54,1.07.44.09-.76,1.15-1.1-.36-.27-.93.4.13.59-1.5.49-.94,1.33-.39.67-1.15Z" transform="translate(-134.09 -24.63)"/><path class="cls-1" d="M196.48,540.88a6.85,6.85,0,0,0,2.56-7l1.38-2.53.41-1.1s-.18-.23-.22-.23.93-1.41.93-1.41.63-.62.63-.53S203,530,203,530l-.36.26.08,2.4s-.54,1-.58,1,.08,2.26,0,2.31l-.58.48s-.14,1-.18,1.11a5,5,0,0,1-.93.39l-.9,2.4.39,1.64-.36,1.82s-2-.06-2.32,1.14l-.7-.67.18-.93,0-1.42-.21-1.11Z" transform="translate(-134.09 -24.63)"/><polygon class="cls-1" points="52.45 516.21 55.59 518.13 57.18 519.12 57.08 521.2 55.52 523.41 53.92 524.2 50.9 524.1 50.29 523.08 50.11 522.01 49.19 520.05 49.06 518.68 50.35 518.46 51.69 516.21 52.45 516.21 52.45 516.21"/><polygon class="cls-1" points="123.19 388.84 123.35 388.33 124.57 388.49 124.83 389.11 125.64 389.01 125.54 389.5 125.15 389.59 123.66 391.23 123.11 391.29 123.08 389.71 123.63 389.87 123.64 389.16 123.19 388.84 123.19 388.84"/><polygon class="cls-1" points="124.61 387.11 125.58 386.98 125.71 387.59 126.32 387.56 125.74 388.33 125.32 387.94 124.83 388.27 124.38 387.78 124.61 387.11 124.61 387.11"/><polygon class="cls-1" points="121.65 385.86 122.1 385.19 123.07 384.84 123.52 385.03 124.07 386.16 124.22 387.36 123.42 387.84 122.64 387.71 121.54 388.41 121.19 387.8 121.51 387.25 122.19 387.32 122.36 386.22 121.65 385.86 121.65 385.86"/><path class="cls-1" d="M246,456.51l-.6.17-.47-.24.18-.59-1.83.23-.72.59.83.3-1.6.11a6.39,6.39,0,0,1-.05-1.07c.06,0,.83-.52.83-.52l-.71-.48.42-.59.47.29.36-.17-.3-.71-.7-.6-.06-.82-.77.23-.94-.6-.18.89-.36.65-.59-.42.53-.41.07-1,.53-.36.88.72.83-.35-.53-.78.48-.53-.88-.89,1.42.19v-.36l-1.71-.72.18-.88-.35-.66-.72.71-.35-.89.89-.47.89.13.29,1.06,1.24.36-.11-1.36.65-.41.06-1.13-1.36-.47.25-.83.89-.65a2.85,2.85,0,0,1-.65-.24,16.89,16.89,0,0,0-1.72.23l-.59.24-1.36-.66,1.25-.94.18-1.13-.89.71-.12-.36.19-1.71.65-1.06-1.06-.3-.65-.48-.77.59-.48-.18-.65.53-1.24.82-.83.23s-1.43.89-1.43.83-.18.59-.18.59l-.53.41-.77-.12.42-.47-.06-.36-.77.47-1.07.77-.83.29s1.25-1.24,1.25-1.3,1.54-1.18,1.54-1.18l.35.42.12-.35a4.4,4.4,0,0,0,.54.29c.05,0,.23-.35.23-.35l-.64-.42a3.22,3.22,0,0,0,.47-.29c-.06,0,.41.24.47.3s0-.59,0-.59l.71-.24.53.3.59-.65a1.87,1.87,0,0,1,.24.36c0,.06.53-.12.53-.12l-.06-.47.77-.3c.77-.34,3.45-2.23,3.45-2.23a6.6,6.6,0,0,1,3.44-3.12c4.09-1.87,3.74-3.71,3.74-3.71l.72-.29-.06-1.06-.17-1.07.6-1.53-.24-.66.19-.82.88.06.42-.53.36-1,.06-1.77.78-.35,1.66-1.65,1.72-.29.06-1.3-.53-.36,1.13-.82.82,1a12.61,12.61,0,0,1,.59,1.24,11.56,11.56,0,0,0,1,.66l.82,2.25.94,1.37,1.42.65,1.24-.46,1.72-.35.83-.83,1.18-.4.77.35,1.36-.23,3,.61,1.19-1.12,1.36-1.35.65.32,1,.1.68.59-.24.92.25,2.13-.74,1.56-.95-.06-2.49.17-1.25,1.5-3.72,0-2,.08-1,1.42-.71.26-.79-.63-2.24,4.61-1.07.62v1.06l-.71,1.06.35,1.34-1.43,2-1.42.52-3.46-.19-.72.62,1.32,2.93,1.15,1.25-.71,1.15-2,.88-.8,1-.1,1.42-.71.18L248,449.18l-1.68-1.78-.53.35.88,2.22.62.27.42,5.15-.8.53.08.62-1,0Z" transform="translate(-134.09 -24.63)"/><path class="cls-1" d="M275.94,424.63l1.77.55,2-.08,1.68,1.6,1.33-.35.27-.79.72-.36,1.59.72,1,3.47-.45.88,3.2.28.52,1.33-1,.8,1.32,2,3.05.66-.66,1-1.16,1.85-.09.62-.9,1.6.36.35-.63,1.07-.55,3.72-1.05-1.6h-.89l-.09-1.24L286,441.54l-.62-.18-.09-1.15s-3.1-1.44-2.65-2.59l-2.57-1-2.21-.18-.62-.81a8.68,8.68,0,0,0-4.62.87l-.45.71-2.93,1.41-1.29.26-1.29.7.27.22,1.33-.35,1-.39.09.49-1.42.61-1.56,0-.67.53-.71.44-.57-.18-.72.44.18.22v.71l-.85.27,0,.39.88.23-.71.53.49.49.08,2.13s-.58.71-.76.71-.54.35-.54.35l.13,1-.66-.14-.85.84-.67,1.6-.71.26-.46,2.17s-2.38-2.1-2.94,2.51l.4,1.2-.05,1.16-.54.44s-.8,0-.8.17-.14,1.73-.14,1.73l1,.67.75,1.2.08,1.16-1.51-.19.14-.62-.88-.93-1.91-.41-.66.09-.41.7-1,.4-1.16-.32L248.57,461l-.57-.09-1.25.48-.09.53-.53-.18.09-.89.94-1.46-.17-.48,1-1.15.53.09,0-1.25-1.51-.09-.08-.62.8-.53-.42-5.15-.62-.27-.88-2.22.53-.35,1.68,1.78,1.52-2.21.71-.18.1-1.42.8-1,2-.88.71-1.15-1.15-1.25-1.32-2.93.72-.62,3.46.19,1.42-.52,1.43-2-.35-1.34.71-1.06v-1.06l1.07-.62,2.24-4.61.79.63.71-.26,1-1.42,2-.08,3.72,0,1.25-1.5,2.49-.17.95.06,1,.83Z" transform="translate(-134.09 -24.63)"/><polygon class="cls-1" points="166.89 386.94 167.24 386.52 167.57 386.71 167.63 387.17 168.1 387.21 167.95 388.37 167.03 388.04 166.89 386.94 166.89 386.94"/><path class="cls-1" d="M276.59,418.87l.09-.71,1.6-1.14,1.15.27.18-.8,3.2-.7,1,1.43,1.16-.53.71-1,1.78-.08.71-.45-.09-.88,3.82-1,2.58.37,1.41.45.36-.27.45-1.19.72,0a2.32,2.32,0,0,1,2.64-.55l.19-.57.52.1.09.57-.1.7,1.55.76-.95,1.88-.34,1.56s.09,2.16,0,2.16a5.39,5.39,0,0,0,.38.76l.56,0-.09-.62.38.1a2.36,2.36,0,0,0,1.59,2l0,1.27-.76.94-1,.42.19.66h1.32l.61-.09s0,.47,0,.43a3.76,3.76,0,0,0-.8.18c.05,0,.05.24.05.24l.94-.05a3.29,3.29,0,0,1,.43-.37,2.29,2.29,0,0,1,.32.28l-2.78,1.64h-.76a5.3,5.3,0,0,1-.47.65l-.85-.1-.14,1.09-.71.13-.15.71-3.11,1.78-.85.09-1,1.22.7.1a7.27,7.27,0,0,0-.61.65,2.93,2.93,0,0,1,0,.66l-1.27,0-.37,1.11-3.05-.66-1.32-2,1-.8-.52-1.33-3.2-.28.45-.88-1-3.47-1.59-.72-.72.36-.27.79-1.33.35-1.68-1.6-2,.08-1.77-.55-1-.83.74-1.56-.25-2.13.24-.92.92-.32Z" transform="translate(-134.09 -24.63)"/><polygon class="cls-1" points="140.2 392.37 140.3 390.15 140.22 388.02 138.54 386.59 138.63 385.97 140.13 386.96 141.11 386.69 141.38 387.14 143.34 385.29 145.92 383.88 147.25 383.08 147.52 382.11 148.59 381.85 150.71 382.75 152.93 382.75 152.85 381.87 153.64 382.31 154.09 381.16 154.8 381.96 154.62 383.47 155.23 383.92 155.32 383.3 156.22 382.77 157.01 383.4 157.37 383.22 157.45 384.29 157.27 384.9 160.28 386.69 160.9 386.07 162.58 388.08 162.13 389.27 161.78 389.54 160.36 389.09 157.79 388.72 153.97 389.68 154.05 390.57 153.34 391.01 151.56 391.09 150.85 392.06 149.69 392.59 148.72 391.17 145.53 391.86 145.34 392.66 144.19 392.39 142.59 393.54 142.5 394.25 141.58 394.57 140.9 393.97 139.93 393.88 139.28 393.55 140.2 392.37 140.2 392.37"/><polygon class="cls-1" points="154.99 376.75 155.41 377.21 156.6 377.15 157.74 376.22 158.83 376.38 159.29 375.9 160.68 375.88 159.87 376.42 160.51 376.75 160.38 377.71 159.95 378.65 160.24 378.81 159.75 380.13 159.3 379.55 158.72 379.58 158.43 379.83 158.21 379.67 158.37 379.29 158.85 379.22 159.27 379.23 159.15 378.87 158.73 378.64 158.31 378.9 157.82 378.99 157.26 380.8 156.75 380.89 157.14 379.25 156.76 378.63 155.85 378.5 155.14 379.14 154.56 379.2 154.47 378.79 154.95 377.95 154.99 377.46 154.41 377.3 154.99 376.75 154.99 376.75"/><polygon class="cls-1" points="99.62 397.39 101.28 395.92 102.52 396.58 103.11 397.58 103.88 398.24 104.94 397.48 105.95 397.3 106.13 396.54 106.9 396.6 107.31 396.83 107.91 396.66 107.19 397.37 106.42 397.42 106.3 397.95 105.18 397.89 104.88 398.95 105.11 400.08 104.46 399.54 103.75 399.6 103.81 398.89 102.52 398.41 102.16 399.06 100.86 399.12 100.56 399.7 100.32 398.99 99.62 398.46 99.62 397.39 99.62 397.39"/><path class="cls-1" d="M231.1,404.2l-.18,3.05,1.42,1s.76,3.33.72,3.33l1.26.17a5,5,0,0,0,.12.78,7.92,7.92,0,0,0,1-.42l-.12,1.09.35,1.07-.54.71-.71.7.25,3.82-1.16,1.24-1.34.35.44,2s.44,1.33.61,1.33-1,.44-1.06.44a5.29,5.29,0,0,1-.26-1.15l-1.51-1.52c.09.09-.8.53-.8.53l-1-.72-2-1.25-1.41-1.07-.88-.62-.72.61v.71l-1.24-.71,1.69-1.23-2-1.35-3.73.52L217,419.75l-1.69-.63-.08-.53-1.33-.45.44.8-1.25.62s-1.32-1.87-1.41-2a29.63,29.63,0,0,0-1.08,3l-2,1.32-1.87-.71-.8.52-.53-.8.27-.7-2-2.15s-1.41-.44-1.5-.45-1.61,2.39-1.61,2.39l-1.43,1.15-.53,1-.89-1.16h.71l.2-3.81-1.33-1.43.19-1.06,1.6-1.77s-.17-1.78-.17-1.87-1.14-1.86-1.14-1.86l.63-2.31,1,.36,2.58-.79-.53-.8s-1.33-.27-1.5-.36.62-1.06.62-1.06,1.24,1,1.15.89a9.27,9.27,0,0,1,1.69-.44l1.42.45.79,1.25,1.51-.17,2.93-.43.62-.88a10.73,10.73,0,0,1,1.6-.09c0,.09,1.61-2.56,1.61-2.56l-.09-.53a4.39,4.39,0,0,0,.27-.63,4.06,4.06,0,0,1,1-.08l1.61-1.77s-.18-.71-.18-.8.54-.53.54-.53l.71-.08V397l.8-.62.53.8,1.22-.94.29.77-.12.83.71.47v1.42l-.42.65-.06.95-1,.77.82.95v1.12l.53.42.89-.24,1.3.25-.78,1.83.41,1.42,1.18,1,1.65-.17,1.07-1.06,1.12,1.07.19-.95.77-.94.41.06-.58-2,1-1.36,1-.29.44.95Z" transform="translate(-134.09 -24.63)"/><path class="cls-1" d="M265.65,384.92v1l-.44.44-.19,2.75,2,2.58-.19,2.57,1,2.23-.54,1.95L269.3,401l-.19,2.84-.3.59-.24.65-.71-.59V405l-.47.29s0,1.07,0,1.12a8.7,8.7,0,0,1-1,.59l-.48-.48-1.3-.18-.59.3-.18-.54.48-.53-.12-.77-.53-.35-.35.64L260,406.46l-.89-.48-.24,1.66-1.19.53-2.48-.19-.18.53-2.07.17v.53h-.76v-.42l-1-.06a5.49,5.49,0,0,0-.36,1.18c.06.12-.94-.07-.94-.07l0,.72.65.18-.77.58-1.6-.06v.59l-1.48.7-1.18-.89s-.72,1-.72,1.06a3.78,3.78,0,0,1-.82-.06l-.3-1h.48l.3-.47-1.13-.42-.23-1.36-.41-1-.76-1.18-.71.29s-1.72-.48-1.83-.48-1.66.58-1.66.58v.89s-2.55,2.06-2.61,2.12a3.29,3.29,0,0,0,0,.77l.35.65a7.92,7.92,0,0,1-1,.42,5,5,0,0,1-.12-.78l-1.26-.17s-.72-3.33-.72-3.33l-1.42-1,.18-3.05-.44-.95-.18-.89-.53-.12.48-.88.83-.47.54-.59.59-1.06-.29-.83,1.31-2.6-.82-.48.77-1,1.72-.53.78-2,1.35.83.48-.65.59.24,1.36-.17v.47l.47.07.72-.65-.12-.42.53-.17.47.53,2.19.13L246,390.6l1.6.13.12-.48.65.18.06-1.18-1.71-.72,1.6-1.88h1.42l1.14-1.83,2.91-3.25.82.9,1.6-.06.48-.53,1.71,1,.12-.47,1.95.06.71.36,2.4-.25.61.44,1.42,1.87Z" transform="translate(-134.09 -24.63)"/><polygon class="cls-1" points="118.35 388.3 119.05 388.98 118.02 389.69 117.31 389.69 117.18 389.1 118.35 388.3 118.35 388.3"/><polygon class="cls-1" points="116.02 388.77 115.47 389.35 115.31 389 114.18 388.6 113.99 388.12 114.31 387.86 115.31 388.22 115.8 388.26 116.02 388.77 116.02 388.77"/><polygon class="cls-1" points="116.25 388.87 116.54 388.42 116.86 388.97 116.83 389.26 116.28 389.58 116.25 388.87 116.25 388.87"/><polygon class="cls-1" points="118.35 386.69 119.62 385.76 119.84 386.27 120.62 385.25 121.04 385.38 120.35 386.79 120.38 387.67 118.83 387.85 118.22 387.56 118.16 386.95 118.35 386.69 118.35 386.69"/><polygon class="cls-1" points="124.49 385.65 125.01 384.46 126.37 384.27 126.75 384.76 125.36 386.14 124.81 386.24 124.49 385.65 124.49 385.65"/><polygon class="cls-1" points="126.83 382.79 127.5 382.86 128.59 384.22 128.08 384.54 128.33 384.83 127.85 385.57 127.14 384.79 126.53 383.82 126.83 382.79 126.83 382.79"/><polygon class="cls-1" points="108.59 389.68 108.65 388.74 109.07 388.15 110.13 388.56 110.25 389.1 109.3 389.39 109.36 389.8 110.13 389.81 110.06 390.93 110.95 390.58 111.24 391.23 110.71 391.17 109.52 393.53 109.22 393.29 109.82 392.11 109.47 391.46 107.81 391.93 107.16 391.39 108.94 390.27 108.59 389.68 108.59 389.68"/><polyline class="cls-1" points="106.58 388.9 106.41 388.08 105.52 387.19 105.41 385.88 106.47 386.12 107.24 387.25 107.89 387.49 108.01 386.78 107.6 386.07 107.19 386.13 107.01 385.24 108.31 385.13 108.42 387.02 108.36 387.79 107.83 388.62 108.35 389.39 108.35 389.8 106.75 390.32 106.7 389.73 107.35 388.91 107.06 388.31"/><polygon class="cls-1" points="102.45 386.81 102.16 386.16 102.69 385.63 102.81 385.16 103.64 384.75 104 384.34 104.59 384.93 102.92 386.76 102.45 386.81 102.45 386.81"/><polygon class="cls-1" points="130.77 357.81 130.86 356.92 131.66 357.28 134.24 356.49 133.54 354.71 133.98 354.09 135.22 354.72 137.27 354.2 136.74 352.51 138.43 351.99 139.33 348.71 141.55 349.69 142.17 349.43 144.82 350.59 145.62 352.02 146.24 351.93 146.87 350.51 148.64 350.08 148.82 349.19 150.87 348.58 150.6 350 153.35 350.19 154.32 351.35 155.46 354.63 157.86 353.23 159.28 353.68 161.5 352 161.63 352.67 160.96 353.15 161.14 354.04 161.85 354.49 161.93 355.73 160.69 355.55 160.15 357.67 159.44 357.76 159.34 359.09 157.83 359.79 158.27 360.77 158.17 361.92 157.46 362.72 158.25 364.06 157.53 366.54 158.68 366.99 159.47 368.85 159.33 370.05 158.31 369.91 157.16 370.35 156.72 369.9 156.01 369.9 156 370.79 157.07 371.24 156.44 371.86 155.28 372.74 155.46 373.45 154.66 373.98 153.59 374.68 152.44 374.85 152.26 374.23 150.66 373.96 148.89 374.39 149.24 374.84 151.02 374.67 151.55 375.21 151.1 376.27 150.48 376.36 150.38 377.06 149.77 376.53 149.32 377.06 149.23 378.04 148.78 378.74 148.24 379.72 146.82 379.09 145.23 379.08 145.22 379.88 144.25 379.96 143.28 377.57 143.19 378.81 142.3 378.62 142.13 376.49 141.33 377.2 139.19 378.7 136.44 379.4 135.02 379.21 135.21 376.37 133.27 373.79 133.81 371.84 132.76 369.62 132.95 367.05 130.92 364.46 131.11 361.71 131.55 361.27 131.56 360.3 130.15 358.43 130.77 357.81 130.77 357.81"/><path class="cls-1" d="M264.09,366.43l-.23.82c2,3.47,4.61,2,4.61,2l.89-1.15h.8l1.16-.7,2-.44c2.92,1.88,9.05.75,9.05.75l2.4-.61.88.36c6.66-.68,6.67-1.74,6.67-1.74l.71-1,1.07.1,1-.4.83,1.47.78,4.27,1.15.53-.27,1.42,1.24.89v2.58l-2.14,1.85-1-.14-.13-.66-2.23,1.67-1.41-.45-2.41,1.41L288.4,376l-1-1.16-2.75-.18.28-1.42-2,.61-.18.89-1.78.43-.62,1.42-.62.08-.8-1.42-2.65-1.17-.63.27-2.21-1-.9,3.28-1.69.53.52,1.68-2,.53-1.24-.63-.45.62.71,1.78-2.58.79-.8-.36-.09.88-.63.62-.61-.44-2.4.25-.71-.36.54-2.12,1.13-.59-.29-1.54-.71-.18.66-.89,3.55-1-.17-1.53-.29-1.54.83-.59-.11-1.78.38,0-.15-.42-.51-.21-.64-.37-1.36-1.46-.5-.66-.34-.65.52-.49h.66l.38,0Z" transform="translate(-134.09 -24.63)"/><path class="cls-1" d="M258.56,382.44h0l-.11.46-1.71-1-.48.53-1.6.06-.82-.9-2.91,3.25-1.14,1.83h-1.42l-1.6,1.88,1.71.72-.06,1.18-.65-.18-.12.48-1.6-.13L243.9,392l-2.19-.13-.47-.53-.53.17.12.42-.72.65-.47-.07v-.47l-1.36.17-.59-.24-.48.65-1.35-.83-.78,2-1.72.53-.77,1,.82.48-1.31,2.6.29.83-.59,1.06-.54.59-.83.47-.48.88.53.12.18.89-1,.29-1,1.36.58,2-.41-.06-.77.94-.19.95-1.12-1.07-1.07,1.06-1.65.17-1.18-1-.41-1.42.78-1.83-1.3-.25-.89.24-.53-.42v-1.12l-.82-.95,1-.77.06-.95.42-.65v-1.42l-.71-.47.12-.83-.29-.77,1.83-.17s3.56-.4,3.21-2.65l2.08-1.11.53-1,.77-.47.54-1.36.59-.23.89.12.36-1.48,1.19-1.3,3.45-2.64s1.83-.82,1.89-.82a14.34,14.34,0,0,0,.6-1.42l1.78-1.23.19-1.42,4.68-3.23a3.75,3.75,0,0,0,2.86-4.55,10.91,10.91,0,0,1-1.3-.42c0-.06-.05-.59,0-.59s1.95-.52,1.95-.52l1.66.12.12-.29-.95-.66,2-.29,1.54-1,3.2-.17.3-1.18,1.35.36.78-.76-.24-.54,1.3-.17s-.11-.77,0-.77a7.18,7.18,0,0,1,.94.42l.47,1.19,1.66-.41,1.54-.23,1.77.25.06.41-1.36.11-.4.24-.38,0h-.66l-.52.49-1.3,0s-.57.74-.59.74.31,1.14.31,1.14l-.71,1,.91.15.81.44,1.14-.58,2,.82,0,.29.53-.17.11,1.78-.83.59.29,1.54.17,1.53-3.55,1-.66.89.71.18.29,1.54-1.13.59-.54,2.12-1.95-.06Z" transform="translate(-134.09 -24.63)"/><polygon class="cls-1" points="124.12 344.73 123.17 344.14 121.4 344.13 120.51 344.77 119.03 344.94 119.97 346.72 120.32 346.25 123.05 345.62 123.7 345.62 124 345.21 124.12 344.73 124.12 344.73"/><polygon class="cls-1" points="125.87 322.16 126.71 322.63 126.56 323.43 126.19 324.03 124.78 325.05 124.93 323.14 125.87 322.16 125.87 322.16"/><path class="cls-1" d="M256.12,348.92l-.6-.05,0-.94.7-1,.7,0s.43-.65.52-.65l.79-.05.23.29A4.17,4.17,0,0,0,259,346c0-.05.37.14.37.14l-.19.89-1,.13.33.57-.15.79-.88,0-.18-1-.66.23.09,1,.09.51-.7-.42Z" transform="translate(-134.09 -24.63)"/><path class="cls-1" d="M257.15,350h1l.05.33.74.24-.09.46-1.54-.19a5,5,0,0,1-.18-.84Z" transform="translate(-134.09 -24.63)"/><path class="cls-1" d="M264.89,339.21s2.42,2,2.42,2-.2,2.7-.15,2.7-.7.33-.7.33l0,.88-1.49-.33-.75.42-.79-.15.14-.6-1.16-.85-.28-1.58.34-1.31,1-1.12a13.48,13.48,0,0,1,1.35-.36Z" transform="translate(-134.09 -24.63)"/><polygon class="cls-1" points="162.65 352.8 164.79 350.95 164.8 348.38 163.56 347.48 163.84 346.07 162.69 345.53 161.91 341.26 161.07 339.8 164.76 338 167.77 338.63 168.84 337.93 172.39 337.94 174.61 338.31 174.78 339.55 174.24 340.52 175.92 342.13 176.27 343.02 179.38 342.32 179.29 344.01 179.54 346.49 178.29 347.55 176.79 346.57 175.98 348.52 176.42 350.29 180.22 352.53 181.03 351.82 182.53 351.74 183.77 354.06 183.59 354.94 184.29 355.3 184.83 354.59 186.25 354.86 186.16 355.75 188.9 356.56 189.25 357.81 188.53 359.27 187.83 359.04 187.38 359.93 188.09 360.11 187.81 361.7 190.91 363.32 189.85 363.58 190.02 364.38 190.64 364.38 189.65 367.13 190.97 369.88 189.54 371.52 187.33 370.58 186.26 371.1 185.91 371.72 184.93 371.36 183.95 371.71 184.57 372.78 183.51 372.07 182.88 372.95 179.6 373.47 178.44 372.84 177.2 373.01 170.66 368.37 163.64 368.61 163.12 366.92 162.76 368.6 162.04 370.02 159.33 370.05 159.47 368.85 158.68 366.99 157.53 366.54 158.25 364.06 157.46 362.72 158.17 361.92 158.27 360.77 157.83 359.79 159.34 359.09 159.44 357.76 160.15 357.67 160.69 355.55 161.93 355.73 161.85 354.49 161.14 354.04 160.96 353.15 161.63 352.67 162.65 352.8 162.65 352.8"/><path class="cls-1" d="M303.23,411.22l-.31-1.45.55-1.19.81.23.71-.42.33-1.71,1.13-1.41.11-.78.68-.73.77,0,.43-1.41.68-.81h.51l.46-.45h.42l1.62-2.22,1,1.13-.88,1.06-.1,1L311,403.38l-.94,1.16-.59,1.22-.07,1.91L311,410l.06.48a19.19,19.19,0,0,0-4.17,2.37,3.66,3.66,0,0,0-1.87.54l-.16-.64-.26-.33H304v-.29l.46-.61V411l-.39.32-.81-.1Z" transform="translate(-134.09 -24.63)"/><polygon class="cls-1" points="189.25 357.81 188.9 356.56 186.16 355.75 186.25 354.86 184.83 354.59 184.29 355.3 183.59 354.94 183.77 354.06 182.53 351.74 181.03 351.82 180.22 352.53 176.42 350.29 175.98 348.52 176.79 346.57 178.29 347.55 179.54 346.49 179.29 344.01 179.38 342.32 176.27 343.02 175.92 342.13 174.24 340.52 174.78 339.55 174.61 338.31 176.29 338.63 177.41 338.12 177.96 337.04 179.36 337.11 180.75 335.89 180.68 335.45 184.69 334.38 186.34 335.86 186.91 337.14 186.81 338.19 186.49 338.19 186.46 337.65 185.73 338.06 185.33 339.44 183.57 341.6 183.69 342.21 184.17 342.37 184.21 341.67 185.43 340.33 185.36 341.13 185.9 341.36 185.96 341.83 185.04 341.77 185.03 342.31 186.95 343.18 187.11 342.8 187.56 342.83 187.59 343.92 186.97 344.75 187.16 345.42 188.25 344.34 189.28 344.54 189.41 343.48 188.23 343.64 187.85 342.13 190.03 341.47 191.19 340.16 190.99 341.16 191.69 341.79 190.74 342.9 191.62 343.62 191.2 345.04 192.91 346.58 192.91 347.88 195.68 348.31 197.87 349.27 198.4 348.86 199.53 349.04 200.91 350.23 201.44 351.38 202.24 351.21 201.34 353.33 202.13 355.56 200.87 359.63 202.45 362.75 202.35 364.61 203.24 365.23 204.04 365.06 206.87 367.29 206.25 367.82 206.69 368.27 207.43 370 206.88 371.05 205.66 370.91 205.47 369.87 203.76 369.56 202.88 371.08 200.84 370.83 199.22 370.31 198.3 368.63 198.79 367.43 196.85 364.32 196.24 363.34 195.08 363.25 195.27 361.83 194.03 361.82 193.66 362.8 194.29 362.89 194.28 363.69 193.57 363.77 191.89 362.61 191.81 361.19 188.88 360.29 188.53 359.27 189.25 357.81 189.25 357.81"/><polygon class="cls-1" points="190.97 369.88 189.65 367.13 190.64 364.38 190.02 364.38 189.85 363.58 190.91 363.32 187.81 361.7 188.09 360.11 187.38 359.93 187.83 359.04 188.53 359.27 188.88 360.29 191.81 361.19 191.89 362.61 193.57 363.77 194.28 363.69 194.29 362.89 193.66 362.8 194.03 361.82 195.27 361.83 195.08 363.25 196.24 363.34 196.85 364.32 198.79 367.43 198.3 368.63 197.63 369.65 197.54 370.53 196.91 371.6 196.27 374.61 196.98 374.61 197.07 375.32 196.27 376.21 196.44 376.83 197.06 377.37 197.23 379.94 196.69 380.74 196.96 381.09 196.86 381.62 196.28 382.24 194.91 382.06 192.24 383.64 191.8 383.02 189.04 383.81 187.89 383.8 186.11 384.86 186.03 384.15 183.89 384.67 183.8 385.38 181.14 385.72 180.83 384.57 181.94 384.04 184.08 383.25 186.84 380.6 190.05 376.98 190.95 375.12 190.87 373.61 189.28 372.09 189.54 371.52 190.97 369.88 190.97 369.88"/><polygon class="cls-1" points="205.27 406.33 205.36 407.13 203.94 407.48 204.38 408.28 203.93 409.08 204.63 409.61 200.1 412.52 199.03 413.14 195.66 412.32 192.29 411.42 189.02 409.54 188.41 407.05 187.34 407.14 187.17 406.6 188.5 406.17 188.86 404.84 183.46 401.62 182.32 399.57 181.52 399.04 179.84 398.94 180.11 397.61 181.18 396.64 180.11 396.46 180.92 395.31 182.7 393.89 180.93 392.64 181.2 391.22 181.65 390.52 183.07 390.17 183.08 388.93 182.28 388.75 181.66 386.97 179.98 386.07 180.83 384.57 181.14 385.72 183.8 385.38 183.89 384.67 186.03 384.15 186.11 384.86 187.89 383.8 189.04 383.81 191.8 383.02 192.24 383.64 194.91 382.06 196.28 382.24 196.41 383.04 196.76 385.44 198.09 386.07 198.44 387.49 197.9 388.11 196.66 387.57 193.09 392.52 194.68 393.86 194.5 394.75 195.21 395.01 196 396.26 194.84 398.3 195.63 399.54 197.05 398.66 199.09 399.03 200.43 398.5 201.62 399.04 202.01 399.66 201.99 400.86 201.95 401.88 202.72 402.12 204.07 403.84 205.19 404.5 206.17 404.65 205.27 406.33 205.27 406.33"/><polygon class="cls-1" points="196.86 381.62 196.96 381.09 196.69 380.74 197.23 379.94 197.06 377.37 196.44 376.83 196.27 376.21 197.07 375.32 196.98 374.61 196.27 374.61 196.91 371.6 197.54 370.53 197.63 369.65 198.3 368.63 199.22 370.31 200.84 370.83 202.88 371.08 203.76 369.56 205.47 369.87 205.66 370.91 206.88 371.05 207.43 370 208.27 372.09 207.19 375.1 208.96 376.53 209.84 376 210.55 376.45 210.73 377.6 211.88 377.17 212.05 378.32 211.51 379.83 208.76 380.43 207.96 382.03 209.54 384.34 208.56 384.87 209.62 386.83 208.28 388.69 208.99 389.4 208.8 392.24 208.61 394.4 206.66 394.09 204.93 396.04 203.57 396.03 203.04 396.97 202.79 398.33 202.13 397.98 202.1 399.81 201.62 399.04 200.43 398.5 199.09 399.03 197.05 398.66 195.63 399.54 194.84 398.3 196 396.26 195.21 395.01 194.5 394.75 194.68 393.86 193.09 392.52 196.66 387.57 197.9 388.11 198.44 387.49 198.09 386.07 196.76 385.44 196.41 383.04 196.28 382.24 196.86 381.62 196.86 381.62"/><polygon class="cls-1" points="200.72 347.56 200.9 346.74 202.49 347.1 203.74 346.1 203.69 344.44 204.46 343.14 205.64 344.04 209.08 342.28 209.26 341.09 210.86 341.4 210.98 340.57 210.05 337.96 210.35 337.08 211.06 336.84 212.06 337.38 213.89 338.34 214.13 339.6 214.95 339.64 215 342.07 215.82 342.49 216.48 341.84 217.18 343.2 218.11 347.82 217.57 348.35 217.15 350.77 216.76 352.64 217.55 353.5 217.4 354.74 218.72 355.54 218.18 357.32 218.18 358.82 217.64 359.09 217.54 361.31 216.11 364.23 213.18 365.72 210.87 364.74 209.9 364.91 209.1 364.46 208.39 365.08 209.45 365.53 208.47 366.5 208.64 367.12 206.69 368.27 206.25 367.82 206.87 367.29 204.04 365.06 203.24 365.23 202.35 364.61 202.45 362.75 200.87 359.63 202.13 355.56 201.34 353.33 202.24 351.21 201.44 351.38 200.91 350.23 199.53 349.04 200.72 347.56 200.72 347.56"/><path class="cls-1" d="M345.43,377.21l1.72-1.53c.84-.95,1-3.64-1-3.56l-.7-1.6.24-.47v-1.42l-.89-.36-.25,1.78-.82-.13.12-.76-.47,0-.13.89h-.59l-.35-.48-.95,1.24.23.53-.3.36-.06.77.88.89-.06,1.36-.54.35-.76.11v.83a2.16,2.16,0,0,0-1.6,1.71c-2.08,1.18-.9,2.6-.9,2.6l-.19,1.36-1.13,1.53-.54,1.83,1.12.9.36-.71-.05-1.07.89-1.12v-1.77l.47.18.83-.77,1.84-.28.24-1.3,1.48-1,1.84-.94Z" transform="translate(-134.09 -24.63)"/><path class="cls-1" d="M352.66,378.19l.47-.56,1.21.13.18-.77.75.13.28,1.07,2,2.45.57.1,0-.69.53.47.59.85,1.8,1.62v1.51l-2.51.93-.64,2.22.36.53-.36,1s-1.08,2.74-2.24,3.54c0,0-1.43,2.3-1,3.63l.71.54-.19,2,1.24.35a2.92,2.92,0,0,1,2.21,1.61,6.63,6.63,0,0,0,1.86.81l2.22,1.17,1.62.83-.12.89.47.3.42-.36.64.3-.12,1.12-.36.83-.83.05-.77.83,1.3.24a7,7,0,0,0-.65.71c.06,0,.76,1.9.76,1.9l-1.48.88-1.84-.07-.82-.53,2.07-.12-.12-.59-2.13-.13-.88-.35-.3.53h-.54l.9-1.47-.65-.42-.24.35-.65-.23-.47.88.7.3L356.46,411l.18-.89-.95.12-.18,1.3h-.41l-.24-1-.83.17.35.95-.89.76L353,412l-2.61,1.53-.65-.6L348,414.49l-.24,1,1,.47-1.13,1.18-.47-.95s-1.55,1.47-1.55,1.42a12,12,0,0,1,1.42.3l-.06.77.94.53-.47.65.11,1.07-.65.17-.18-.71-.94-.42-.36,1.13.83.12-.06.59-.72.17-.06.89-.89.11.24-.65H344l-.06,1.07-1.07.34a13.62,13.62,0,0,0-2.15,4.2l-.51,1.33-1-.16-1.12-.65-1.36-1.72-.76-.25,0-1,0-1.2.12-1.69.66.36.24-1.36.54-.94H339l1.73-1.94,1.95.3.18-2.16.19-2.83-.7-.72,1.34-1.86-1.06-1.95,1-.53L342,406.65l.81-1.59,2.75-.61.54-1.5-.17-1.16-1.16.44-.17-1.15-.71-.45-.89.53-1.76-1.43,1.07-3-.83-2.09-.75-1.74,2-1.14-.17-.62,1-1-1.06-.45.71-.62.79.45,1-.18,2.3,1,2.94-1.5,1.43-2.92.1-2.22.53-.26v-1.51l.54-1.77-1.33-.8.16-1.25,1,.07Z" transform="translate(-134.09 -24.63)"/><path class="cls-1" d="M325.74,367.45l.55.05-.1-.79h.74s-.2,1.54-.2,1.49a5.23,5.23,0,0,1,.59.5s1.24-.25,1.34-.25a13.48,13.48,0,0,0,1.14-1.33l1.09-.29.14.84a3.45,3.45,0,0,0-.74-.05c-.05.05-.4,1.28-.4,1.28l1.53.06,1.89-.63a8,8,0,0,0-.1-1.09,9.93,9.93,0,0,1,.7-.79l.73.84.7-.44-.59-.79.45-.2.49.3s.65-.93.65-1-1.48-1.15-1.48-1.15l.3-.39s1.92.9,2,.9h.69l1.68-.19.25-.69-.44-.55-.05-.49.3-.3.05-.69-.54-.3,0-.64,1.73-1.43.63,2.48a4.2,4.2,0,0,0-.39.49s.59.74.59.74l1-.68.51-2.37c.2-2.18-2.85-4.52-2.85-4.52s-.05-.59-.05-1a1.79,1.79,0,0,0-.58-1.68,1,1,0,0,1-.2-1.34c1.19-.29,2-3.94,2-3.94a4.58,4.58,0,0,0,1.89-2.52l.75-.78-.34-1.46,1.6.05,1.76-1.56.63,1,1,.28.82,1.06.37,2.09,1.71,0,1,1.1.58,0,.71-.53,2.15.16,2.5,2.19.08.62h.83l.5-.38,1.23-.16.42.49-1,.81-.09,1.68,2.64,3.56.26,1.07-1.34,1.77-7.46,1-.18.8L351,358.6l-1.78.7-.76,2.56L348,363l-1.83-.95-1-.54-.71.23-.3.89.93,2.61L345,366l-1.6-.3-.18,1.19-3.44,1.75-1.18-.89-.77,1.3.05,1.66-1.25,1-1.6-.36-.18.83-1.19,1.47-1.12-.18-.53.42-2.19-1-2.78-.43v-1.3l-1.71-1.55.42-1.42-.88-.71.95-1.12,0,1Z" transform="translate(-134.09 -24.63)"/><path class="cls-1" d="M366.17,312.52l1.39-.57.76.41.66-.31,0-.58.33-.26.42.65-.24.31.27.5-1.77.45s-.44.48-.44.48l-.81-.06-.61-1Z" transform="translate(-134.09 -24.63)"/><path class="cls-1" d="M375.63,305.64l-.89,1.24s-2.9-.54-3.79.52l-.12.76s-1,.83-.72,1.42l-.95.41-.24.53-.41.12L368,310l-.89-.12-.23-.41.59-.47-.53-.3-1,.53.18.65-1.2,1.95.42.35a5.07,5.07,0,0,1-.07.95c-.06,0-.65-.06-.65,0a9.89,9.89,0,0,0-.24,1.18c.06,0,.71.3.71.3l.59-.24.06-.47a5.06,5.06,0,0,1,1,.06c0,.06.87,3,1.95.07,0,0-.23-.83,1.13-.76l-.08,3.78-.06,1.24-1.65-.14-3,1.51-1.18,5.77-1.52,1L363,328l-.81,2.21.7,2.14-.73,4.61.61,1.78-.62.52.23,1.05-.09.82.71,1.16.85.19,0,.68-2,2.69.05,1.09-.76,1.58-1.23.16-.5.38h-.83l-.08-.62L356,346.2l-2.15-.16-.71.53-.58,0-1-1.1-1.71,0-.37-2.09-.82-1.06-1-.28-.63-1,.77-.65.72-1.3,1.13-.23s11.4-11.19,12-18.87l-.35-.66.48-1.06-.05-1.42-.53-.36-.71-1.9.25-1.18-.18-1.24s-.46-1.24-.88-.06c0,0-.54.64-.47-.6,0,0-.35-1.83.89-2.54l-.05-.59s.95-.23.6-2.36l.78-1.07-.12-.65a9.34,9.34,0,0,0,3.14-1.4,3.06,3.06,0,0,0,3.2-.34l1.54-.64s1.42-.77,1.6-1.42a5.9,5.9,0,0,1,2.91-.81s2.43-1.35,3.55-.76l.76.78s-.53.59.29,1.42a1.45,1.45,0,0,1-1.06.76c-.71-1.12-3.62,1.4-1.85,2.77l.23.89Z" transform="translate(-134.09 -24.63)"/><path class="cls-1" d="M385,337.59l1.44-1.92-.14-.85,1.48-3,1.21-.56.18-5.69.18-.52-.25-1.17s-.48-.8-.48-.83,0-1.52,0-1.52-.44-.44-.46-.44-.14-1.89-.14-1.89l-1.28-.24-.76-1.08-.88,0-1,.45-2.29.31-.43.48s-1.74-.07-1.71,1.45l0,1.22-.62,1.29-.13.84-1.13.7-.46.81-2.48-.4a4.45,4.45,0,0,1-4-.37l-1.73-1.49s-2.23-1.05-.7-2.59l.68-1-.16-.35.57-.87-1.65-.14-3,1.51-1.18,5.77-1.52,1L363,328l-.81,2.21.7,2.14-.73,4.61.61,1.78-.62.52.23,1.05-.09.82,1.12-.13,1.58-1.9,2.21,1.07-.27,1.87,1.15-.44,1.79-3.19,3.3-2.65,3.64,0,6.27,2.27,1.41,0,.56-.45Z" transform="translate(-134.09 -24.63)"/><path class="cls-1" d="M358.93,379.31l-.26,1.21-.53-.47,0,.69-.57-.1-2-2.45-.28-1.07-.75-.13-.18.77-1.21-.13-.47.56-1-.07-.79-.86.39-1.86.42-2.42.54-.53-.93-4.62-.7-1.37-.66.65-.82-.42,0-2.42-.82,0L348,363l.44-1.1.76-2.56,1.78-.7,3.45,1.08.18-.8,7.46-1,1.34-1.77-.26-1.07-2.64-3.56.09-1.68,1-.81-.42-.49.76-1.58-.05-1.09,2-2.69,0-.68-.87-.2-.69-1.15,1.12-.13,1.58-1.9,2.21,1.07-.27,1.87,1.15-.44,1.79-3.19,3.3-2.65,3.64,0,6.27,2.27,1.41,0v.8l1.62,1-.27,1.68L384,344.28l.61.8-1.16,2.66,1.5,1.34-4,6-1.15-.54-2.5,2.56v1l2.48,1.16,2.82,4.18-.45,1.07,1.05,3.46,1.95-.52.44,2.31-.9,1.06-1.08,4.26,0,1-1.15,0-2.11,1.74h-.73c-.05,0-2.08-1.47-2.08-1.47l-1.46-.59-.88.63-2,.52-.63-.78s-.88-.59-.83-.59l-1.21-.1-1.36-2.2-1.5-1.13.05-.92-.73.09-.15.78a6.71,6.71,0,0,0-.88.58c.1,0-2.34.62-2.34.62l-1,.15-.34-.35-.73-.1-2.36,4.23s-.06,1.56,0,1.56-.19.44-.19.44" transform="translate(-134.09 -24.63)"/><path class="cls-1" d="M359,379.21s.24-.44.19-.44,0-1.56,0-1.56l2.36-4.23.73.1.34.35,1-.15s2.44-.62,2.34-.62a6.71,6.71,0,0,1,.88-.58l.15-.78.73-.09-.05.92,1.5,1.13,1.36,2.2,1.21.1c-.05,0,.83.59.83.59l.63.78,2-.52.88-.63,1.46.59s2,1.47,2.08,1.47h.73l2.11-1.74,1.15,0-.42,1,.84,1-.08.84,2-.44,1.31-.74,2.1.92,1.83-.26-.78,1,.46.5v.87l-.94,1.71-2.31,2.65,0,1.58-1.15.86-.87,2.18-1,.25-.15.9-1.76.31-1.23,1-.36,1.94.6,2-.28.72-1,.31c-2,.1-8.41,2.67-8.41,2.67l-1.61-.05-1.86.36c.07-.37,1.18-2.7,1.18-2.74a5.3,5.3,0,0,1,.69,0,7.93,7.93,0,0,0,.44.8l.65.19a1.12,1.12,0,0,0,.15-.48,2.35,2.35,0,0,1-.18-.4s1.21.08,1.21,0,1.21-.91,1.21-.91l.18.33s.4-.58.44-.62.92-.43.92-.43l-.19-.48.7-.47s.29.15.29.11,0,1.5,0,1.5l.4-.14v-1.06s.76,0,.8,0,0-.37,0-.37l-.73-.19.12-1.09.29-.37c-.54-1.57-1.71-1-1.71-1l-.62-.14c-1.68-.45-1.62,1.41-1.62,1.41h-.4s-.25-.44-.25-.44l-2.85-.08c-1.25.39-1.35-.16-1.35-.16-.73-2-1.5-1.43-1.5-1.43l.05-.95.36-.47.19-.62,0-.62-.29,0-.29.8-.56.73c-1,2.26-.3,3.47-.3,3.47,1.85,1.47,1.27,2.13,1.27,2.13-1.83.21-3.72-2-3.72-2,1.69-3.28-.42-4.64-.46-4.64s.2-2.78.2-2.78a14.5,14.5,0,0,0,1.22-2.84l.55-.55-.11-.54-1.43.57L362,385l-.92-.49V383l-1.8-1.62-.59-.85.28-1.31Z" transform="translate(-134.09 -24.63)"/><path class="cls-1" d="M386.48,335.67l-.14-.85,1.48-3,1.21-.56.18-5.69.18-.52.83-.47,2.32-2.77-.35-1.84,4.49.62-.54,2.36,1.71,1,.54-1.19,5.45-.8.66-2.19,1.24-.11,1.14-2.66,3.61-.87,1.65,1.25.46,3.2,2.54,1.37.17,1.42-.84,1.36.71.54v.94l-2,.76-1.07.41-1.54.29.06,1-1.48.76-1.61,2.36-.43,2.42.05,2.31,2.6,1,1.78-.53,2.13.43.51,3.67-1.54.76.87,2.37-.06,1.18-1.36.53,1.41,1.19.29.77-.3,2.6,2.06,1.43.18.89.61,1-.27.71-1.07.28-.41.94-1.9.17-.05-1.36-2.72-.31-.65.83-1-.66.3-.83-2.42-1.19-2.44,3.77-1.12-.71-1.55,3.19,1.23,1.13-1.48,1.41,1,2.55-.41.73-.33,1.64-.46-.33-.75.93-.08,1.67.53.54s-.11,1-.11,1-1.11.35-1.11.35l.89,1.89-.33,1-7.06,4.09,0,.78-1.39.36-1.83.26-2.1-.92-1.31.74-2,.44.08-.84-.84-1,.42-1,0-1,1.08-4.26.9-1.06-.44-2.31-1.95.52-1.05-3.46.45-1.07-2.82-4.18-2.48-1.16v-1l2.5-2.56,1.15.54,4-6-1.5-1.34,1.16-2.66-.61-.8,1.87-2.74.27-1.68-1.62-1V338l.56-.45,1.44-1.92Z" transform="translate(-134.09 -24.63)"/><polygon class="cls-1" points="263.25 325.15 264 326.02 264.87 325.41 264.81 325.02 264.31 324.74 263.25 325.15 263.25 325.15"/><path class="cls-1" d="M381.65,396.18l-.6-2,.36-1.94,1.23-1,1.76-.31.15-.9,1-.25.87-2.18,1.15-.86,0-1.58,2.31-2.65.94-1.71V380l-.46-.5.78-1,1.39-.36,0-.78,7.06-4.09.33-1-.89-1.89s1.11-.31,1.11-.35.11-1,.11-1l-.53-.54.08-1.67.75-.93.46.33.33-1.64.41-.73.59,1.12.58,2.49,0,2.07-.42.65.41.59v1.07l-.66,1.36.35,1.42,1.06.77.89-.7,1.3.83.93,3.32s1.06.95,1.12.95l1.42.19,1.19-1.13-.52-3.73.36-1.12,0-2.19,1.55-1.05.88,1.48a15.18,15.18,0,0,1,1.65.07c0,.06.12,1.3.12,1.3l5.44-.81,1.07-.58h2.37l.28,3.25-.72,1.07-.18,1.59,1.29,1.61.23.94,2.19.49-.49,1-.64,2,.7.32.12,1.27-.45.44.69.7,1,.64v.95l-.32,1.64-1.53.94c-.2,3.3-.1,1.18-.1,1.18l-.45,1-.49.8-.4,0-.85.71-.52,1.39.18,1.71h-.69c-.07,0-.25-.64-.25-.64a10,10,0,0,0-.83.63c.06,0-.32.76-.25.76s-2,.94-2,1-2.08-1.27-2.08-1.27a5.3,5.3,0,0,1,.51-.72,5.84,5.84,0,0,0-.5-.8l-.76-.26s.07-1.08.07-1.14,1-1,1-1c-1.13-1.08-.05-.45-.05-.45H417l-.08-.58-.22-.71.14-.84s.39-1,.39-1-.57-.08-.57-.08.07-.93.07-.87a10.44,10.44,0,0,0,.83-.81l-.5-1.79.56-2.25,2.84.25.3-.83-1.3-1.48-1.47-1-2.87-.69-1.46.76c-3.61-.21-2.79,1.82-2.79,1.82l-.38.06a1.53,1.53,0,0,0-.46,2.53c-.51,1.08-2.54,1.13-2.54,1.13l-1.58,1-1.22,2.21.38,1-1,1.52-.13.7c-4.89,3.21-1.87,5.75-1.87,5.75-.63.19-1.83-.58-1.83-.58A12.87,12.87,0,0,0,390.1,398c-1.58-.77-6.71-1-6.71-1l-2-.07.28-.72Z" transform="translate(-134.09 -24.63)"/><path class="cls-1" d="M382.82,395.09l1.06,1.08,1.13.16.13-.65.26-.44.26-.16,0-.65-.3-.13-.64.58-.07.74-.49,0,.17-1.13.62-.71.65-.61-.07-.35-.48,0-.33.61-.19-.13-.48,0-.33.52a1.71,1.71,0,0,1-.39,0,.58.58,0,0,0,0-.17l.49-.25-.06-.52-.42-.13-.33.32,0,.62-.59.44.42,1Z" transform="translate(-134.09 -24.63)"/><path class="cls-1" d="M386.76,317.46s7.23-2.21,9.07-4.09l.95-.12,2.08-2.24s1.06.84,3.84.2c0,0,5.11-4.18,5.17-4.71l.24-.53,3-1.47a28.38,28.38,0,0,0,2.09-3.54l-.06-.47.6-.12.89-1.35,1.25-.95a13,13,0,0,0,2-5.25l1-2.72s1.55-2.12,2-2.12l5.52-3.58,1.36-.23s4.56-.63,8.26-7.66l-.12-.53.42-.94.38-5.27a5.67,5.67,0,0,1,1.19-2.48l.55-1.83.89-1.36,1.36.78,1.3.48,2.12.6-.19,3.55L445,270.7h1.89l2.18,2.49L447.89,275l-2.14,1.29-2-.48-.78,1.47.17,3.79-.78.65-.6,3.37-.42.77.82,1.6,1.48.59.82,1-2.26,2.35-1.31,2.54-1.66,1-.07,1.71,1,2.55-.53.89-3.84-.55-.9,2.06-5,.39-.36,1.54.7.36v1.71l-1.79,3.61.88,1.18.65-.29,1,1.54-.72,2.37.64,1.89-.43,3.08-1.77-.6-.05-1-2.19-2.14-.36,1.48-1.07,1-2.13.28.29,3.14-.83-.36-.72.65.12,1.54-2.79.58-.12,1.77-1.19.65-1.65-.54-.18.77-.65.05v-.94l-.71-.54.84-1.36-.17-1.42-2.54-1.37-.46-3.2-1.65-1.25-3.61.87-1.14,2.66-1.24.11-.66,2.19-5.45.8-.54,1.19-1.71-1,.54-2.36-4.49-.62.35,1.84-2.32,2.77-.83.47-.25-1.17s-.48-.8-.48-.83,0-1.52,0-1.52-.44-.44-.46-.44-.14-1.89-.14-1.89l-1.28-.24-.76-1.08.71-.42Z" transform="translate(-134.09 -24.63)"/><path class="cls-1" d="M409.71,271.45l1,.07-.3.7-.08,2.13-.37.48-.11,1.07s-4.23,6.12,1.26,4.27c1.63-.8.77.82.51,1.59l-.19.62s-1.47,1.72-1.26,3.23l-.55.18L408.5,287h-.4l-1.74,1.57-1.73.32s-2.1,1.5-2.8.1c.56-.73.56-.44,1.63-.8a4,4,0,0,0,.81-1.69,4.85,4.85,0,0,1-.4-.56s.7-1,.7-1a1.38,1.38,0,0,0,1.15-1.21l-1-1.11s-1.36-.3-1.33,1.36l-.77-.52.31-3.64,1.74-2.38s1.93-3,3.7-3.48l.12-1,.66-1.25.59-.32Z" transform="translate(-134.09 -24.63)"/><path class="cls-1" d="M400.82,361.25l1.48-1.41-1.23-1.13,1.55-3.19,1.12.71,2.44-3.77,2.42,1.19-.3.83,1,.66.65-.83,2.72.31.05,1.36,1.9-.17.41-.94,1.07-.28,1.36.46.59,1,1.36.19,1.24.95,1.34-.5.53.76,1.05,2.8,1.15,1.38,1.73.58.71.72-.15,1.48.15,1.47-.49,1.77-2.14,1.64-2,.68-.77.85-.62,1.34-1.07.58-5.44.81s-.12-1.24-.12-1.3a15.18,15.18,0,0,0-1.65-.07l-.88-1.48-1.55,1.05,0,2.19-.36,1.12.52,3.73-1.19,1.13-1.42-.19c-.06,0-1.12-.95-1.12-.95l-.93-3.32-1.3-.83-.89.7-1.06-.77-.35-1.42.66-1.36v-1.07l-.41-.59.42-.65,0-2.07-.58-2.49-.59-1.12-1-2.55Z" transform="translate(-134.09 -24.63)"/><path class="cls-1" d="M428.23,363.21l1.33.59.64,1.55H433l1.6.54,2.17,2.79.43-2.78-1.06-.89.53-.47.59.47,1-1.06,2.54,1,2.3,2.56,2.42.46.06.79-1.43.76-.71.65-.41-.71-.22.81c-2-.73-.67,1.21-.38.84l-.24,1.12c-1.09-.61-1.13,1.12-.54.89l.12,1.36s-.72.29-.66.35.71.48.71.48l-.47.23V376l.94.24.59.65,1.06.18.36.36L443.21,379c-1.95.05-1.42,1.71-1.42,1.71l.65.24a4.13,4.13,0,0,0-.18.48c0,.05-1.78.05-1.78.05l-.05-.65.35-.42,0-.65-.42-.18v-.47l.53.06v-.65l-.65-.18-.94-1.31.06-.94-.82-.66s-.54.35-.48.35l-1.06-.18-1.54-.48c-6,.15-7.94,2.87-8,2.86s.05,2.9.05,2.9l-.89.3-2.19-.49-.23-.94-1.29-1.61.18-1.59.72-1.07-.28-3.25h-2.37l.62-1.34.77-.85,2-.68,2.14-1.64.49-1.77-.15-1.47.15-1.48,1.06.27Z" transform="translate(-134.09 -24.63)"/><polygon class="cls-1" points="288.7 330.92 289.35 331.16 290.19 330.52 292.43 331.77 293.67 331.72 295.03 332.49 297.75 332.74 298.63 333.99 300.63 335.3 304.72 334.02 304.66 335.2 305.9 334.55 306.67 334.85 307.5 333.97 310.28 334.4 310.58 333.51 312.94 334.05 314.26 334.63 314.04 335.38 314.59 335.96 314.43 336.48 315.11 337.41 314.8 338.01 314.16 338.03 314.15 339.14 313.7 339.65 312.15 340.44 311.26 341.32 311.37 342.09 311.43 343.32 309 342.85 306.7 340.29 304.17 339.34 303.16 340.4 302.57 339.92 302.03 340.39 303.09 341.29 302.67 344.06 300.49 341.27 298.89 340.73 296.12 340.72 295.47 339.18 294.14 338.58 293.08 338.31 292.37 337.6 290.64 337.01 289.5 335.63 288.44 332.83 287.92 332.07 288.7 330.92 288.7 330.92"/><path class="cls-1" d="M443.84,449.42s.77-.18.83-.06,1.41,1.37,1.41,1.37a2.25,2.25,0,0,1,.6.06c.05.06.17,1.42.17,1.42l-.72.71-1.3-.54a6.39,6.39,0,0,0-.05-1.07h-.53s-.53-.95-.53-.89.12-1,.12-1Z" transform="translate(-134.09 -24.63)"/><path class="cls-1" d="M437.25,416.32a5,5,0,0,1,.94-.12,6.71,6.71,0,0,1,.77.6,8.6,8.6,0,0,1-.06,1.3c-.06-.06-.84.59-.89.59l-1,.11-.41-1.07s.66-1.36.66-1.41Z" transform="translate(-134.09 -24.63)"/><path class="cls-1" d="M431.38,405.58l.12.77a4.4,4.4,0,0,1-.42.71c-.06,0-.19,2.07-.19,2.07l-.82-.66s.12-.88.12-.94a8.43,8.43,0,0,0,.3-.95,13.33,13.33,0,0,1,.89-1Z" transform="translate(-134.09 -24.63)"/><path class="cls-1" d="M433.29,392.94l1.53.39s1,1,1,1,0,2.59,0,2.59l-1.44.06s-1.06-1.13-1.06-1.16,0-2.91,0-2.91Z" transform="translate(-134.09 -24.63)"/><polygon class="cls-1" points="282.02 329.96 282.29 329.25 281.68 328.23 281.5 327.34 282.87 325.63 284.41 325.82 285.66 324.34 287.26 323.64 290.52 322.53 291.23 321.59 291.18 320.64 293.26 317.51 298.58 319.02 299.53 318.19 302.3 320.69 306.09 319.94 306.68 320.54 307.63 320.19 308.08 319.51 308.77 320.15 308.98 320.85 308.74 320.96 308.78 321.59 309.77 323.26 309.88 324.22 311.11 324.33 312.2 326.08 312.17 327.21 312.66 328.43 313.76 329.85 314.64 331.71 314.19 332.56 314.26 334.63 312.94 334.05 310.58 333.51 310.28 334.4 307.5 333.97 306.67 334.85 305.9 334.55 304.66 335.2 304.72 334.02 300.63 335.3 298.63 333.99 297.75 332.74 295.03 332.49 293.67 331.72 292.43 331.77 290.19 330.52 289.35 331.16 288.7 330.92 287.92 332.07 286.57 332.57 285.33 331.62 283.97 331.44 283.38 330.43 282.02 329.96 282.02 329.96"/><polygon class="cls-1" points="299.5 297.67 301.04 298.56 299.55 300.63 300.02 301.75 298.7 304.82 300.41 306.19 302.6 306.2 303.13 307.15 301.52 309.45 301.1 311.34 299.73 314 301.26 315.54 301.25 316.25 303.02 317.74 307.28 317.82 308.08 319.51 307.63 320.19 306.68 320.54 306.09 319.94 302.3 320.69 299.53 318.19 298.58 319.02 293.26 317.51 291.18 320.64 291.23 321.59 290.52 322.53 287.26 323.64 285.66 324.34 284.41 325.82 282.87 325.63 281.5 327.34 279.44 325.91 279.75 323.31 279.45 322.54 278.04 321.35 279.4 320.82 279.47 319.64 278.59 317.27 280.13 316.51 279.62 312.84 277.49 312.42 275.71 312.94 273.11 311.92 273.06 309.62 273.49 307.19 275.1 304.83 276.58 304.07 276.52 303.06 278.06 302.78 279.13 302.37 281.09 301.61 281.74 301.55 281.92 300.78 283.57 301.32 284.76 300.68 284.89 298.9 287.67 298.32 287.56 296.79 288.27 296.14 289.1 296.5 288.81 293.36 290.95 293.07 292.02 292.07 292.38 290.59 294.56 292.73 294.61 293.74 296.38 294.34 296.32 294.99 297.33 294.76 300.64 295.72 299.5 297.67 299.5 297.67"/><polygon class="cls-1" points="324.53 297.13 324.7 298.37 324.63 301.15 325.51 302.69 323.56 303.46 324.14 305.88 324.3 309.2 323.05 311.68 322.39 313.51 321.21 312.79 320.14 313.44 319.25 313.08 319.07 314.14 316.53 314.25 316.29 315.08 315.16 315.66 314.86 316.67 313.74 316.19 312.91 316.84 312.42 318.9 310.11 320.14 308.77 320.15 308.08 319.51 307.28 317.82 303.02 317.74 301.25 316.25 301.26 315.54 299.73 314 301.1 311.34 301.52 309.45 303.13 307.15 302.6 306.2 300.41 306.19 298.7 304.82 300.02 301.75 299.55 300.63 301.04 298.56 299.5 297.67 300.64 295.72 302.6 293.89 306.39 292.2 311.49 289.56 313.81 287.73 317.42 287.69 321.26 289.01 322.9 291.44 324.5 291.98 324.66 295.06 324.53 297.13 324.53 297.13"/><path class="cls-1" d="M445.43,348.14l.88,1.48.76.84,1.23,1.78,1.3,1.42,2.3,1.2,3.19,1.37.71.95,1.24-.76,1.13.24,1-.71,1.18.3,1.13-1,2.07-.34.59-.35.83.41.83-1.59,1.36,1.13,1.94,2.2,1.48.42.7.48.35,1.42,2.48,1.77.71-.18.65.38-.18,1.36-.77-.72-2.67.7L471,362s-9,3.27-8.69,12.56l.41.48-.43,2.36.36.12-.79,2.54-.7-.12-.84,1.42a4.09,4.09,0,0,1-.53-.42c.06,0-.48.47-.48.47h-1.12l-.71.82s-3.25-1.08-3.8,1.64c0,0-3.55.7-3.38,3.65,0,0,0,2.49-3.92,1.64,0,0,.42-1.35-1.94-1.84l2.25-.76h.59l-.05-1.18-.77-.42-.29-1.18,1-.71-.59-.41-.12-.6s.9-.52-.17-1.42c0,0-.4-2.13,1.49-2,0,0-.16-2.9-2.17-3.32,0,0,1.24-.83,1.19-.83a8.67,8.67,0,0,1,.12-1.24,13.66,13.66,0,0,1,1.36.36,7,7,0,0,0,.71-.65l-.52-1.42s4-1.64,4.45-3.88c0,0,1.9-.53.48-2.31,0,0-1.58-1.84-1.59-1.78s-1.89-.36-1.89-.36-.77.23-.71.29.41.65.41.65l-.95.71-.81-.57.45-.51v-1.1l.65,0,.31-.6-.68-.94.16-.52-.56-.57.23-.75-.07-2.07.45-.86-.88-1.86-1.1-1.41-.49-1.22,0-1.13L445.2,349l.23-.81Z" transform="translate(-134.09 -24.63)"/><path class="cls-1" d="M473.88,323.36l-.83.12s-1.74,3.77-1.75,5.67c0,0-4.05,6.37-2.46,9.81l-1.08,2.24-.65.12s-1,6.74,6.9,18.19l.82,1.11-.71.18L471.64,359l-.35-1.42-.7-.48-1.48-.42-1.94-2.2-1.36-1.13L465,355l-.83-.41-.59.35-2.07.34-1.13,1-1.18-.3-1,.71-1.13-.24-1.24.76-.71-.95-3.19-1.37-2.3-1.2-1.3-1.42-1.23-1.78-.76-.84-.88-1.48-.23.81-1.23-.1-.11-1-1-1.67,0-.63.24-.11-.2-.71h1.34l2.31-1.23.48-2.07.83-.65,1.13.48.3-1,1.13-.59.23-.82,2.55-.11.18-1.06.89.35,1.06-.64,1.18.71.66-1.83,1.26-2.48-.17-3.31-.58-2.43,2-.76-.88-1.54.07-2.78-.17-1.24.13-2.07,1.06.12.82,1.3,1.24.36.06,1.54,2.65,1.32,1.85-2L468,322l-.71-1.9.6-.59,1.12,1.37,4.55,1.38.35,1.12Z" transform="translate(-134.09 -24.63)"/><polygon class="cls-1" points="323.09 324.6 323.53 325.45 325.7 326.21 326.77 326.17 327.61 326.98 327.11 327.73 328.62 327.64 329.55 327.96 330.52 328.85 331.06 328.72 330.97 328.14 328.77 324.36 328.42 323.92 328.29 323.12 327.63 322.1 326.08 321.82 326.69 322.98 327.89 323.83 328.06 324.45 327.57 325.07 324.82 324.92 324.2 324.87 323.89 324.38 323.09 324.6 323.09 324.6"/><polygon class="cls-1" points="332.67 325.8 332.36 326.11 332.8 326.33 332.35 326.91 333.37 327.62 333.41 328.42 334.38 329.85 333.58 329.75 333.49 330.06 334.47 331.14 334.51 330.08 334.87 329.31 334.39 328.74 333.9 327.49 333.16 325.18 332.45 324.64 332.19 323.09 331.49 322.42 331.88 323.36 332.1 325.09 332.67 325.8 332.67 325.8"/><path class="cls-1" d="M430.9,315.89l-.64-1.89.72-2.37-1-1.54-.65.29-.88-1.18,1.79-3.61v-1.71l-.7-.36.36-1.54,5-.39.9-2.06,3.84.55.53-.89-1-2.55.07-1.71,1.66-1,1.31-2.54,2.26-2.35,1-.3.94.9,1.6-.59,1.95.19.77.41.58,1.55,1.84-.59,2,1.61,1.07-.88,1.84.42,1.84-2.06-.77-.95.26-4.73,1.89.71,1.72-.88,1.83,1.08.29,1.59,3.2-.39,2.6.9,0,2.66,2.07.66,2.55-.35.13-3.19,1.89.13.82,1.95.67.14.17,1.69.57,1.29s1.49,13.14,0,17a27.34,27.34,0,0,0-.33,4.66,5.21,5.21,0,0,0-.59,3.81,6.74,6.74,0,0,1-1.65,2.21s-2.53.26-3.29,1.45l-.23.49-.1.62L469,320.86l-1.12-1.37-.6.59L468,322l-1.54.35-1.85,2L461.93,323l-.06-1.54-1.24-.36-.82-1.3-1.06-.12-.17-3.08-1.59-.54-1.65-2.43-3.84-1.32-3.61,0-2.31,1.82-5.1,2.64-3.79,1.7-2,1.82-3.31-1-1,.23.06-.64.43-3.08Z" transform="translate(-134.09 -24.63)"/><path class="cls-1" d="M455,299.26s-2-.19-2.75.78l1.36,2.67,1.55.45L456,302l0-1.42-1.11-.44.09-.89Z" transform="translate(-134.09 -24.63)"/><path class="cls-1" d="M498.39,253.66l-1.24-1,.35,1.51s-.31.45-.49.31a14.23,14.23,0,0,1-1-1.78,2.32,2.32,0,0,0,.17,2s-.67.49-.67.49c-3,1.05-.28,2.57-.28,2.57l0,.93-.8,0c-.5,1.29-2.36,1.28-2.36,1.28V261s2.27.36,2.27.32-.05.84-.05.84l-1.83,1.41.84,1.25.89-.4c.62.27.21,2.05.21,2.05l-.7-.94-.63.22c.62.27-.14,1.55-.14,1.55l1.34.19-.05.57-1.87.08.44,1.38.89-.53s2,.68.8.85-1.34.75-1.34.75a2.39,2.39,0,0,1,1.46,1.82l-.45,1.24-1.46-1.07-.26-1.07-1.24-.22.75-.8-.88-.85-1.29.31,0-.84c-4-.6-5.51,1.52-5.51,1.52l-.32,1.33-.57-1.15c-.52-1.78-2.13.12-2.13.12-1.47,2.39.4,1.07.4,1.07l.35,1-.93.52c-4.82,4.68-3.57,12.72-3.57,12.72l.1.76-1.89-.13-.13,3.19-2.55.35-2.07-.66,0-2.66-2.6-.9-3.2.39-.29-1.59L463,283.85l-1.72.88-1.89-.71.13-3,3.79-.7,1.74-3.42-.17-3.08,1.43-2.65,2.56-3.72L467,264.65l.84-1.07-1.11-2.9,1.59.48.6-2.3.9-2.37-1.24-.24-.23-1.6-1.18-1-.17-.71,1.36-.29,1.83-.17,1.67-1.35.53-1,.89.06,1.84-.17,1.41,1.25,1.83.66,1,1.13,4.32,0V254l-.9.77,2.72,2.73,2.79-2.47,3.13,1.32,1.85-4.14-.17-3.31,2.84.31,1.13.59,1.28,3.91Z" transform="translate(-134.09 -24.63)"/><path class="cls-1" d="M439.14,263.72l1.89-3.51.26-.87.62,0a2.24,2.24,0,0,1,1.49-1.22s.16-1.22,1-1.25c0,0,1.46-1.74,2.25-6.22l.1-.71.68-.51,1-4.06-.2-.78,3.31.31,1.9-.87.11,1.48,2.54,1.37,4.37,1.14,1.25-.23.58,1.07,1.66.24.52,2,1.47,1.13.89-.06.12.77.17.71,1.18,1,.23,1.6,1.24.24-.9,2.37-.6,2.3-1.59-.48,1.11,2.9-.84,1.07,1.82,2.84-2.56,3.72-1.43,2.65.17,3.08-1.74,3.42-3.79.7-.13,3-.26,4.73.77.95-1.84,2.06-1.84-.42-1.07.88-2-1.61-1.84.59-.58-1.55-.77-.41-1.95-.19-1.6.59-.94-.9-1,.3-.82-1-1.48-.59-.82-1.6.42-.77.6-3.37.78-.65-.17-3.79.78-1.47,2,.48,2.14-1.29,1.19-1.83-2.18-2.49H445l-1.12-1.19.19-3.55-2.12-.6-1.3-.48-1.36-.78-.16-.38Z" transform="translate(-134.09 -24.63)"/><path class="cls-1" d="M506.92,237.43c-.06,0,0,.71,0,.71l-2.49.23,1,.65-.12.6a5.46,5.46,0,0,0-.89-.13c0,.06.11.71.11.71l1.6.13.06.89s-2.31.64-2.31.7,0,.47,0,.47l1.24.18s-.89.89-.83,1a6.44,6.44,0,0,1-1.12.11l1.65,1.37-.78.82s-1.77-.89-1.71-.89a9.64,9.64,0,0,1,.17,1.3l1.48.36-1.71.41,1.06.89H500.6a7.42,7.42,0,0,1-.35-1.07l-1,1.06L500.3,249l-.89.59.47.83-.71.53-.94-2.14-1.12-.18v1.12l-1.13-.59-2.84-.31.17,3.31-1.85,4.14L488.33,255l-2.79,2.47-2.72-2.73.9-.77V253l-4.32,0-1-1.13-1.83-.66L475.16,250l-1.84.17-.17-1.42,1-2.66-1.24-.18.06-2.07,1.19-1.42-.7-.42.06-1.36-1.7-2.13L470.37,235l2.16-5.55,1.66-1.77.55-2.48-1.06-1.54,1.84-2.3-1.59-1,.13-2,2.42.43-.76-2.73,0-4.2.84-.76-.47-2.73,2.2-1.82.18-.71.71.71,1,.42,2.79-1.52-.17-.65,3.08-1.23,2.85-1.88L489.8,203l2.49-1.58,2.37,1,1.42-1.05.19-1,1.77-.64.77-.71,1.06,1.28s3,5.25,3.08,6.49c0,0-2.4,1.59.35,1.51l.88,1.34s-3.11,1.13-.28,3.1L505,214l.89.09.69,2.31s-1.77-.19.26,2.31c0,0,1,3.82-.58,9.85l2-2.12.26,2.57s1.95.81,0,1.6a10.7,10.7,0,0,1-.77,1.59c-2.43-.31-1.32,2.89.29.65,0,0,1.31-1.23,1.18.13a1.8,1.8,0,0,0-.66,1.53h-1.59l-1.07,1.29.82.12-.53.83c-.7-.57-2.8,1.11.11.59l.71.06Z" transform="translate(-134.09 -24.63)"/><path class="cls-1" d="M451.73,211.05a19.71,19.71,0,0,1-1.6,2.32l-.27,2.49,1,1.28s1.74.42,2.23,1.15c0,0,.35-1.48.42-1.83l.45-.69,0-3.42-2.26-1.3Z" transform="translate(-134.09 -24.63)"/><path class="cls-1" d="M451.8,211.29l1.82,1.36v3s-.93,1-1.56,1a5,5,0,0,1-1.52-.48s-.48.19-.19-1.23l.13-1.49,1.33-2.12Z" transform="translate(-134.09 -24.63)"/><path class="cls-1" d="M466.92,252.16l-.89.06-1.47-1.13-.52-2-1.66-.24-.58-1.07-1.25.23-4.37-1.14-2.54-1.37-.11-1.48-1.9.87-3.31-.31.47-.92.59-1.14,0-.69-.44-.12a3.23,3.23,0,0,1,0-.62l.51-.48.05-1.43.26-.4,1-.07c3.41-5.83,2.82-14,2.82-14l-.18-1.47-.39-2.21c-2.11-4.16-4.95-3.11-4.95-3.11s-.19,1.07-.19,1.1a11,11,0,0,1-1.14.11l-1.91-.19-.21-1.44-.48.07-.36-1.29.47-.32-.51-.19-.14-1.84.77,1,1.76.82,1.25-.22c4.62-4.09,4.23-8,4.23-8,1.22-2.2,1-3,1-3,.73-3.66-1.05-3.32-1.05-3.32l-1-1.66,2,.31.24-1.18,1.83-.35.47,1,6.45-.09.48-1.3h2.13l3.07,1.79,2.48.24,4.56-1,.36-1.24.91-.69,1-.16.07.52-1.12.22-.06.85.22.21.18,1,.48.58.47-.41,2.74-.1.22,2.67-.77.11-.49,3.37-.18.71-2.2,1.82.47,2.73-.84.76,0,4.2.76,2.73-2.42-.43-.13,2,1.59,1-1.84,2.3,1.06,1.54-.55,2.48-1.66,1.77L470.37,235l1.41,3.56,1.7,2.13-.06,1.36.7.42-1.19,1.42-.06,2.07,1.24.18-1,2.66.17,1.42-.89-.06-.53,1-1.67,1.35-1.83.17" transform="translate(-134.09 -24.63)"/><path class="cls-1" d="M450.61,197.36a10.68,10.68,0,0,0-.76-3.2l-1.42-.06-.05-1.06s3-1.94,3.74-4.25l1.72-.94,1.3.84s2-.29,2.37-1.53c0,0,1.18,1.31,2.32-1.76,0,0,1.5-5.5,1.16-8.64l-.64-.89-1.07-.06,0-.77,1.36.3a3.23,3.23,0,0,0,.84-3.37l.36-.94,1.42.83s2,3.74,3.84.26c0,0,1.6-.29,3,1.67,0,0-.5,6.09.9,9.88,0,0,2.11,5.1,5.27-.62l-.41-1.31.78-2.18,2.83,1.78.06.77.82.24,1.24.48s2,5,4.81-2.4l.49-4.14.65-.89a4.85,4.85,0,0,0-2.22-4.86s-1.12-.53-1.43,1.24l-.65.82-1.66,1-.83.18s-.82-1.43-2.13.16c0,0-1.25-.06-1.6.47a2.32,2.32,0,0,0-2.14,1.06s-1.36.82-1.41-1.73l.42-1s1.39-6.27,1.63-6.8l2-3.12-.35-.71.54-.89a4.79,4.79,0,0,0,4.31,2.15l1.3.78s4.87,7.47,9.58,1.1l-.19,1.78s-2.58,6.79-1.82,9.63c0,0-.83,12.9,2.87,18.71a1.27,1.27,0,0,0,2.07.54l3,3.15-.77.71-1.77.64-.19,1-1.42,1.05-2.37-1L489.8,203l-1.11-1.36-2.85,1.88-3.08,1.23.17.65L480.14,207l-1-.38-.7-.75.49-3.37.77-.11-.22-2.67-2.74.1-.14-.56.09-.29.43.64.39-.18-.25-.64.19-.31.62.54.27-.83-.78-.93-1,.1-.07-.52-1,.16-.91.69-.36,1.24-4.56,1-2.48-.24-3.07-1.79H462l-.48,1.3-6.45.09-.47-1-1.83.35-.24,1.18-2-.31.07-2.13Z" transform="translate(-134.09 -24.63)"/><path class="cls-1" d="M598,93c.46,1.66.45,4.26,1.74,5.81a7.47,7.47,0,0,0,5.19,3.81c.12,0,4.76-4.36,4.76-4.36a6.9,6.9,0,0,0,4.29.35c.12,0,0,2-5,2.13,0,.24-1,1.18-1,1.18l-.83.12s-.74,2.89-1,3.68c-2.36-.11-3.57-.78-9.14,1.44.12,0-2.17-1.77-3.08,3,.47-.12-1.58.72-1.58.72a1.8,1.8,0,0,1-.93,1.31c-1.6.68-4.44.67-4.39-2-.12.12-2.48-.72-3.2,2.35a17.53,17.53,0,0,0,1.65,1.43c-.06.41-7.57-.63-7.57-.51.13.47-2,.58-4.73-1.56-9.23.08-15.41,7.15-19.69,11.27s-8.6,10.77-9.33,14.43c.05.07,1,1.68,1,1.68l-.84,4.67a7.42,7.42,0,0,0-1.79,4.37c0,.12-2.36-1.78-2.36-1.78a10.42,10.42,0,0,1-.7-1.19c0-.12-5.43-3.69-5.55-3.69a8.82,8.82,0,0,1-5.43-2,15.86,15.86,0,0,0-1.89-.72l-5.2-2.27-1.41-1.31h-.83s-4.48-2.62-5.89-4.88c-1-.83-3.43-.61-4.38-1.32s-4-5.22-12.63-4.67c-6.17,2-8,4.18-10.33,5.75a11.27,11.27,0,0,0-5.34,4.71c0,1-1.3.11-1.3.11a6,6,0,0,1-.94-1,1.9,1.9,0,0,0-.61-.89s-.68-3.85-1.86-3.62a16.57,16.57,0,0,0-1.65-1.19s-.45-4.26-5.55-2.15c0,.12-1.65-1.31-3.31-.73.23.12-5.34,3.65-5.14,11.57.23.71,1.41,1,2.95.49,0,.36,4.72,4.4,4.72,4.4s4.5-1,4.62-.93.82.6.82.6a15.73,15.73,0,0,1,1.41,1.43,3.7,3.7,0,0,0,2.48,3c-.24.11,2.7,4.27,4.71,3.45-.12.24,2.24,1.31,2.37,1.31s.35.83.23.83.7.95.82.95a5.37,5.37,0,0,1-2.37.58c.12.24-.36,2.25-3.68,2.47.12.24-2.59-2-3.66-1.67-.42.14-2-.49-2.2-.46s-1.79,1.59-1.55,1.29c1.62-2.86-2.43-4.44-2.62-.74a6.65,6.65,0,0,1-2,1.76s-3.55-.13-3,2.71c0,.35,0,3.31,0,3.31l-1.34.6a6.83,6.83,0,0,0-5.07,4c.12,0-1.77-1.67-3.19-.85.53.36-5.92-4-.42-11.83a8.68,8.68,0,0,0,.24-1.42h.83c.28-.05,2.75-6.51-2.44-10.54.12.24-2.84-.84-2.84-.84l-1.4-2.72-1.42-.37s-1.18-.71-1.06-.83a6.18,6.18,0,0,0,.12-1.42l-.35-1,.54-1.1c-.09-.24,2.88,0,1.16-9,.22.43-.13-2.69,5-2.69,1.63,0,1.53-.22,2-1.26a4.43,4.43,0,0,0,1.76-1.09l1.31-2.25,1.35,1.1c-.27,1.45,2.61,1.23,1.89-.82,0,0,2-2.26,2-2.38s.24-.95.24-.95,1-.86,3.8-2.58c-.24,0,.24-1.07.24-1.07l-3.06-4.39s-3.63-1.87-2-4.17a10.56,10.56,0,0,1,.38-2.08,4,4,0,0,0,2.21-.22c.9-.42.6-1.44,1.68-1.56,0,0,2.17,2.87,3.42,3,0,0,2.25,2.38,4.25,2.38.12.12,0,2.37,2.24.61.52.69,2.84-1,4.5-.81,0,.12-.71,1.3.47,1.66,0,.12,3.42,1.43,3.42,1.43s6.82-1.93,7.73-8.72c.12.36-2.11-4.15-2.11-4.15s1.43-1.88.14-3.55a8.93,8.93,0,0,0-.47-1.42s-1.64-4.74,4.76-6.25c0,0,3.55-.46,4.17-6.49.35.36-.43-9.47-.43-9.47s4.16-4.36,3.35-8.26c.24.47,2.64-7.33-5.58-21.92.36-.12,0-1.54,0-1.54s1.42-.23,1.31-2.83c0,.47,1.43-1.77,1.43-1.77l-.47-.59-.35-1.19.48-.82s1.05,1.78,2.71,1.31c0,.12,3.43,1,3.8-3.53a15.19,15.19,0,0,1,1.78-.35l.94,1.78,1.65,2,3.89,2.62s6.23,7.84,8.71,9.74,1.39,5.69,8.94,12.47,10.25,8.92,14.74,11.18c.23.12.45,4.74,23.74,9.1.12.24,1.37.11,1.37.11.18,2.09-.06,2.88,1.21,4.17,0,0,4.43,3.26,13.19,2.12,1.43-.87,10.25-8.77,10.87-9,0,.11,1.71-1.23,1.66-2.38,1.36-.61,2-1.72,2.85-3.19.56.32,1.1,2.73,1.06,2.73a8.53,8.53,0,0,1-3.1,4.84,12.28,12.28,0,0,1-.49,2.24c0,.12-3.56,3.54-4,6.37a3.11,3.11,0,0,1,0,1.07l-1,1.65a13.09,13.09,0,0,0,2.35,5c-.12.12,1.46,1,1.46,1a16.43,16.43,0,0,1,4,1.23s.85.8,0,1.26l-1.42-.08.83-.52,0-.64-2-.19.44-.36-1.6-.44-.16.64.65.41s-.13-.42.34,1.24Z" transform="translate(-134.09 -24.63)"/><path class="cls-1" d="M563.1,73l-8.77-2.61s3.08,4.72,4.78,3c.17.44,2.92.9,2.92.9L563.1,73Z" transform="translate(-134.09 -24.63)"/><path class="cls-1" d="M489.69,117.94l-1,1.33a5.41,5.41,0,0,0-1.16-.27c0,.08.17,2,.17,2l.71.27,1.34-1.24,1.68.1c.86-.42-1.09-2.56-1.76-2.23Z" transform="translate(-134.09 -24.63)"/><path class="cls-1" d="M476.07,123.55s-1.68,1-1.59,1.78a2,2,0,0,0,2,1.07,2.09,2.09,0,0,0,1.7-1.86c-1.35-1.3-2.14-1-2.14-1Z" transform="translate(-134.09 -24.63)"/><path class="cls-1" d="M476.26,124.62s.38-.12.42.43,0,.32-.44.44-.34,0-.41-.46.43-.41.43-.41Z" transform="translate(-134.09 -24.63)"/><path class="cls-1" d="M486.25,33.71l2,.81s1.77,1.87,1.41,3-2.85,1.32-2.85,1.41a4.77,4.77,0,0,1-2.56-2.68c-.35-1.59,2-2.56,2-2.56Z" transform="translate(-134.09 -24.63)"/><path class="cls-1" d="M482.2,27.39l0,4.44-.54,1.24-.53-.36.1-1.15a6.31,6.31,0,0,1-.88-3.65,11.35,11.35,0,0,0,1.87-.52Z" transform="translate(-134.09 -24.63)"/><polygon class="cls-1" points="23.16 413.88 23.49 413.72 23.51 416.59 23.21 416.88 22.83 416.91 22.47 416.71 23.16 413.88"/><path class="cls-1" d="M160.92,441.36v-1.74l-1,.54,0,1.34h-.45l-.11.3-1.74.16-.17,1.42-.78.74,0,.67.54.48-.71.05-.55.77.1.41.58.23-.14.45-.8,0-.55-1-.42.91.87.58a3.12,3.12,0,0,0,.61,0s1.29-.54,1.29-.54l1.08-1.38.81-1.42s-.58-.42-.48-.42a5,5,0,0,0,.68-.25l-.23-.46.62-.06.26-.35-.45-.36.71-.29Z" transform="translate(-134.09 -24.63)"/><path class="cls-1" d="M147.84,445.14l.57,1.36h.52l.16-1.26a3.68,3.68,0,0,0,.58,0,4.61,4.61,0,0,0-.44-.75h-.36l-.16-.29-.81-.18s-.45.72-.52.78S147.84,445.14,147.84,445.14Z" transform="translate(-134.09 -24.63)"/><path class="cls-1" d="M148.92,453.8l-.9.15,0-1.22.27-1.42.65-1.58-.45-.65.27-.9-.36-.16-.39,1.22.09.71.19.39-.19.35-.36.26-.29.71.22.32v.46l-.42,0a2,2,0,0,1-.13-.39s-.42.16-.42.22a4.76,4.76,0,0,1-.16.52l-.84.22-.36.35.36.07.65-.29.09.45.26.36a3.72,3.72,0,0,1-.49.35,4.2,4.2,0,0,0-.61.06l-.49.45a1.7,1.7,0,0,1,0,.39s.84.62.87.62.58.68.58.68-.07.55-.07.51,0,.91,0,.91v.9l.09.65s.71.42.68.39a7.29,7.29,0,0,1,0-.81l-.16-.52.49-.25.45.19.1-.71-.29-.58.26-.38.23-.81,0-.65.77.33.32-.52.88-.67.07-.77-.49-.39Z" transform="translate(-134.09 -24.63)"/><path class="cls-1" d="M148.79,446.18a2,2,0,0,1-.16.26l.06,1.13.61.35-.22-.84.36-.15S148.79,446.15,148.79,446.18Z" transform="translate(-134.09 -24.63)"/><polygon class="cls-1" points="11.53 431.41 10.44 431.18 9.82 431.37 9.88 432.15 10.17 433.06 10.94 433.09 12.01 433.55 12.04 432.9 11.95 431.74 11.53 431.41"/><polygon class="cls-1" points="9.62 433.37 9.23 433.08 9.43 433.76 8.84 433.43 8.46 432.98 7.94 433.33 7.94 433.91 8.65 434.08 9.54 435.82 9.97 435.38 10.36 433.96 9.75 432.92 9.62 433.37"/><polygon class="cls-1" points="7.58 434.26 7.96 435.46 7.51 435.62 7.1 434.59 6.74 434.65 6.51 435.84 6.99 436.49 8.02 436.79 8.77 435.73 8.39 434.79 7.58 434.26"/><path class="cls-1" d="M141.07,463.67l.3-1.52-.68-.29-.58-1.43s-.52.84-.52.87-.35-.19-.35-.19l-.17,1.22-.38-.51-.42.51s-.2-.52-.2-.52l-1.16.52.07-.84-.39-.52-.67,0-.46.55.06,1,.29.71-.23.42.48,1.17-.59,1.74-.68-.07v-.58l-.39,0-.2.87.84.2.06.42h.68l.2-.45,2.06.1.32.36s.13.65.13.68a2.27,2.27,0,0,0,.45,0l.52-.67v-.55l-.64-.39,0-.91,1.06-.31.29.55,2.1-.06.19-.45-1.35-1.26Z" transform="translate(-134.09 -24.63)"/><path class="cls-1" d="M153.24,406.86l.54-1,.4.18-.4.75.57.36.67-.93.4.27,0,1.51.49.49.8-.84.31-.93-.53-.27.27-1.64-.71.62.41-1.33L156,404l.31-.62c2.1-2.26,2.37-3.14,2.37-3.14l.09-.76-.09-.71-1-.62.35-.58.71.67.63-1.15-.53-.22.62-.8-1.68-1.16-.53.4-.94,1.77-1.73-.19s-.5,1.42-.5,1.46-.31,1.33-.31,1.33l1.19,1.25-.8.35-.81,1.46-.14.93h.85l-.89.93-.19,1.81-1.2.09s0,.44,0,.57S153.24,406.86,153.24,406.86Z" transform="translate(-134.09 -24.63)"/><path class="cls-1" d="M155.81,409.54l.58-.62-.58-.05-.67.18-.71,0s-.92-1.12-.88-1.12-.44.18-.44.18l.48.71-.57-.31-1.12.17,0-.93-.71,0-.32,2.57-.32,2.53-.28,2.62.71-.4s.53.93.58,1a16.61,16.61,0,0,0,1.69-1.37s.81-3,.81-3l.54-.48.27-1.6Z" transform="translate(-134.09 -24.63)"/><path class="cls-1" d="M163.75,428.08l.68-.06-.1.51.32.52.84.07c.07-1.36,1.88-1,1.88-1v-.94a4.16,4.16,0,0,0-.61,0s.06-.52.06-.52l.81.14s.07-.29.07-.29l-1.06-.81.36-1.13-1.75-.46-.77.32-.23.87.42.67-1-.35.06,1.13.58.55-.94,0Z" transform="translate(-134.09 -24.63)"/><path class="cls-1" d="M182.15,470.09l-3.07,2.25s0,.8-.09.84.62.58.62.58l-.09.76.66.13.45-.84.35.49,1.24.09.45-.62.08,1,.76.05,1-.71,0-.57,1.17-3.37-.8-.18s-.85.7-.89.75a6.61,6.61,0,0,1-.62-.85Z" transform="translate(-134.09 -24.63)"/><path class="cls-1" d="M175.45,480.22l1.08-1.86.93-.22.31-.48h-.84l.45-1.06.49-.35.26,1.06.8-.84v-.84l.45-.44-.35-.71-.36.22a19.23,19.23,0,0,0,.06-2.26c-.09,0-.21-3.2-.21-3.2l-2.17-.14-1.43,1.05-.58-.22-.26-.49-.67.35.76.58c.26,1.38-1,3.15-1,3.15l-.76,2.48.43,1.16,1.07.05-.4.57-1.34,1.73,1.24.22-.36,1.33s.92,1.52.92,1.56a4.31,4.31,0,0,0,.71-.09l-.57-1.86Z" transform="translate(-134.09 -24.63)"/><polygon class="cls-1" points="48.03 452.43 47.46 452.87 48.79 452.52 49.41 451.37 48.84 451.28 48.22 451.68 48.03 452.43"/><polygon class="cls-1" points="51.23 442.11 50.52 442.15 49.72 443.21 50.47 443.34 50.11 444.5 51.35 444.37 51.31 443.44 51.5 442.5 51.23 442.11"/><path class="cls-1" d="M230.1,455.58l-1.16.35-.22-.72-.45.67-.66-.76-.8.17a11,11,0,0,1-1-1.15,8,8,0,0,0,.63-1.24l.36-.89,2.22-.17a12.89,12.89,0,0,0,.1-1.86,11.94,11.94,0,0,0-1,1.24h-1l-.35-.62-.1.71-2-.45,1.52-1.41-.53-.36a8,8,0,0,0-1.16.7,6.87,6.87,0,0,1-1.24-.45l.54-.79.09-1,1.16-.61-.18-.63,1-1.68-2.94.79L220,444.17l-2.49,1.05-1-.26c-2,.34-1.68-2-1.68-2-.79-2.14.9-1.78.9-1.78l.52.54a5.24,5.24,0,0,0,1.25-.17V441l1.51-.17v-.44l-.7-.89,1.42-.17.79.45-.08-.71.89-1.69-.17-1.15.27-.89-.17-1.59-.88-1.6-1.68-1.7-1.68-.45-.27.62-1.6.17-1.34,1.77-1.25,1.23h-3.81l-1-.81-1.78-.27-1.5-.63a8.21,8.21,0,0,1-.89.44c-.09,0-2.91-5.25-2.91-5.25l.19-1.51-.8-.35.71-1.06.73-3.73-1.42.35-.72,1.42-1.24.52-1.41-1.6h-1.6l-.63.53-2.39-.19-.54,1.24c-1.33,1.15-2.31.7-2.31.7l-.26-.44-1.24-.18v.88l-1.15.44-.72,2.13.17,1.6-1.25,1.14L183,430.78l-1-.27-.53-.8-.44.53.53.71,1.68.72.18,0,1.16-.21h.62l-.27.4-.9,1.39-2.4.2H180.5l.36-.92-1.33-.47.18-.8-.62-.19-1.51,1,.08.62-.44.53-1.78.08.62.71.8-.08-.36.8,1.6-.26-1.69,1.41-2,.61-.09.71-.27.86c-.65.7-1.6-.07-1.6-.07l-.82-.95.54-1.24-.94-.83-1.19-.07-.71.83-.65.29.58,1.72-.36.29L168,437a8.81,8.81,0,0,1-.59,1c-.06,0,1.29,1.54,1.29,1.54l.77.12.06.89-.36.59-.42,1.54s.29.65.29.71-.3.23-.3.23l-.71-1-.67-.71,0-1.05-.29,0-.53.26-.49-.22-.71.62-1.2-.45.27-1-.31-.22-.58,1-2.08-.27V442l-.35.08.08.45.4.4.84-.09-1.64,1.33.21,2.13,1.33-.08.22,1,.8-.66.26.62v.8l.53-.09.22.84-.58.4.22.58,1.16-.22.31-.57,1.33.27-.36.66.44.85.58,0,.79.71,0,.62.22.18.84-1h.67l1.9,2-.18,1.06-.45.49,0,1.15.57,1.16.58.22.13.27-.36.13s1.11,1.21,1.15,1.21l-1,.08-.05-.31-.93-.49-.84-.45-.27.26-.3-.31-.45,1-.4-.4-.09.76s-1.68-1-1.64-1a2.84,2.84,0,0,0,0-.58l.44-.26.05-.58-.67,0c-.09,0,.05-1.06.05-1.06l.27.44,0,1.41h.4l0-1.9.36-1-.49-1.13-.84-.26-.31-.18-.8.6-.26-.72.8-.93-.18-.36-.57.26-.05-.62-.35-.31-.17-.45-1-.22-.32,1.19-.58.84.13,1.47-.49.4,0,1.19a5.91,5.91,0,0,1,.53.49c0,.05.75,1.43.75,1.43l.74,2.09.89.71.4-.35.84.05-.31.75.93.58-.1.58,1,1.38.76-.62-.72,1.41-1.24.18.79.71-.44.71-1,1.77-.89.79,1.24-.17s1.61-1.85,1.61-1.94a8.58,8.58,0,0,1,1.42-.44l1.79-3.37.18-.79,1.69.54,1.69-1.59,1.42.36,1.51.18-.27.53.17.63.53.09v1l-2.23,1.68.18,1.06,1.32,1.34,1.15-.08,1.34-1.5,1.16-.18,1.24-1.23-.17-.63.63-.88.09-1.86-.79-2.14-1.15-1-1.86.26-1.51,1.15-1.78-.1-.88-.89,1.25-1.06,1-.44,1.08-1.5.53,0,0-.66-.92-.63-.71-1.95-1-1.78-.09-.71.62.53,2.41-2.92,1.24,1.08.17.35,2,.19.68.27.41,1.42.65.83,0,1.24,0,1.13.69,2.84,2.13,1.34.08,1,1.33.36.88,1.78a3.49,3.49,0,0,0,0,1,11.82,11.82,0,0,1,0,1.69l-1.34.79L188,465l-2.31,1.5.08.71,1.6-.26,1.78-.53L191,466l.44.8-1.24.79-2.41,2.12,1,.8-.53.36-.18.88.8.1v1.33s-2.14,2.12-2.14,2.21-.45,2.57-.45,2.57l-1.07.88V480h-.89l-.89,1.33-.36,1.15-.6,1.3-.65.47-1.07-.13-.29-.47-1.36-.07-1,.65-.24,1,.94.68-.27.89-.71,1.32c2.56,2.14.6,5.06.6,5.06l-.72,1.87.61,1.33c8.14,5.89,1.28,12.25.75,12.07l-1.51-1.16-1.24.62,1.14,1.69,1.16.54v.79l-.8.36,1.24.62-.62.53,1,.36-.45,1,2-.08V513l2.57.55c3.82-.25,3.72,2.06,3.72,2.06l-.09.88,1.06-.17,1,.36.35-.71.89.18.27-.71-.35-.18.62-.79.36-1.6c-4.25-1.35-4-6.94-4-6.94l.18-1.15,1-1.41.27-.8-.09-.8.63-.8.53-1.33C189,498,192.19,497,192.19,497l1.06.72,1.69.54.88,1.6-.72,1.06c-.45,2.66-1.52,2.21-1.52,2.21l-.79-.18-.17-1.6-.89-.53-1.6.35-.8,1.32,1.32,1.07,1.69.19-.18,1.15.25,1.51c1.25.36,2.74,4.36,2.74,4.36l-.46,3-1,1.59.44.62S193,518.41,193,518.5s-2,1.33-2,1.33l.62.53-.18,1.24-.54.89.62.18,1.17-1.77,2.84-1.68h1.16l3.11-1.76.36-1.06.63-1.78,1.69-.08c.09,0,1.34-1.85,1.34-1.85l-1.07.17-.18-.54.89-.7-.08-.44-2.3-1.44c-.35-1.95,2.5-3.62,2.5-3.62l1.51.36.88.27,1.42,1-.19,1.33,1,.45,1-.53a8,8,0,0,0,.7,1.16,2,2,0,0,0,.45-.27l-.44-1,1.25-1.6-.53-.88a6.19,6.19,0,0,0,.8-.62,15.43,15.43,0,0,1,0-2c.09-1.6,2.05-3,2.05-3l-.08-1.24v-1.6l.9-2.39c-1.33-.37-1-3.47-1-3.47.36-1.68,2.34-8.51,2.34-8.51,1.36-6.2,2.61-7.62,2.61-7.62l.36-1.95,1.07,0-.26-.51h-.62L219,472l1,.26,1.07-1-.44-1-.62.33-.17-1.34.71-1.25.89-.26.72-1.24-.53-.19.89-1.06a13.94,13.94,0,0,1,1.16-1.06c0,.09.71.27.71.27l-.09-.8.36-.7.62-.49.1-1.24.39.62.19-1.06,1.33.27v-.53s.71.31.75.31.94-1.1.94-1.1l0-.31-.75-.14-.09.53-.31-.44-.27.35-.26-.53.67-.67,1.2-.74-.27-.32-.66.27v-1.07l.67.36.22-.57.62.22v-.31l1.24-.17s-.08-.36-.08-.36Z" transform="translate(-134.09 -24.63)"/><polygon class="cls-1" points="42.99 459.77 43.38 460.17 43.88 458.58 44.59 458.05 44.55 457.56 43.93 457.56 43.93 457.16 44.55 456.63 43.63 455.6 43.23 456.05 41.98 455.91 41.89 456.79 41.36 457.15 42.06 458.13 42.06 459.19 42.99 459.77"/><polygon class="cls-1" points="45.1 453.35 45.01 454.5 45.76 454.42 46.43 453.62 45.99 452.91 45.1 453.35"/><polygon class="cls-1" points="36.34 468 36.34 468.75 34.92 467.37 34.17 467.41 33.76 468.34 35 468.92 35.35 470.03 36.16 469.41 36.82 469.46 36.69 467.86 36.34 468"/><path class="cls-1" d="M167.89,494.34l-.14.89.53.13a3,3,0,0,0,.36-.48s-.08-.76-.08-.85S167.89,494.34,167.89,494.34Z" transform="translate(-134.09 -24.63)"/><path class="cls-1" d="M166.28,496.86l-1.33.39-.49.94-.59,1.5-.4-.13.27.93,1.1.36.76-1.15-.44-.09.54-1.07.22-.84.85,0s.54-2,.54-2H167Z" transform="translate(-134.09 -24.63)"/><path class="cls-1" d="M202.17,528.13c0-.09-.63.53-.63.53s-1,1.41-.93,1.41.22.23.22.23l-.41,1.1L199,533.93a6.85,6.85,0,0,1-2.56,7l.21,1.11,0,1.42-.18.93.7.67c.28-1.2,2.32-1.14,2.32-1.14l.36-1.82-.39-1.64.9-2.4a5,5,0,0,0,.93-.39c0-.09.18-1.11.18-1.11l.58-.48c.05,0-.08-2.27,0-2.31s.58-1,.58-1l-.08-2.4L203,530S202.17,528.22,202.17,528.13Z" transform="translate(-134.09 -24.63)"/><polygon class="cls-1" points="52.45 516.21 51.69 516.21 50.35 518.46 49.06 518.68 49.19 520.05 50.11 522.01 50.29 523.08 50.9 524.1 53.92 524.2 55.52 523.41 57.08 521.2 57.18 519.12 55.59 518.13 52.45 516.21"/><polygon class="cls-1" points="123.19 388.84 123.64 389.16 123.63 389.87 123.08 389.71 123.11 391.29 123.66 391.23 125.15 389.59 125.54 389.5 125.64 389.01 124.83 389.11 124.57 388.49 123.35 388.33 123.19 388.84"/><polygon class="cls-1" points="124.83 388.27 125.32 387.94 125.74 388.33 126.32 387.56 125.71 387.59 125.58 386.98 124.61 387.11 124.38 387.78 124.83 388.27"/><polygon class="cls-1" points="121.51 387.25 121.19 387.8 121.54 388.41 122.64 387.71 123.42 387.84 124.22 387.36 124.07 386.16 123.52 385.03 123.07 384.84 122.1 385.19 121.65 385.86 122.36 386.22 122.19 387.32 121.51 387.25"/><polygon class="cls-1" points="168.1 387.21 167.63 387.17 167.57 386.71 167.24 386.52 166.89 386.94 167.03 388.04 167.95 388.37 168.1 387.21"/><path class="cls-1" d="M304.49,425.62l-.94.05s0-.24-.05-.24a3.76,3.76,0,0,1,.8-.18s0-.43,0-.43l-.62.09h-1.31l-.19-.66,1-.42.76-.94,0-1.27a2.36,2.36,0,0,1-1.59-2l-.38-.1.09.62-.56,0a6.73,6.73,0,0,1-.38-.76c.05,0,0-2.16,0-2.16l.34-1.56.95-1.88-1.55-.76.1-.7-.09-.57-.52-.1-.19.57a2.32,2.32,0,0,0-2.64.55l-.72,0-1.68-2-.62.62-3-1.79.18-.62-.08-1.07-.36.18-.8-.62-.89.52-.09.62-.62-.44.19-1.51-.71-.8-.45,1.15-.8-.45.09.89H284.8l-2.12-.9-1.07.27-.27,1-1.34.79-2.58,1.41-2,1.86-.26-.45-1,.26-1.5-1-.09.62,1.68,1.43.07,2.13-.09,2.22-.93,1.18L272,419.53l-1.19,1.12-3-.61-1.36.23-.77-.35-1.18.4-.83.83-1.72.35-1.24.46-1.42-.65-.94-1.37-.82-2.25a11.56,11.56,0,0,1-1-.66,12.61,12.61,0,0,0-.59-1.24l-.82-1-1.13.82.53.36-.06,1.3-1.72.29-1.66,1.65-.78.35-.06,1.77-.36,1-.42.53-.89-.06-.18.82.24.66-.6,1.53.17,1.07,0,1.06-.71.29s.35,1.84-3.74,3.71a6.6,6.6,0,0,0-3.44,3.12s-2.68,1.89-3.45,2.23l-.77.3.06.47s-.53.18-.53.12a1.87,1.87,0,0,0-.24-.36l-.59.65-.53-.3-.71.24s.11.65,0,.59-.53-.3-.47-.3a3.22,3.22,0,0,1-.47.29l.64.42s-.18.35-.23.35a4.4,4.4,0,0,1-.54-.29l-.12.35-.35-.42s-1.54,1.12-1.54,1.18-1.25,1.3-1.25,1.3l.83-.29,1.07-.77.77-.47.06.36-.42.47.77.12.53-.41s.18-.65.18-.59,1.43-.83,1.43-.83l.83-.23,1.24-.82.65-.53.48.18.77-.59.65.48,1.06.3-.65,1.06-.19,1.71.12.36.89-.71-.18,1.13-1.25.94,1.36.66.59-.24a16.89,16.89,0,0,1,1.72-.23,2.85,2.85,0,0,0,.65.24l-.89.65-.25.83,1.36.47-.06,1.13-.65.41.11,1.36-1.24-.36-.29-1.06-.89-.13-.89.47.35.89.72-.71.35.66-.18.88,1.71.72v.36l-1.42-.19.88.89-.48.53.53.78-.83.35-.88-.72-.53.36-.07,1-.53.41.59.42.36-.65.18-.89.94.6.77-.23.06.82.7.6.3.71-.36.17-.47-.29-.42.59.71.48s-.77.52-.83.52a6.39,6.39,0,0,0,.05,1.07l1.6-.11-.83-.3.72-.59,1.83-.23-.18.59.47.24.6-.17,1,0,1.51.09,0,1.25-.53-.09-1,1.15.18.48-.94,1.46-.09.89.53.18.09-.53,1.25-.48.57.09,1.06,1.11,1.16.32,1-.4.41-.7.66-.09,1.91.41.88.93-.14.62,1.51.19-.08-1.16-.75-1.2-1-.67s.14-1.59.14-1.73.8-.17.8-.17l.54-.44.05-1.16-.4-1.2c.56-4.61,2.94-2.51,2.94-2.51l.46-2.17.71-.26.67-1.6.85-.84.66.14-.13-1s.36-.35.54-.35.76-.71.76-.71l-.08-2.13-.49-.49.71-.53L263,443l0-.39.85-.27v-.71l-.18-.22.72-.44.57.18.71-.44.67-.53,1.56,0,1.42-.61-.09-.49-1,.39-1.33.35-.27-.22,1.29-.7,1.29-.26,2.93-1.41.45-.71a8.68,8.68,0,0,1,4.62-.87l.62.81,2.21.18,2.57,1c-.45,1.15,2.65,2.59,2.65,2.59l.09,1.15.62.18,1.23,1.16.09,1.24h.89l1.05,1.6.55-3.72.63-1.07-.36-.35.9-1.6.09-.62,1.16-1.85.66-1,.37-1.11,1.27,0a2.93,2.93,0,0,0,0-.66,7.27,7.27,0,0,1,.61-.65l-.7-.1,1-1.22.85-.09,3.11-1.78.15-.71.71-.13.14-1.09.85.1a5.3,5.3,0,0,0,.47-.65h.76l2.78-1.64a2.29,2.29,0,0,0-.32-.28A3.29,3.29,0,0,0,304.49,425.62Z" transform="translate(-134.09 -24.63)"/><polygon class="cls-1" points="159.29 375.9 158.83 376.38 157.74 376.22 156.6 377.15 155.41 377.21 154.99 376.75 154.41 377.3 154.99 377.46 154.95 377.95 154.47 378.79 154.56 379.2 155.14 379.14 155.85 378.5 156.76 378.63 157.14 379.25 156.75 380.89 157.26 380.8 157.82 378.99 158.31 378.9 158.73 378.64 159.14 378.87 159.27 379.23 158.85 379.22 158.37 379.29 158.21 379.67 158.43 379.83 158.72 379.58 159.3 379.55 159.75 380.13 160.24 378.81 159.95 378.65 160.38 377.71 160.51 376.75 159.87 376.42 160.68 375.88 159.29 375.9"/><polygon class="cls-1" points="99.62 397.39 99.62 398.46 100.32 398.99 100.56 399.7 100.86 399.12 102.16 399.06 102.52 398.41 103.81 398.89 103.75 399.6 104.46 399.54 105.11 400.08 104.88 398.95 105.18 397.89 106.3 397.95 106.42 397.42 107.19 397.37 107.91 396.66 107.31 396.83 106.9 396.6 106.13 396.54 105.95 397.3 104.95 397.48 103.88 398.24 103.11 397.58 102.52 396.58 101.28 395.92 99.62 397.39"/><polygon class="cls-1" points="117.31 389.69 118.02 389.69 119.05 388.98 118.35 388.3 117.18 389.1 117.31 389.69"/><polygon class="cls-1" points="115.47 389.35 116.02 388.77 115.8 388.26 115.31 388.22 114.32 387.86 113.99 388.12 114.18 388.6 115.31 389 115.47 389.35"/><polygon class="cls-1" points="116.86 388.97 116.54 388.42 116.25 388.87 116.28 389.58 116.83 389.26 116.86 388.97"/><polygon class="cls-1" points="120.62 385.25 119.84 386.27 119.61 385.76 118.35 386.69 118.16 386.95 118.22 387.56 118.83 387.85 120.38 387.67 120.35 386.79 121.04 385.38 120.62 385.25"/><polygon class="cls-1" points="125.01 384.46 124.49 385.65 124.81 386.24 125.36 386.14 126.75 384.76 126.37 384.27 125.01 384.46"/><polygon class="cls-1" points="127.5 382.86 126.83 382.79 126.53 383.82 127.14 384.79 127.85 385.57 128.33 384.83 128.08 384.54 128.59 384.22 127.5 382.86"/><polygon class="cls-1" points="107.81 391.93 109.47 391.46 109.82 392.11 109.22 393.29 109.52 393.53 110.71 391.17 111.24 391.23 110.95 390.58 110.06 390.93 110.13 389.81 109.36 389.8 109.3 389.39 110.25 389.1 110.13 388.56 109.07 388.15 108.65 388.74 108.59 389.68 108.94 390.27 107.16 391.39 107.81 391.93"/><polygon class="cls-1" points="107.24 387.25 106.47 386.12 105.41 385.88 105.52 387.19 106.41 388.08 106.58 388.9 107.06 388.31 107.35 388.91 106.7 389.73 106.75 390.32 108.35 389.8 108.35 389.39 107.83 388.62 108.36 387.79 108.42 387.02 108.31 385.13 107.01 385.24 107.19 386.13 107.6 386.07 108.01 386.78 107.89 387.49 107.24 387.25"/><polygon class="cls-1" points="104.59 384.93 104 384.34 103.64 384.75 102.81 385.16 102.69 385.63 102.16 386.16 102.45 386.81 102.92 386.76 104.59 384.93"/><polygon class="cls-1" points="124.78 325.05 126.19 324.03 126.56 323.43 126.71 322.63 125.87 322.16 124.93 323.14 124.78 325.05"/><path class="cls-1" d="M256.82,349.34l-.09-.51-.09-1,.66-.23.18,1,.88,0,.15-.8-.33-.56,1-.13.2-.89S259,346,259,346a4.17,4.17,0,0,1-.47.47l-.23-.29-.79.05c-.09,0-.52.65-.52.65l-.7,0-.7,1,0,.94.6.05Z" transform="translate(-134.09 -24.63)"/><path class="cls-1" d="M258.17,350h-1a5,5,0,0,0,.18.84l1.54.19.09-.46-.74-.24Z" transform="translate(-134.09 -24.63)"/><path class="cls-1" d="M263.61,344.43l-.14.6.79.14.75-.41,1.49.33,0-.88s.75-.33.7-.33.15-2.7.15-2.7-2.42-1.93-2.42-2a13.48,13.48,0,0,0-1.35.36l-1,1.12-.34,1.31.28,1.58Z" transform="translate(-134.09 -24.63)"/><path class="cls-1" d="M310.51,401.06l-.42.49-.46.95h-.51l-.68.3L308,404l-.77-.09-.68.68-.1.74-1.14,1.4-.33,1.7-.71.41-.81-.23-.55,1.19.31,1.45.81.1.39-.32-.74.52-1.19.61v.29h1.32l.62.33.34.64a4,4,0,0,1,2-.54,19.2,19.2,0,0,1,4.22-2.37l0-.48-1.56-2.33.08-1.91.59-1.22.94-1.16,1.14-1.31.1-1,.88-1.06-1-1.13Z" transform="translate(-134.09 -24.63)"/><path class="cls-1" d="M369.35,311.21l-.33.26,0,.58-.66.31-.76-.41-1.39.57.61,1,.81.06s.42-.48.44-.48l1.77-.45-.27-.5.24-.31Z" transform="translate(-134.09 -24.63)"/><path class="cls-1" d="M404.63,288.86l1.73-.32L408.1,287h.4l1.15-1.18.55-.18c-.21-1.5,1.26-3.23,1.26-3.23l.19-.62c.26-.77,1.12-2.39-.51-1.59-5.49,1.86-1.26-4.27-1.26-4.27l.11-1.07.37-.47.08-2.14.3-.7-1-.07-.59.32-.66,1.25-.12,1c-1.77.47-3.7,3.48-3.7,3.48l-1.74,2.38-.31,3.64.77.52c0-1.66,1.33-1.36,1.33-1.36l1,1.11a1.38,1.38,0,0,1-1.15,1.21s-.66,1-.7,1a4.77,4.77,0,0,0,.4.55,4,4,0,0,1-.81,1.69c-1.07.36-1.07.07-1.63.8C402.53,290.36,404.63,288.86,404.63,288.86Z" transform="translate(-134.09 -24.63)"/><path class="cls-1" d="M446.08,450.73s-1.35-1.25-1.41-1.37-.83.06-.83.06-.12,1.06-.12,1,.53.89.53.89h.53a6.39,6.39,0,0,1,.05,1.07l1.3.54.72-.71s-.12-1.36-.17-1.42A2.25,2.25,0,0,0,446.08,450.73Z" transform="translate(-134.09 -24.63)"/><path class="cls-1" d="M438.19,416.2a5,5,0,0,0-.94.12c0,.05-.66,1.41-.66,1.41l.41,1.07,1-.11c.05,0,.83-.65.89-.59a8.6,8.6,0,0,0,.06-1.3A6.71,6.71,0,0,0,438.19,416.2Z" transform="translate(-134.09 -24.63)"/><path class="cls-1" d="M430.49,406.58a8.43,8.43,0,0,1-.3.95c0,.06-.12.94-.12.94l.82.66s.13-2.07.19-2.07a4.4,4.4,0,0,0,.42-.71l-.12-.77A13.33,13.33,0,0,0,430.49,406.58Z" transform="translate(-134.09 -24.63)"/><path class="cls-1" d="M433.29,392.94s0,2.88,0,2.91,1.06,1.16,1.06,1.16l1.44-.06s0-2.56,0-2.59-1-1-1-1Z" transform="translate(-134.09 -24.63)"/><path class="cls-1" d="M508.43,230.64a10.7,10.7,0,0,1-.77,1.59c-2.43-.31-1.32,2.89.29.65,0,0,1.31-1.23,1.18.13a1.8,1.8,0,0,0-.66,1.53h-1.59l-1.07,1.3.82.12-.53.83c-.7-.57-2.8,1.11.11.59l.71.06c-.06,0,0,.71,0,.71l-2.49.23,1,.65-.12.6a5.46,5.46,0,0,0-.89-.13c0,.06.11.71.11.71l1.6.13.06.89s-2.31.64-2.31.7,0,.47,0,.47l1.24.18s-.89.89-.83,1a6.44,6.44,0,0,1-1.12.11l1.65,1.37-.78.82s-1.77-.89-1.71-.89a9.64,9.64,0,0,1,.17,1.3l1.48.36-1.71.41,1.06.89H500.6a7.42,7.42,0,0,1-.35-1.07l-1,1.06L500.3,249l-.89.59.47.83-.71.53-.94-2.14-1.12-.18v1.12l1.28,3.91-1.24-1,.35,1.51s-.31.45-.49.31a14.23,14.23,0,0,1-1-1.78,2.32,2.32,0,0,0,.17,2s-.67.49-.67.49c-3,1.05-.28,2.57-.28,2.57l0,.93-.8,0c-.5,1.29-2.36,1.28-2.36,1.28V261s2.27.36,2.27.32-.05.84-.05.84l-1.83,1.41.84,1.25.89-.4c.62.27.21,2.05.21,2.05l-.7-.94-.63.22c.62.27-.14,1.55-.14,1.55l1.34.19-.05.57-1.87.08.44,1.38.89-.53s2,.68.8.85-1.34.75-1.34.75a2.39,2.39,0,0,1,1.46,1.82l-.45,1.24-1.46-1.07-.26-1.07-1.24-.22.75-.8-.88-.84-1.29.3,0-.84c-4-.6-5.51,1.52-5.51,1.52l-.32,1.33-.57-1.15c-.52-1.78-2.13.12-2.13.12-1.47,2.39.4,1.07.4,1.07l.35,1-.93.52c-4.82,4.69-3.57,12.72-3.57,12.72l.1.76.82,1.95.67.14.17,1.69.57,1.28s1.49,13.15,0,17a27.34,27.34,0,0,0-.33,4.66,5.21,5.21,0,0,0-.59,3.81,6.74,6.74,0,0,1-1.65,2.21s-2.53.26-3.29,1.45l-.23.49-.1.62.35,1.12-.83.12s-1.74,3.78-1.75,5.67c0,0-4.05,6.37-2.46,9.81l-1.08,2.24-.65.12s-1,6.74,6.9,18.19l.82,1.11.65.38-.18,1.36-.77-.72-2.67.7L471,362s-9,3.27-8.69,12.56l.41.48-.43,2.36.36.12-.79,2.54-.7-.12-.84,1.42a4.09,4.09,0,0,1-.53-.42c.06,0-.48.47-.48.47h-1.12l-.71.82s-3.25-1.08-3.8,1.64c0,0-3.55.7-3.38,3.65,0,0,0,2.49-3.92,1.64,0,0,.42-1.35-1.94-1.84l2.25-.76h.59l-.05-1.18-.77-.42-.29-1.18,1-.71-.59-.41-.12-.6s.9-.52-.17-1.42c0,0-.4-2.13,1.49-2,0,0-.16-2.9-2.17-3.32,0,0,1.24-.83,1.19-.83a8.67,8.67,0,0,1,.12-1.24,13.66,13.66,0,0,1,1.36.36,7,7,0,0,0,.71-.65l-.52-1.42s4-1.64,4.45-3.88c0,0,1.9-.53.48-2.31,0,0-1.58-1.84-1.59-1.78s-1.89-.36-1.89-.36-.77.23-.71.29.41.65.41.65l-.95.71-.81-.57-1.55.79-.9.89.12.77.05,1.22.06.79-1.43.76-.71.65-.41-.71-.22.81c-2-.73-.67,1.21-.38.84l-.24,1.12c-1.09-.61-1.13,1.12-.54.89l.12,1.36s-.72.29-.66.35.71.48.71.48l-.47.23V376l.94.24.59.65,1.06.18.36.36L443.21,379c-1.95.05-1.42,1.71-1.42,1.71l.65.24a4.13,4.13,0,0,0-.18.48c0,.05-1.78.05-1.78.05l-.05-.65.35-.42-1-.65-1.32-.18v-.47l1.44.06.46-.65-.43-.18-.82-1.31.12-.94-.8-.66s-.52.35-.46.35l-1.06-.18-1.53-.48c-6,.15-7.94,2.87-8,2.86s.05,2.9.05,2.9l-.89.3-.49,1-.64,2,.7.32.12,1.27-.45.44.69.7,1,.64v.95l-.32,1.64-1.53.94c-.2,3.3-.1,1.18-.1,1.18l-.45,1-.49.8-.4,0-.85.71-.52,1.39.18,1.71h-.69c-.07,0-.25-.64-.25-.64a10,10,0,0,0-.83.63c.06,0-.32.76-.25.76s-2,.94-2,1-2.08-1.27-2.08-1.27a5.3,5.3,0,0,1,.51-.72,5.84,5.84,0,0,0-.5-.8l-.76-.26s.07-1.08.07-1.14,1-1,1-1c-.75-.72-.53-.68-.29-.57l-.07-.46-.22-.71.14-.84s.39-1,.39-1-.57-.08-.57-.08.07-.93.07-.87a10.44,10.44,0,0,0,.83-.81l-.5-1.79.56-2.25,2.84.25.3-.83-1.3-1.48-1.47-1-2.87-.69-1.46.76c-3.61-.21-2.79,1.82-2.79,1.82l-.38.06a1.53,1.53,0,0,0-.46,2.53c-.51,1.08-2.54,1.13-2.54,1.13l-1.58,1-1.22,2.21.38,1-1,1.52-.13.7c-4.89,3.21-1.87,5.75-1.87,5.75-.63.19-1.83-.58-1.83-.58A12.87,12.87,0,0,0,390.1,398c-1.58-.77-6.71-1-6.71-1l-2-.07-1,.31c-2,.1-8.41,2.67-8.41,2.67l-1.61-.05-1.86.36c.07-.37,1.18-2.7,1.18-2.74a5.3,5.3,0,0,1,.69,0,7.93,7.93,0,0,0,.44.8l.65.19a1.12,1.12,0,0,0,.15-.48,2.35,2.35,0,0,1-.18-.4s1.21.08,1.21,0,1.21-.91,1.21-.91l.18.33s.4-.58.44-.62.91-.43.91-.43l-.18-.48.69-.47s.28.15.28.11-.06,1.5-.06,1.5l.37-.14-1.35-1.06-.63,0V395l.7-.19.91-1.09.61-.37c-.54-1.57-1.55-1-1.55-1l-.54-.14c-1.68-.45-1.58,1.41-1.58,1.41h-.38s-.24-.44-.24-.44l-2.85-.08c-1.24.39-1.34-.16-1.34-.16-.73-2-1.5-1.43-1.5-1.43l0-.95.37-.47.19-.62,0-.62-.29,0-.29.8-.56.73c-1,2.26-.3,3.47-.3,3.47,1.85,1.47,1.27,2.13,1.27,2.13-1.83.21-3.72-2-3.72-2,1.69-3.28-.42-4.64-.46-4.64s.2-2.78.2-2.78a14.5,14.5,0,0,0,1.22-2.84l.55-.55-.11-.54-1.43.57L362,385l-.91-.49-2.52.93-.64,2.22.36.53-.36,1s-1.08,2.74-2.24,3.54c0,0-1.43,2.3-1,3.63l.71.54-.19,2,1.24.35a2.92,2.92,0,0,1,2.21,1.61,6.63,6.63,0,0,0,1.86.81l2.22,1.17,1.62.83-.12.89.47.3.42-.36.64.3-.12,1.12-.36.83-.83.05-.77.83,1.3.24a7,7,0,0,0-.65.71c.06,0,.76,1.9.76,1.9l-1.48.88-1.84-.07-.82-.53,2.07-.12-.12-.59-2.13-.13-.88-.35-.3.53h-.53l.89-1.47-.65-.42-.24.35-.65-.23-.47.88.71.3-2.2,1.53.18-.89-.95,1.08-.18,2.27h-.42l-.23-2-.83-.31.35.7-.88.65L353,412l-2.61,1.5-.65-.61L348,414.5l-.24,1,1,.47-1.13,1.18-.47-.95s-1.55,1.47-1.55,1.42a12,12,0,0,1,1.42.3l-.06.77.94.53-.47.65.11,1.07-.65.17-.18-.71-.94-.42-.36,1.13.83.12-.06.59-.72.17-.06.89-.89.11.24-.65H344l-.06,1.07-1.07.34a13.62,13.62,0,0,0-2.15,4.2l-.51,1.33-.89,1.68.08.8-1.42.35.44.8-.44.79.7.54-4.54,2.91-1.06.61-3.37-.81-3.37-.9-3.28-1.88-.61-2.49-1.06.08-.18-.53,1.34-.44.36-1.33-5.4-3.21-1.14-2.05-.8-.54-1.69-.09.28-1.33,1.07-1-1.07-.18.8-1.15,1.79-1.41L315,417.27l.27-1.42.45-.71,1.42-.34v-1.25l-.79-.18-.62-1.78-1.68-.89.85-1.51,1.11-.52,2.14-.79,2.76-2.65,3.21-3.63.9-1.85-.09-1.51-1.59-1.52.27-.57-2.21-.95-1.07.53-.36.62-1-.36-1,.35.62,1.07-1.06-.72-.63.89-3.29.52-1.15-.63-1.24.17L304.75,393l-7,.23-.52-1.69-.36,1.69-.72,1.41-2.71,0-1-.14-1.15.44-.44-.45h-.72v.89l1.06.44-.62.62-1.16.89.18.71-.8.52-1.07.71-1.16.17-.17-.62-1.6-.27L283,399l.35.45,1.77-.17.53.53-.44,1.06-.63.09-.09.71-.62-.53-.44.53-.1,1-.44.71-.54,1-1.42-.62h-1.59v.8l-1,.08-1-2.4-.09,1.24-.89-.18-.17-2.13-.8.71-2.14,1.5-2.75.69-1.42-.18-.3.59-.24.65-.71-.59V405l-.47.29s0,1.07,0,1.12a8.7,8.7,0,0,1-1,.59l-.48-.48-1.3-.18-.59.3-.18-.54.48-.53-.12-.77-.53-.35-.35.64L260,406.46l-.89-.48-.24,1.66-1.19.53-2.48-.19-.18.53-2.07.17v.53h-.76v-.42l-1-.06a5.49,5.49,0,0,0-.36,1.18c.06.12-.94-.07-.94-.07l0,.72.65.18-.77.58-1.6-.06v.59l-1.48.7-1.18-.89s-.72,1-.72,1.06a3.78,3.78,0,0,1-.82-.06l-.3-1h.48l.3-.47-1.13-.42-.23-1.36-.41-1-.76-1.18-.71.29s-1.71-.48-1.83-.48-1.66.58-1.66.58v.89s-2.55,2.06-2.61,2.12a3.29,3.29,0,0,0,0,.77l.35.65-.12,1.09.35,1.07-.54.71-.71.7.25,3.82-1.16,1.24-1.33.35.43,2s.44,1.33.61,1.33-1,.44-1.06.44a5.29,5.29,0,0,1-.26-1.15l-1.51-1.52c.09.09-.8.53-.8.53l-1-.72-2-1.25-1.41-1.07-.89-.62-.71.61v.71l-1.24-.71,1.69-1.23-2-1.35-3.73.52L217,419.75l-1.69-.63-.08-.53-1.33-.45.44.8-1.25.62s-1.32-1.87-1.41-2a29.63,29.63,0,0,0-1.08,3l-2,1.32-1.87-.71-.8.52-.53-.8.27-.7-2-2.15s-1.42-.44-1.5-.45-1.61,2.39-1.61,2.39l-1.43,1.15-.53,1-.89-1.16h.71l.2-3.81-1.33-1.43.19-1.06,1.6-1.77s-.17-1.78-.17-1.87-1.14-1.86-1.14-1.86l.63-2.31,1,.36,2.58-.79-.53-.8s-1.33-.27-1.5-.36.62-1.06.62-1.06,1.24,1,1.15.89a9.27,9.27,0,0,1,1.69-.44l1.42.45.79,1.25,1.51-.17,2.93-.43.62-.88a10.73,10.73,0,0,1,1.6-.09c0,.09,1.61-2.56,1.61-2.56l-.09-.53a5.73,5.73,0,0,0,.28-.63,4,4,0,0,1,1-.08l1.61-1.77s-.18-.71-.18-.8.54-.53.54-.53l.71-.08V397l.8-.62.53.8,1.22-.94,1.83-.17s3.55-.4,3.21-2.65l2.07-1.11.54-1,.77-.47.54-1.36.59-.23.89.12.36-1.48,1.19-1.3,3.45-2.64s1.83-.82,1.89-.82a14.34,14.34,0,0,0,.6-1.42l1.78-1.23.19-1.42,4.68-3.23a3.75,3.75,0,0,0,2.86-4.55,10.91,10.91,0,0,1-1.3-.42c0-.06-.05-.59,0-.59s1.95-.52,1.95-.52l1.66.12.12-.29-.95-.66,2-.29,1.54-1,3.2-.17.3-1.18,1.35.36.78-.76-.24-.54,1.3-.17s-.11-.77,0-.77a7.18,7.18,0,0,1,.94.42l.47,1.19,1.66-.41,1.54-.23,1.77.25.06.41-1.36.11-.4.24-.23.82c2,3.47,4.61,2,4.61,2l.89-1.15h.8l1.16-.7,2-.44c2.92,1.88,9.05.75,9.05.75l2.4-.61.88.36c6.66-.68,6.67-1.74,6.67-1.74l.71-1,1.07.1,1-.4,3.69-1.8,3,.64,1.07-.71,3.55,0,2.22.36,1.67.32,1.13-.5.54-1.09,1.41.07,1.38-1.21-.06-.45,4-1.07,1.66,1.48.57,2.62-.1,2.4h-.32l0-1h-.74l-.39.47-1.77,1.71.13.38.48.05,0-.76,1.22-1.37-.06.79.54.22.06.47-.93-.07v.55l1.92.87.16-.38.45,0,0,1.09-.61.83.19.67,1.09-1.08,1,.19.13-1.05-1.19.15-.37-1.5,2.18-.66,1.15-1.31-.19,1,.7.63,0,1,.55.05-.1-.79h.74s-.2,1.54-.2,1.49a5.23,5.23,0,0,1,.59.5s1.24-.25,1.34-.25a13.48,13.48,0,0,0,1.14-1.33l1.09-.29.14.84a3.45,3.45,0,0,0-.74-.05c-.05.05-.4,1.28-.4,1.28l1.53.06,1.88-.63a8,8,0,0,0-.09-1.09,9.93,9.93,0,0,1,.7-.79l.73.84.7-.44-.59-.79.45-.2.49.3s.65-.93.65-1-1.48-1.15-1.48-1.15l.3.59s1.92,1.88,2,1.88h.69l1.68-1.17.25-1.18-.44-.79,0-.62.29-.36.05-.72-.54-.31,0-.65,1.73-1.44.63,2.48a4.2,4.2,0,0,0-.39.49s.59.74.59.74l1-.68.51-2.37c.2-2.18-2.85-4.52-2.85-4.52s-.05-.59-.05-1a1.79,1.79,0,0,0-.58-1.68,1,1,0,0,1-.2-1.34c1.19-.29,2-3.94,2-3.94a4.62,4.62,0,0,0,1.89-2.52l.75-.78-.34-1.46,1.6.05,1.76-1.56.77-.65.72-1.3,1.12-.23s11.41-11.19,12-18.88l-.35-.65.48-1.06-.05-1.42-.53-.36-.71-1.89.25-1.19-.18-1.24s-.46-1.24-.88-.06c0,0-.54.64-.47-.6,0,0-.35-1.83.89-2.54l-.05-.59s.95-.23.6-2.36l.78-1.06-.12-.66a9.34,9.34,0,0,0,3.14-1.4,3.06,3.06,0,0,0,3.2-.34l1.54-.64s1.42-.77,1.6-1.42a5.9,5.9,0,0,1,2.91-.81s2.43-1.35,3.55-.76l.76.78s-.53.58.29,1.42a1.45,1.45,0,0,1-1.06.76c-.71-1.12-3.62,1.41-1.85,2.77l.23.89-.89,1.24s-2.9-.54-3.79.52l-.12.76s-1,.83-.72,1.42l-.95.41-.24.53-.41.12L368,310l-.89-.12-.23-.41.59-.47-.53-.3-1,.53.18.65-1.2,1.94.42.36a5.07,5.07,0,0,1-.07.95c-.06,0-.65-.06-.65,0a9.89,9.89,0,0,0-.24,1.18c.06,0,.71.3.71.3l.59-.24.06-.47a5.06,5.06,0,0,1,1,.06c0,.06.87,3,1.95.07,0,0-.23-.83,1.13-.76l-.08,3.78-.06,1.25-.57.86.16.36-.68,1c-1.53,1.54.7,2.59.7,2.59l1.73,1.49a4.45,4.45,0,0,0,4,.37l2.48.4.46-.81,1.13-.7.13-.84.62-1.29,0-1.22c0-1.52,1.71-1.45,1.71-1.45l.43-.48,2.29-.31,1-.45.88,0,.71-.42s7.23-2.21,9.07-4.09l.95-.12,2.08-2.24s1.06.83,3.84.2c0,0,5.11-4.18,5.17-4.71l.24-.53,3-1.47a28.38,28.38,0,0,0,2.09-3.54l-.06-.47.6-.12.89-1.35,1.25-.95a13,13,0,0,0,2-5.25l1-2.72s1.55-2.12,2-2.12l5.52-3.58,1.36-.23s4.56-.63,8.26-7.66l-.12-.53.42-.94.38-5.27a5.67,5.67,0,0,1,1.19-2.48l.55-1.83.89-1.36-.16-.38,1.89-3.51.26-.87.62,0a2.24,2.24,0,0,1,1.49-1.22s.16-1.22,1-1.25c0,0,1.46-1.74,2.25-6.22l.1-.71.68-.51,1-4.06-.2-.78.47-.92.59-1.14,0-.7-.44-.11a3.23,3.23,0,0,1,0-.62l.51-.48.05-1.43.26-.4,1-.07c3.41-5.83,2.82-14,2.82-14l-.18-1.47-.39-2.21c-2.11-4.16-4.95-3.11-4.95-3.11s-.19,1.07-.19,1.1a11,11,0,0,1-1.14.11l-1.91-.19-.21-1.44-.48.07-.36-1.29.47-.32-.51-.19-.14-1.84.77,1,1.76.82,1.25-.22c4.62-4.09,4.23-8,4.23-8,1.22-2.2,1-3,1-3,.73-3.66-1.05-3.32-1.05-3.32l-1-1.66.07-2.13a10.68,10.68,0,0,0-.76-3.2l-1.42-.06-.05-1.06s3-1.94,3.74-4.25l1.72-.94,1.3.84s2-.29,2.37-1.53c0,0,1.18,1.31,2.32-1.76,0,0,1.5-5.5,1.16-8.64l-.64-.89-1.07-.06,0-.77,1.36.3a3.23,3.23,0,0,0,.84-3.37l.36-.94,1.42.83s2,3.74,3.84.26c0,0,1.6-.29,3,1.67,0,0-.5,6.09.9,9.88,0,0,2.11,5.1,5.27-.63l-.41-1.3.78-2.18,2.83,1.78.06.77.82.24,1.24.48s2,5,4.81-2.4l.49-4.14.65-.89a4.85,4.85,0,0,0-2.22-4.86s-1.12-.53-1.43,1.24l-.65.83-1.66,1-.83.18s-.82-1.43-2.13.16c0,0-1.25-.06-1.6.47a2.3,2.3,0,0,0-2.14,1.06s-1.36.82-1.41-1.73l.42-1s1.39-6.27,1.63-6.8l2-3.12-.35-.71.54-.89a4.79,4.79,0,0,0,4.31,2.15l1.3.77s4.87,7.48,9.58,1.11l-.19,1.78s-2.58,6.79-1.82,9.63c0,0-.83,12.9,2.87,18.71a1.27,1.27,0,0,0,2.07.54l3,3.15,1.06,1.28s3,5.25,3.08,6.49c0,0-2.4,1.59.35,1.51l.88,1.34s-3.11,1.14-.28,3.1L505,214l.89.09.69,2.31s-1.77-.19.26,2.31c0,0,1,3.82-.58,9.85l2-2.12.26,2.57S510.39,229.85,508.43,230.64Z" transform="translate(-134.09 -24.63)"/><path class="cls-1" d="M266,370.72l-.15-.42-.51-.21-.64-.37-1.36-1.46-.5-.66-.34-.65-1.3,0s-.57.74-.59.74.31,1.14.31,1.14l-.71,1,.91.15.81.44,1.14-.58,2,.82,0,.29.53-.17Z" transform="translate(-134.09 -24.63)"/><path class="cls-1" d="M454.6,165.43Z" transform="translate(-134.09 -24.63)"/><path class="cls-1" d="M614,98.56a6.79,6.79,0,0,1-4.29-.34s-4.64,4.36-4.76,4.36a7.47,7.47,0,0,1-5.19-3.81c-1.29-1.55-1.28-4.15-1.74-5.81-.24-.83-.32-1.14-.35-1.24l-.64-.41.16-.64,1.6.44-.44.36,2,.19,0,.64-.83.52,1.42.08c.88-.46,0-1.26,0-1.26a16.43,16.43,0,0,0-4-1.23s-1.58-.89-1.46-1a13.09,13.09,0,0,1-2.35-5l1-1.65a3.06,3.06,0,0,0,0-1.06c.49-2.84,4-6.26,4-6.38a12.47,12.47,0,0,0,.49-2.24,8.53,8.53,0,0,0,3.1-4.84s-.5-2.41-1.06-2.73c-.84,1.47-1.49,2.58-2.85,3.19,0,1.15-1.66,2.49-1.66,2.38-.62.2-9.44,8.1-10.87,9-8.76,1.14-13.19-2.12-13.19-2.12-1.27-1.29-1-2.08-1.21-4.17,0,0-1.25.13-1.37-.11-23.29-4.36-23.51-9-23.74-9.1-4.49-2.26-7.2-4.41-14.74-11.18s-6.46-10.56-8.94-12.47-8.71-9.74-8.71-9.74l-3.89-2.62-1.65-2-.94-1.78a15.19,15.19,0,0,0-1.78.35c-.37,4.49-3.8,3.65-3.8,3.53-1.66.47-2.71-1.31-2.71-1.31l-.48.82.35,1.19.47.59s-1.43,2.24-1.43,1.77c.11,2.6-1.31,2.83-1.31,2.83s.35,1.42,0,1.54c8.22,14.59,5.82,22.39,5.58,21.92.81,3.9-3.35,8.26-3.35,8.26s.78,9.83.43,9.47c-.62,6-4.17,6.49-4.17,6.49-6.4,1.51-4.76,6.25-4.76,6.25a8.93,8.93,0,0,1,.47,1.42c1.29,1.66-.14,3.55-.14,3.55s2.23,4.51,2.11,4.15c-.91,6.79-7.74,8.81-7.73,8.72s-3.42-1.31-3.42-1.43c-1.18-.36-.47-1.54-.47-1.66-1.66-.14-4,1.5-4.5.81-2.26,1.76-2.12-.49-2.24-.61-2,0-4.27-2.37-4.25-2.38-1.25-.1-3.42-3-3.42-3-1.08.13-.78,1.15-1.68,1.57a4,4,0,0,1-2.21.22,10.56,10.56,0,0,0-.38,2.08c-1.65,2.3,2,4.17,2,4.17l3.06,4.39s-.48,1.06-.24,1.07c-2.81,1.72-3.77,2.64-3.8,2.58s-.24.83-.24.95-2,2.38-2,2.38c.72,2-2.16,2.27-1.89.82l-1.35-1.1-1.31,2.25a4.43,4.43,0,0,1-1.76,1.09c-.5,1-.4,1.25-2,1.26-5.12,0-4.77,3.12-5,2.69,1.72,9-1.25,8.71-1.16,9l-.54,1.1.35,1a6.18,6.18,0,0,1-.12,1.42c-.12.12,1.06.83,1.06.83l1.42.37,1.4,2.72s3,1.08,2.84.84c5.19,4,2.72,10.49,2.44,10.55h-.83a8.68,8.68,0,0,1-.24,1.42c-5.1,7.22.05,11.51.42,11.83,1.43-.81,3.31.85,3.19.85a6.83,6.83,0,0,1,5.07-4l1.34-.6s0-3,0-3.31c-.58-2.84,3-2.71,3-2.71a6.65,6.65,0,0,0,2-1.76c.19-3.7,4.24-2.13,2.62.74-.24.3,1.25-1.24,1.55-1.29s1.78.6,2.2.47c1.07-.35,3.78,1.9,3.66,1.66,3.32-.22,3.8-2.23,3.68-2.47a5.37,5.37,0,0,0,2.37-.58c-.12,0-.94-.95-.82-.95s-.12-.83-.23-.83-2.49-1.08-2.37-1.31c-2,.82-4.95-3.34-4.71-3.45a3.7,3.7,0,0,1-2.48-3,15.73,15.73,0,0,0-1.41-1.43s-.71-.48-.82-.6-4.62.93-4.62.93-4.72-4-4.72-4.4c-1.54.47-2.72.22-2.95-.49-.2-7.92,5.37-11.45,5.14-11.57,1.66-.58,3.31.85,3.31.73,5.1-2.11,5.55,2.15,5.55,2.15s1.52,1,1.7,1.19c1.15-.12,1.81,3.62,1.81,3.62a1.9,1.9,0,0,1,.61.89,6.42,6.42,0,0,0,.94,1s1.28.87,1.3-.11a11.27,11.27,0,0,1,5.34-4.71c2.3-1.57,4.16-3.77,10.33-5.75,8.64-.55,11.69,4,12.63,4.67s3.43.49,4.38,1.32c1.41,2.26,5.89,4.88,5.89,4.88h.83l1.41,1.31,5.2,2.27a15.86,15.86,0,0,1,1.89.72,8.75,8.75,0,0,0,5.43,2c.12,0,5.55,3.57,5.55,3.69a10.42,10.42,0,0,0,.7,1.19s2.36,1.9,2.36,1.78a7.42,7.42,0,0,1,1.79-4.37l.84-4.67s-.91-1.61-1-1.68c.73-3.66,5.05-10.31,9.33-14.43s10.46-11.19,19.69-11.27c2.71,2.14,4.86,2,4.73,1.56,0-.12,7.51.92,7.57.51a17.53,17.53,0,0,1-1.65-1.43c.72-3.07,3.08-2.23,3.2-2.35,0,2.71,2.79,2.72,4.39,2a1.8,1.8,0,0,0,.93-1.31s2-.84,1.58-.72c.91-4.73,3.2-3,3.08-3,5.57-2.22,6.78-1.55,9.14-1.44.29-.79,1-3.68,1-3.68l.83-.12s1-.94,1-1.18C614,100.61,614.08,98.57,614,98.56Z" transform="translate(-134.09 -24.63)"/><path class="cls-1" d="M475.87,129.44h-.05C475.89,129.48,475.9,129.47,475.87,129.44Z" transform="translate(-134.09 -24.63)"/><path class="cls-1" d="M486.85,39c0-.09,2.49-.26,2.85-1.41s-1.41-3-1.41-3l-2-.81s-2.31,1-2,2.56A4.77,4.77,0,0,0,486.85,39Z" transform="translate(-134.09 -24.63)"/><path class="cls-1" d="M481.11,32.71l.53.36.54-1.24,0-4.44a11.35,11.35,0,0,1-1.87.52,6.31,6.31,0,0,0,.88,3.65Z" transform="translate(-134.09 -24.63)"/></svg>