<svg xmlns="http://www.w3.org/2000/svg" viewBox="0 0 63.99 64"><defs><style>.cls-1{fill:#374149;}</style></defs><g id="レイヤー_2" data-name="レイヤー 2"><g id="_1" data-name="1"><path class="cls-1" d="M46.28,3.37A31.89,31.89,0,0,0,24.9.8l-.13,0a33.49,33.49,0,0,0-4.5,1.4h0c-.65.26-1.3.54-1.94.84l-.13.06c-.59.29-1.18.59-1.75.91l-.36.2a32.55,32.55,0,0,0-3.64,2.44l-.1.07A32,32,0,0,0,39.08,63.2h0a31.21,31.21,0,0,0,4.2-1.27l.43-.17c.65-.25,1.29-.53,1.92-.83l.16-.08c.59-.27,1.16-.57,1.72-.89l.38-.21a32.26,32.26,0,0,0,3.63-2.42l.11-.09A32,32,0,0,0,46.28,3.37Zm-2.13,7.15a24.33,24.33,0,0,1,9.35,9.4A1,1,0,0,1,53,21.37l-15.27,6.3a1,1,0,0,1-1.36-1.37L42.7,11A1,1,0,0,1,44.15,10.52ZM25.41,8.23a24.38,24.38,0,0,1,13.26,0,1,1,0,0,1,.65,1.4L33,24.9a1,1,0,0,1-1.93,0L24.75,9.62A1,1,0,0,1,25.41,8.23ZM10.52,19.84a24.44,24.44,0,0,1,9.39-9.35,1,1,0,0,1,1.46.53l6.29,15.27a1,1,0,0,1-1.36,1.36L11,21.3A1,1,0,0,1,10.52,19.84ZM8.22,38.58a24.34,24.34,0,0,1,0-13.25,1,1,0,0,1,1.4-.66L24.89,31a1,1,0,0,1,0,1.93L9.62,39.25A1,1,0,0,1,8.22,38.58Zm11.62,14.9a24.33,24.33,0,0,1-9.35-9.4A1,1,0,0,1,11,42.63l15.27-6.3a1,1,0,0,1,1.36,1.37L21.29,53A1,1,0,0,1,19.84,53.48Zm18.74,2.29a24.38,24.38,0,0,1-13.26,0,1,1,0,0,1-.65-1.4L31,39.1a1,1,0,0,1,1.93,0l6.29,15.27A1,1,0,0,1,38.58,55.77ZM53.47,44.16a24.38,24.38,0,0,1-9.39,9.35A1,1,0,0,1,42.62,53L36.33,37.71a1,1,0,0,1,1.36-1.36L53,42.7A1,1,0,0,1,53.47,44.16Zm2.29-5.49a1,1,0,0,1-1.4.66L39.1,33a1,1,0,0,1,0-1.93l15.27-6.3a1,1,0,0,1,1.4.67A24.34,24.34,0,0,1,55.76,38.67Z"/></g></g></svg>